<ttFont>
    <TTGlyph name="a.tam" xMin="36" yMin="-9" xMax="847" yMax="520">
      <contour>
        <pt x="413" y="520" on="1"/>
        <pt x="465" y="520" on="0"/>
        <pt x="550" y="479" on="0"/>
        <pt x="610" y="410" on="0"/>
        <pt x="642" y="322" on="0"/>
        <pt x="641" y="275" on="1"/>
        <pt x="723" y="275" on="1"/>
        <pt x="745" y="512" on="1"/>
        <pt x="847" y="512" on="1"/>
        <pt x="798" y="0" on="1"/>
        <pt x="697" y="0" on="1"/>
        <pt x="716" y="205" on="1"/>
        <pt x="632" y="205" on="1"/>
        <pt x="610" y="108" on="0"/>
        <pt x="461" y="-9" on="0"/>
        <pt x="331" y="-9" on="1"/>
        <pt x="259" y="-9" on="0"/>
        <pt x="147" y="28" on="0"/>
        <pt x="72" y="86" on="0"/>
        <pt x="36" y="155" on="0"/>
        <pt x="39" y="188" on="1"/>
        <pt x="43" y="232" on="0"/>
        <pt x="101" y="275" on="0"/>
        <pt x="148" y="275" on="1"/>
        <pt x="214" y="275" on="1"/>
        <pt x="189" y="306" on="0"/>
        <pt x="194" y="352" on="1"/>
        <pt x="197" y="388" on="0"/>
        <pt x="235" y="450" on="0"/>
        <pt x="295" y="495" on="0"/>
        <pt x="371" y="520" on="0"/>
      </contour>
      <contour>
        <pt x="338" y="85" on="1"/>
        <pt x="420" y="85" on="0"/>
        <pt x="528" y="148" on="0"/>
        <pt x="549" y="205" on="1"/>
        <pt x="186" y="205" on="1"/>
        <pt x="145" y="205" on="0"/>
        <pt x="142" y="171" on="1"/>
        <pt x="140" y="156" on="0"/>
        <pt x="159" y="125" on="0"/>
        <pt x="205" y="100" on="0"/>
        <pt x="281" y="85" on="0"/>
      </contour>
      <contour>
        <pt x="400" y="366" on="1"/>
        <pt x="402" y="380" on="0"/>
        <pt x="401" y="408" on="0"/>
        <pt x="396" y="423" on="1"/>
        <pt x="372" y="421" on="0"/>
        <pt x="331" y="406" on="0"/>
        <pt x="300" y="384" on="0"/>
        <pt x="281" y="353" on="0"/>
        <pt x="280" y="334" on="1"/>
        <pt x="278" y="308" on="0"/>
        <pt x="304" y="275" on="0"/>
        <pt x="325" y="275" on="1"/>
        <pt x="357" y="275" on="0"/>
        <pt x="396" y="328" on="0"/>
      </contour>
      <contour>
        <pt x="458" y="349" on="1"/>
        <pt x="456" y="327" on="0"/>
        <pt x="442" y="289" on="0"/>
        <pt x="432" y="275" on="1"/>
        <pt x="561" y="275" on="1"/>
        <pt x="561" y="330" on="0"/>
        <pt x="499" y="409" on="0"/>
        <pt x="449" y="420" on="1"/>
        <pt x="454" y="404" on="0"/>
        <pt x="460" y="369" on="0"/>
      </contour>
    </TTGlyph>
    <TTGlyph name="aa.tam" xMin="36" yMin="-187" xMax="1088" yMax="520">
      <contour>
        <pt x="413" y="520" on="1"/>
        <pt x="465" y="520" on="0"/>
        <pt x="550" y="479" on="0"/>
        <pt x="610" y="410" on="0"/>
        <pt x="642" y="322" on="0"/>
        <pt x="641" y="275" on="1"/>
        <pt x="723" y="275" on="1"/>
        <pt x="745" y="512" on="1"/>
        <pt x="847" y="512" on="1"/>
        <pt x="820" y="225" on="1"/>
        <pt x="841" y="268" on="0"/>
        <pt x="905" y="309" on="0"/>
        <pt x="946" y="309" on="1"/>
        <pt x="981" y="309" on="0"/>
        <pt x="1036" y="277" on="0"/>
        <pt x="1072" y="222" on="0"/>
        <pt x="1088" y="148" on="0"/>
        <pt x="1084" y="105" on="1"/>
        <pt x="1078" y="39" on="0"/>
        <pt x="1017" y="-69" on="0"/>
        <pt x="920" y="-146" on="0"/>
        <pt x="793" y="-187" on="0"/>
        <pt x="720" y="-187" on="1"/>
        <pt x="675" y="-187" on="0"/>
        <pt x="582" y="-167" on="0"/>
        <pt x="540" y="-148" on="1"/>
        <pt x="551" y="-32" on="1"/>
        <pt x="596" y="-58" on="0"/>
        <pt x="688" y="-83" on="0"/>
        <pt x="729" y="-83" on="1"/>
        <pt x="780" y="-83" on="0"/>
        <pt x="868" y="-56" on="0"/>
        <pt x="933" y="-7" on="0"/>
        <pt x="972" y="63" on="0"/>
        <pt x="976" y="105" on="1"/>
        <pt x="982" y="158" on="0"/>
        <pt x="941" y="210" on="0"/>
        <pt x="911" y="210" on="1"/>
        <pt x="870" y="210" on="0"/>
        <pt x="810" y="125" on="0"/>
        <pt x="803" y="52" on="1"/>
        <pt x="798" y="0" on="1"/>
        <pt x="697" y="0" on="1"/>
        <pt x="716" y="205" on="1"/>
        <pt x="632" y="205" on="1"/>
        <pt x="610" y="108" on="0"/>
        <pt x="461" y="-9" on="0"/>
        <pt x="331" y="-9" on="1"/>
        <pt x="259" y="-9" on="0"/>
        <pt x="147" y="28" on="0"/>
        <pt x="72" y="86" on="0"/>
        <pt x="36" y="155" on="0"/>
        <pt x="39" y="188" on="1"/>
        <pt x="43" y="232" on="0"/>
        <pt x="101" y="275" on="0"/>
        <pt x="148" y="275" on="1"/>
        <pt x="214" y="275" on="1"/>
        <pt x="189" y="306" on="0"/>
        <pt x="194" y="352" on="1"/>
        <pt x="197" y="388" on="0"/>
        <pt x="235" y="450" on="0"/>
        <pt x="295" y="495" on="0"/>
        <pt x="371" y="520" on="0"/>
      </contour>
      <contour>
        <pt x="338" y="85" on="1"/>
        <pt x="420" y="85" on="0"/>
        <pt x="528" y="148" on="0"/>
        <pt x="549" y="205" on="1"/>
        <pt x="186" y="205" on="1"/>
        <pt x="145" y="205" on="0"/>
        <pt x="142" y="171" on="1"/>
        <pt x="140" y="156" on="0"/>
        <pt x="159" y="125" on="0"/>
        <pt x="205" y="100" on="0"/>
        <pt x="281" y="85" on="0"/>
      </contour>
      <contour>
        <pt x="400" y="366" on="1"/>
        <pt x="402" y="380" on="0"/>
        <pt x="401" y="408" on="0"/>
        <pt x="396" y="423" on="1"/>
        <pt x="372" y="421" on="0"/>
        <pt x="331" y="406" on="0"/>
        <pt x="300" y="384" on="0"/>
        <pt x="281" y="353" on="0"/>
        <pt x="280" y="334" on="1"/>
        <pt x="278" y="308" on="0"/>
        <pt x="304" y="275" on="0"/>
        <pt x="325" y="275" on="1"/>
        <pt x="328" y="275" on="1"/>
        <pt x="359" y="277" on="0"/>
        <pt x="396" y="328" on="0"/>
      </contour>
      <contour>
        <pt x="458" y="349" on="1"/>
        <pt x="456" y="327" on="0"/>
        <pt x="442" y="289" on="0"/>
        <pt x="432" y="275" on="1"/>
        <pt x="561" y="275" on="1"/>
        <pt x="561" y="330" on="0"/>
        <pt x="500" y="409" on="0"/>
        <pt x="450" y="420" on="1"/>
        <pt x="460" y="387" on="0"/>
      </contour>
    </TTGlyph>
    <TTGlyph name="aamatra.tam" xMin="83" yMin="0" xMax="580" yMax="511">
      <contour>
        <pt x="580" y="511" on="1"/>
        <pt x="571" y="408" on="1"/>
        <pt x="475" y="408" on="1"/>
        <pt x="437" y="0" on="1"/>
        <pt x="336" y="0" on="1"/>
        <pt x="374" y="408" on="1"/>
        <pt x="223" y="408" on="1"/>
        <pt x="185" y="0" on="1"/>
        <pt x="83" y="0" on="1"/>
        <pt x="132" y="511" on="1"/>
      </contour>
    </TTGlyph>
    <TTGlyph name="ai.tam" xMin="51" yMin="-260" xMax="778" yMax="520">
      <contour>
        <pt x="622" y="520" on="1"/>
        <pt x="655" y="520" on="0"/>
        <pt x="712" y="493" on="0"/>
        <pt x="754" y="443" on="0"/>
        <pt x="778" y="375" on="0"/>
        <pt x="778" y="333" on="1"/>
        <pt x="778" y="263" on="0"/>
        <pt x="727" y="148" on="0"/>
        <pt x="634" y="66" on="0"/>
        <pt x="505" y="21" on="0"/>
        <pt x="426" y="21" on="1"/>
        <pt x="249" y="21" on="1"/>
        <pt x="207" y="21" on="0"/>
        <pt x="157" y="-25" on="0"/>
        <pt x="157" y="-67" on="1"/>
        <pt x="157" y="-105" on="0"/>
        <pt x="210" y="-152" on="0"/>
        <pt x="259" y="-152" on="1"/>
        <pt x="364" y="-152" on="0"/>
        <pt x="374" y="-48" on="1"/>
        <pt x="475" y="-48" on="1"/>
        <pt x="474" y="-54" on="0"/>
        <pt x="474" y="-66" on="0"/>
        <pt x="474" y="-71" on="1"/>
        <pt x="476" y="-113" on="0"/>
        <pt x="518" y="-152" on="0"/>
        <pt x="552" y="-152" on="1"/>
        <pt x="590" y="-152" on="0"/>
        <pt x="636" y="-96" on="0"/>
        <pt x="636" y="-55" on="1"/>
        <pt x="636" y="-39" on="0"/>
        <pt x="629" y="-10" on="0"/>
        <pt x="623" y="4" on="1"/>
        <pt x="716" y="46" on="1"/>
        <pt x="741" y="-4" on="0"/>
        <pt x="741" y="-58" on="1"/>
        <pt x="741" y="-99" on="0"/>
        <pt x="718" y="-173" on="0"/>
        <pt x="672" y="-228" on="0"/>
        <pt x="604" y="-260" on="0"/>
        <pt x="560" y="-260" on="1"/>
        <pt x="518" y="-260" on="0"/>
        <pt x="454" y="-216" on="0"/>
        <pt x="440" y="-166" on="1"/>
        <pt x="377" y="-260" on="0"/>
        <pt x="249" y="-260" on="1"/>
        <pt x="204" y="-260" on="0"/>
        <pt x="131" y="-231" on="0"/>
        <pt x="79" y="-180" on="0"/>
        <pt x="51" y="-109" on="0"/>
        <pt x="51" y="-68" on="1"/>
        <pt x="51" y="20" on="0"/>
        <pt x="154" y="123" on="0"/>
        <pt x="254" y="123" on="1"/>
        <pt x="425" y="123" on="1"/>
        <pt x="476" y="123" on="0"/>
        <pt x="566" y="147" on="0"/>
        <pt x="633" y="199" on="0"/>
        <pt x="672" y="281" on="0"/>
        <pt x="672" y="339" on="1"/>
        <pt x="672" y="378" on="0"/>
        <pt x="639" y="421" on="0"/>
        <pt x="612" y="421" on="1"/>
        <pt x="577" y="421" on="0"/>
        <pt x="527" y="356" on="0"/>
        <pt x="521" y="291" on="1"/>
        <pt x="513" y="204" on="1"/>
        <pt x="412" y="204" on="1"/>
        <pt x="418" y="268" on="1"/>
        <pt x="421" y="340" on="0"/>
        <pt x="364" y="427" on="0"/>
        <pt x="305" y="426" on="1"/>
        <pt x="328" y="404" on="0"/>
        <pt x="354" y="341" on="0"/>
        <pt x="354" y="309" on="1"/>
        <pt x="354" y="252" on="0"/>
        <pt x="285" y="178" on="0"/>
        <pt x="222" y="178" on="1"/>
        <pt x="195" y="178" on="0"/>
        <pt x="146" y="195" on="0"/>
        <pt x="108" y="230" on="0"/>
        <pt x="86" y="281" on="0"/>
        <pt x="86" y="314" on="1"/>
        <pt x="86" y="354" on="0"/>
        <pt x="118" y="429" on="0"/>
        <pt x="174" y="486" on="0"/>
        <pt x="250" y="520" on="0"/>
        <pt x="294" y="520" on="1"/>
        <pt x="346" y="520" on="0"/>
        <pt x="431" y="463" on="0"/>
        <pt x="452" y="405" on="1"/>
        <pt x="479" y="462" on="0"/>
        <pt x="568" y="520" on="0"/>
      </contour>
      <contour>
        <pt x="230" y="262" on="1"/>
        <pt x="259" y="262" on="0"/>
        <pt x="293" y="308" on="0"/>
        <pt x="293" y="346" on="1"/>
        <pt x="293" y="367" on="0"/>
        <pt x="276" y="403" on="0"/>
        <pt x="261" y="417" on="1"/>
        <pt x="231" y="404" on="0"/>
        <pt x="184" y="350" on="0"/>
        <pt x="184" y="312" on="1"/>
        <pt x="184" y="287" on="0"/>
        <pt x="210" y="262" on="0"/>
      </contour>
    </TTGlyph>
    <TTGlyph name="aimatra.tam" xMin="63" yMin="-9" xMax="1058" yMax="520">
      <contour>
        <pt x="447" y="520" on="1"/>
        <pt x="507" y="520" on="0"/>
        <pt x="621" y="483" on="0"/>
        <pt x="669" y="449" on="1"/>
        <pt x="707" y="481" on="0"/>
        <pt x="796" y="520" on="0"/>
        <pt x="845" y="520" on="1"/>
        <pt x="894" y="520" on="0"/>
        <pt x="976" y="482" on="0"/>
        <pt x="1032" y="411" on="0"/>
        <pt x="1058" y="310" on="0"/>
        <pt x="1052" y="247" on="1"/>
        <pt x="1046" y="179" on="0"/>
        <pt x="983" y="47" on="0"/>
        <pt x="931" y="-7" on="1"/>
        <pt x="849" y="31" on="1"/>
        <pt x="899" y="89" on="0"/>
        <pt x="946" y="192" on="0"/>
        <pt x="951" y="250" on="1"/>
        <pt x="954" y="283" on="0"/>
        <pt x="944" y="345" on="0"/>
        <pt x="917" y="392" on="0"/>
        <pt x="872" y="421" on="0"/>
        <pt x="841" y="421" on="1"/>
        <pt x="815" y="421" on="0"/>
        <pt x="763" y="402" on="0"/>
        <pt x="739" y="385" on="1"/>
        <pt x="777" y="340" on="0"/>
        <pt x="815" y="231" on="0"/>
        <pt x="810" y="169" on="1"/>
        <pt x="806" y="129" on="0"/>
        <pt x="777" y="63" on="0"/>
        <pt x="733" y="17" on="0"/>
        <pt x="678" y="-9" on="0"/>
        <pt x="648" y="-9" on="1"/>
        <pt x="618" y="-9" on="0"/>
        <pt x="568" y="17" on="0"/>
        <pt x="533" y="63" on="0"/>
        <pt x="516" y="129" on="0"/>
        <pt x="520" y="169" on="1"/>
        <pt x="525" y="222" on="0"/>
        <pt x="567" y="328" on="0"/>
        <pt x="600" y="374" on="1"/>
        <pt x="564" y="394" on="0"/>
        <pt x="481" y="416" on="0"/>
        <pt x="438" y="416" on="1"/>
        <pt x="383" y="416" on="0"/>
        <pt x="286" y="384" on="0"/>
        <pt x="213" y="328" on="0"/>
        <pt x="168" y="250" on="0"/>
        <pt x="164" y="205" on="1"/>
        <pt x="159" y="160" on="0"/>
        <pt x="182" y="106" on="0"/>
        <pt x="203" y="91" on="1"/>
        <pt x="201" y="101" on="0"/>
        <pt x="200" y="120" on="0"/>
        <pt x="200" y="130" on="1"/>
        <pt x="204" y="169" on="0"/>
        <pt x="232" y="234" on="0"/>
        <pt x="273" y="282" on="0"/>
        <pt x="326" y="309" on="0"/>
        <pt x="356" y="309" on="1"/>
        <pt x="383" y="309" on="0"/>
        <pt x="426" y="287" on="0"/>
        <pt x="456" y="247" on="0"/>
        <pt x="469" y="192" on="0"/>
        <pt x="466" y="159" on="1"/>
        <pt x="463" y="123" on="0"/>
        <pt x="433" y="61" on="0"/>
        <pt x="384" y="16" on="0"/>
        <pt x="317" y="-9" on="0"/>
        <pt x="277" y="-9" on="1"/>
        <pt x="231" y="-9" on="0"/>
        <pt x="151" y="25" on="0"/>
        <pt x="92" y="86" on="0"/>
        <pt x="63" y="172" on="0"/>
        <pt x="68" y="225" on="1"/>
        <pt x="72" y="281" on="0"/>
        <pt x="128" y="387" on="0"/>
        <pt x="226" y="470" on="0"/>
        <pt x="362" y="520" on="0"/>
      </contour>
      <contour>
        <pt x="721" y="169" on="1"/>
        <pt x="725" y="214" on="0"/>
        <pt x="697" y="289" on="0"/>
        <pt x="670" y="320" on="1"/>
        <pt x="645" y="288" on="0"/>
        <pt x="612" y="211" on="0"/>
        <pt x="608" y="169" on="1"/>
        <pt x="605" y="132" on="0"/>
        <pt x="632" y="89" on="0"/>
        <pt x="656" y="89" on="1"/>
        <pt x="680" y="89" on="0"/>
        <pt x="717" y="132" on="0"/>
      </contour>
      <contour>
        <pt x="339" y="210" on="1"/>
        <pt x="309" y="210" on="0"/>
        <pt x="269" y="161" on="0"/>
        <pt x="262" y="129" on="1"/>
        <pt x="259" y="115" on="0"/>
        <pt x="258" y="89" on="0"/>
        <pt x="260" y="77" on="1"/>
        <pt x="262" y="77" on="0"/>
        <pt x="265" y="80" on="1"/>
        <pt x="278" y="77" on="0"/>
        <pt x="298" y="79" on="1"/>
        <pt x="327" y="82" on="0"/>
        <pt x="376" y="122" on="0"/>
        <pt x="381" y="157" on="1"/>
        <pt x="383" y="180" on="0"/>
        <pt x="362" y="210" on="0"/>
      </contour>
    </TTGlyph>
    <TTGlyph name="aimatrahalf.tam" xMin="64" yMin="-9" xMax="545" yMax="832">
      <contour>
        <pt x="345" y="832" on="1"/>
        <pt x="390" y="832" on="0"/>
        <pt x="466" y="797" on="0"/>
        <pt x="519" y="738" on="0"/>
        <pt x="545" y="659" on="0"/>
        <pt x="541" y="615" on="1"/>
        <pt x="534" y="546" on="0"/>
        <pt x="472" y="436" on="0"/>
        <pt x="412" y="389" on="1"/>
        <pt x="225" y="245" on="1"/>
        <pt x="202" y="226" on="0"/>
        <pt x="176" y="187" on="0"/>
        <pt x="174" y="164" on="1"/>
        <pt x="172" y="135" on="0"/>
        <pt x="200" y="94" on="0"/>
        <pt x="229" y="94" on="1"/>
        <pt x="294" y="94" on="0"/>
        <pt x="412" y="203" on="0"/>
        <pt x="458" y="297" on="1"/>
        <pt x="496" y="279" on="1"/>
        <pt x="478" y="213" on="0"/>
        <pt x="422" y="106" on="0"/>
        <pt x="351" y="31" on="0"/>
        <pt x="266" y="-9" on="0"/>
        <pt x="220" y="-9" on="1"/>
        <pt x="185" y="-9" on="0"/>
        <pt x="127" y="17" on="0"/>
        <pt x="85" y="63" on="0"/>
        <pt x="64" y="129" on="0"/>
        <pt x="68" y="169" on="1"/>
        <pt x="71" y="199" on="0"/>
        <pt x="91" y="247" on="0"/>
        <pt x="122" y="290" on="0"/>
        <pt x="165" y="329" on="0"/>
        <pt x="191" y="349" on="1"/>
        <pt x="345" y="470" on="1"/>
        <pt x="391" y="505" on="0"/>
        <pt x="435" y="575" on="0"/>
        <pt x="440" y="621" on="1"/>
        <pt x="444" y="671" on="0"/>
        <pt x="396" y="737" on="0"/>
        <pt x="355" y="745" on="1"/>
        <pt x="371" y="724" on="0"/>
        <pt x="384" y="673" on="0"/>
        <pt x="382" y="647" on="1"/>
        <pt x="380" y="623" on="0"/>
        <pt x="360" y="576" on="0"/>
        <pt x="325" y="539" on="0"/>
        <pt x="276" y="516" on="0"/>
        <pt x="245" y="516" on="1"/>
        <pt x="212" y="516" on="0"/>
        <pt x="159" y="538" on="0"/>
        <pt x="123" y="576" on="0"/>
        <pt x="106" y="628" on="0"/>
        <pt x="109" y="658" on="1"/>
        <pt x="113" y="696" on="0"/>
        <pt x="154" y="760" on="0"/>
        <pt x="218" y="806" on="0"/>
        <pt x="300" y="832" on="0"/>
      </contour>
      <contour>
        <pt x="310" y="749" on="1"/>
        <pt x="293" y="747" on="0"/>
        <pt x="258" y="733" on="0"/>
        <pt x="229" y="710" on="0"/>
        <pt x="209" y="680" on="0"/>
        <pt x="208" y="662" on="1"/>
        <pt x="206" y="635" on="0"/>
        <pt x="231" y="600" on="0"/>
        <pt x="259" y="600" on="1"/>
        <pt x="286" y="600" on="0"/>
        <pt x="321" y="641" on="0"/>
        <pt x="323" y="672" on="1"/>
        <pt x="325" y="691" on="0"/>
        <pt x="318" y="731" on="0"/>
      </contour>
    </TTGlyph>
    <TTGlyph name="ampersand" xMin="73" yMin="-9" xMax="763" yMax="663">
      <contour>
        <pt x="763" y="169" on="1"/>
        <pt x="754" y="88" on="0"/>
        <pt x="679" y="-9" on="0"/>
        <pt x="610" y="-9" on="1"/>
        <pt x="569" y="-9" on="0"/>
        <pt x="499" y="25" on="0"/>
        <pt x="463" y="66" on="1"/>
        <pt x="420" y="29" on="0"/>
        <pt x="327" y="-9" on="0"/>
        <pt x="272" y="-9" on="1"/>
        <pt x="228" y="-9" on="0"/>
        <pt x="154" y="18" on="0"/>
        <pt x="100" y="67" on="0"/>
        <pt x="73" y="135" on="0"/>
        <pt x="77" y="177" on="1"/>
        <pt x="89" y="305" on="0"/>
        <pt x="235" y="340" on="1"/>
        <pt x="206" y="381" on="0"/>
        <pt x="178" y="457" on="0"/>
        <pt x="183" y="500" on="1"/>
        <pt x="186" y="534" on="0"/>
        <pt x="218" y="593" on="0"/>
        <pt x="269" y="637" on="0"/>
        <pt x="340" y="663" on="0"/>
        <pt x="382" y="663" on="1"/>
        <pt x="421" y="663" on="0"/>
        <pt x="483" y="635" on="0"/>
        <pt x="524" y="589" on="0"/>
        <pt x="543" y="530" on="0"/>
        <pt x="540" y="498" on="1"/>
        <pt x="535" y="438" on="0"/>
        <pt x="463" y="349" on="0"/>
        <pt x="390" y="316" on="1"/>
        <pt x="478" y="212" on="1"/>
        <pt x="531" y="277" on="0"/>
        <pt x="580" y="369" on="1"/>
        <pt x="649" y="324" on="1"/>
        <pt x="620" y="271" on="0"/>
        <pt x="564" y="181" on="0"/>
        <pt x="535" y="144" on="1"/>
        <pt x="547" y="130" on="1"/>
        <pt x="567" y="108" on="0"/>
        <pt x="594" y="91" on="0"/>
        <pt x="611" y="91" on="1"/>
        <pt x="634" y="91" on="0"/>
        <pt x="667" y="132" on="0"/>
        <pt x="671" y="169" on="1"/>
      </contour>
      <contour>
        <pt x="180" y="177" on="1"/>
        <pt x="176" y="140" on="0"/>
        <pt x="225" y="90" on="0"/>
        <pt x="274" y="90" on="1"/>
        <pt x="339" y="90" on="0"/>
        <pt x="402" y="138" on="1"/>
        <pt x="289" y="274" on="1"/>
        <pt x="232" y="262" on="0"/>
        <pt x="183" y="211" on="0"/>
      </contour>
      <contour>
        <pt x="437" y="492" on="1"/>
        <pt x="439" y="522" on="0"/>
        <pt x="405" y="564" on="0"/>
        <pt x="374" y="564" on="1"/>
        <pt x="340" y="564" on="0"/>
        <pt x="295" y="520" on="0"/>
        <pt x="292" y="489" on="1"/>
        <pt x="288" y="438" on="0"/>
        <pt x="322" y="398" on="1"/>
        <pt x="339" y="377" on="1"/>
        <pt x="385" y="400" on="0"/>
        <pt x="433" y="455" on="0"/>
      </contour>
    </TTGlyph>
    <TTGlyph name="anusvara.tam" xMin="81" yMin="592" xMax="347" yMax="839">
      <contour>
        <pt x="225" y="839" on="1"/>
        <pt x="283" y="839" on="0"/>
        <pt x="347" y="773" on="0"/>
        <pt x="341" y="715" on="1"/>
        <pt x="336" y="658" on="0"/>
        <pt x="259" y="592" on="0"/>
        <pt x="202" y="592" on="1"/>
        <pt x="145" y="592" on="0"/>
        <pt x="81" y="658" on="0"/>
        <pt x="86" y="715" on="1"/>
        <pt x="92" y="773" on="0"/>
        <pt x="168" y="839" on="0"/>
      </contour>
      <contour>
        <pt x="218" y="762" on="1"/>
        <pt x="200" y="762" on="0"/>
        <pt x="178" y="736" on="0"/>
        <pt x="176" y="715" on="1"/>
        <pt x="171" y="671" on="0"/>
        <pt x="209" y="671" on="1"/>
        <pt x="247" y="671" on="0"/>
        <pt x="252" y="715" on="1"/>
        <pt x="254" y="736" on="0"/>
        <pt x="236" y="762" on="0"/>
      </contour>
    </TTGlyph>
    <TTGlyph name="apostrophe" xMin="71" yMin="375" xMax="281" yMax="662">
      <contour>
        <pt x="110" y="586" on="1"/>
        <pt x="114" y="619" on="0"/>
        <pt x="162" y="662" on="0"/>
        <pt x="197" y="662" on="1"/>
        <pt x="239" y="662" on="0"/>
        <pt x="281" y="596" on="0"/>
        <pt x="276" y="548" on="1"/>
        <pt x="274" y="524" on="0"/>
        <pt x="254" y="474" on="0"/>
        <pt x="222" y="428" on="0"/>
        <pt x="179" y="388" on="0"/>
        <pt x="153" y="375" on="1"/>
        <pt x="71" y="423" on="1"/>
        <pt x="104" y="439" on="0"/>
        <pt x="157" y="484" on="0"/>
        <pt x="168" y="512" on="1"/>
        <pt x="142" y="518" on="0"/>
        <pt x="108" y="555" on="0"/>
      </contour>
    </TTGlyph>
    <TTGlyph name="asciicircum" xMin="37" yMin="212" xMax="497" yMax="607">
      <contour>
        <pt x="37" y="212" on="1"/>
        <pt x="258" y="607" on="1"/>
        <pt x="351" y="607" on="1"/>
        <pt x="497" y="212" on="1"/>
        <pt x="370" y="212" on="1"/>
        <pt x="290" y="456" on="1"/>
        <pt x="164" y="212" on="1"/>
      </contour>
    </TTGlyph>
    <TTGlyph name="asciitilde" xMin="74" yMin="200" xMax="505" yMax="384">
      <contour>
        <pt x="132" y="200" on="1"/>
        <pt x="74" y="237" on="1"/>
        <pt x="96" y="303" on="0"/>
        <pt x="161" y="383" on="0"/>
        <pt x="209" y="383" on="1"/>
        <pt x="229" y="383" on="0"/>
        <pt x="272" y="369" on="0"/>
        <pt x="304" y="355" on="1"/>
        <pt x="334" y="341" on="0"/>
        <pt x="370" y="330" on="0"/>
        <pt x="384" y="330" on="1"/>
        <pt x="419" y="330" on="0"/>
        <pt x="447" y="384" on="1"/>
        <pt x="505" y="341" on="1"/>
        <pt x="479" y="275" on="0"/>
        <pt x="407" y="208" on="0"/>
        <pt x="363" y="208" on="1"/>
        <pt x="347" y="208" on="0"/>
        <pt x="305" y="221" on="0"/>
        <pt x="273" y="236" on="1"/>
        <pt x="242" y="249" on="0"/>
        <pt x="209" y="261" on="0"/>
        <pt x="195" y="261" on="1"/>
        <pt x="178" y="261" on="0"/>
        <pt x="146" y="232" on="0"/>
      </contour>
    </TTGlyph>
    <TTGlyph name="asterisk" xMin="96" yMin="399" xMax="382" yMax="709">
      <contour>
        <pt x="192" y="532" on="1"/>
        <pt x="96" y="568" on="1"/>
        <pt x="132" y="642" on="1"/>
        <pt x="215" y="592" on="1"/>
        <pt x="215" y="709" on="1"/>
        <pt x="291" y="709" on="1"/>
        <pt x="269" y="592" on="1"/>
        <pt x="361" y="643" on="1"/>
        <pt x="382" y="568" on="1"/>
        <pt x="282" y="532" on="1"/>
        <pt x="351" y="452" on="1"/>
        <pt x="290" y="399" on="1"/>
        <pt x="234" y="498" on="1"/>
        <pt x="157" y="399" on="1"/>
        <pt x="107" y="452" on="1"/>
      </contour>
    </TTGlyph>
    <TTGlyph name="at" xMin="54" yMin="-232" xMax="916" yMax="647">
      <contour>
        <pt x="559" y="261" on="1"/>
        <pt x="561" y="287" on="0"/>
        <pt x="546" y="323" on="0"/>
        <pt x="521" y="323" on="1"/>
        <pt x="503" y="323" on="0"/>
        <pt x="462" y="303" on="0"/>
        <pt x="426" y="266" on="0"/>
        <pt x="400" y="212" on="0"/>
        <pt x="397" y="179" on="1"/>
        <pt x="393" y="137" on="0"/>
        <pt x="428" y="83" on="0"/>
        <pt x="457" y="83" on="1"/>
        <pt x="487" y="83" on="0"/>
        <pt x="528" y="128" on="0"/>
        <pt x="550" y="166" on="1"/>
      </contour>
      <contour>
        <pt x="568" y="647" on="1"/>
        <pt x="648" y="647" on="0"/>
        <pt x="780" y="593" on="0"/>
        <pt x="872" y="495" on="0"/>
        <pt x="916" y="358" on="0"/>
        <pt x="908" y="276" on="1"/>
        <pt x="902" y="210" on="0"/>
        <pt x="857" y="104" on="0"/>
        <pt x="790" y="31" on="0"/>
        <pt x="705" y="-9" on="0"/>
        <pt x="659" y="-9" on="1"/>
        <pt x="570" y="-9" on="0"/>
        <pt x="545" y="73" on="1"/>
        <pt x="525" y="35" on="0"/>
        <pt x="470" y="-9" on="0"/>
        <pt x="424" y="-9" on="1"/>
        <pt x="395" y="-9" on="0"/>
        <pt x="343" y="19" on="0"/>
        <pt x="305" y="68" on="0"/>
        <pt x="285" y="136" on="0"/>
        <pt x="289" y="176" on="1"/>
        <pt x="294" y="228" on="0"/>
        <pt x="339" y="319" on="0"/>
        <pt x="407" y="387" on="0"/>
        <pt x="491" y="426" on="0"/>
        <pt x="535" y="426" on="1"/>
        <pt x="595" y="426" on="0"/>
        <pt x="668" y="343" on="0"/>
        <pt x="660" y="263" on="1"/>
        <pt x="649" y="136" on="1"/>
        <pt x="645" y="83" on="0"/>
        <pt x="678" y="83" on="1"/>
        <pt x="694" y="83" on="0"/>
        <pt x="734" y="107" on="0"/>
        <pt x="769" y="153" on="0"/>
        <pt x="796" y="223" on="0"/>
        <pt x="800" y="269" on="1"/>
        <pt x="805" y="328" on="0"/>
        <pt x="778" y="429" on="0"/>
        <pt x="716" y="502" on="0"/>
        <pt x="620" y="544" on="0"/>
        <pt x="557" y="544" on="1"/>
        <pt x="486" y="544" on="0"/>
        <pt x="353" y="490" on="0"/>
        <pt x="246" y="394" on="0"/>
        <pt x="176" y="262" on="0"/>
        <pt x="168" y="183" on="1"/>
        <pt x="161" y="109" on="0"/>
        <pt x="199" y="-8" on="0"/>
        <pt x="283" y="-89" on="0"/>
        <pt x="411" y="-132" on="0"/>
        <pt x="494" y="-132" on="1"/>
        <pt x="484" y="-232" on="1"/>
        <pt x="389" y="-232" on="0"/>
        <pt x="226" y="-174" on="0"/>
        <pt x="111" y="-63" on="0"/>
        <pt x="54" y="98" on="0"/>
        <pt x="64" y="202" on="1"/>
        <pt x="73" y="298" on="0"/>
        <pt x="161" y="462" on="0"/>
        <pt x="298" y="580" on="0"/>
        <pt x="473" y="647" on="0"/>
      </contour>
    </TTGlyph>
    <TTGlyph name="au.tam" xMin="62" yMin="-361" xMax="2063" yMax="520">
      <contour>
        <pt x="758" y="-207" on="1"/>
        <pt x="696" y="-207" on="0"/>
        <pt x="644" y="-188" on="1"/>
        <pt x="589" y="-273" on="0"/>
        <pt x="464" y="-361" on="0"/>
        <pt x="386" y="-361" on="1"/>
        <pt x="350" y="-361" on="0"/>
        <pt x="286" y="-339" on="0"/>
        <pt x="240" y="-298" on="0"/>
        <pt x="216" y="-241" on="0"/>
        <pt x="220" y="-205" on="1"/>
        <pt x="223" y="-175" on="0"/>
        <pt x="249" y="-125" on="0"/>
        <pt x="289" y="-91" on="0"/>
        <pt x="338" y="-72" on="0"/>
        <pt x="364" y="-72" on="1"/>
        <pt x="397" y="-72" on="0"/>
        <pt x="444" y="-96" on="0"/>
        <pt x="473" y="-138" on="0"/>
        <pt x="486" y="-198" on="0"/>
        <pt x="486" y="-234" on="1"/>
        <pt x="509" y="-215" on="0"/>
        <pt x="550" y="-166" on="0"/>
        <pt x="568" y="-138" on="1"/>
        <pt x="539" y="-107" on="0"/>
        <pt x="514" y="-23" on="0"/>
        <pt x="519" y="29" on="1"/>
        <pt x="527" y="114" on="0"/>
        <pt x="626" y="250" on="0"/>
        <pt x="704" y="302" on="1"/>
        <pt x="809" y="263" on="1"/>
        <pt x="796" y="236" on="0"/>
        <pt x="780" y="190" on="0"/>
        <pt x="777" y="161" on="1"/>
        <pt x="775" y="132" on="0"/>
        <pt x="801" y="94" on="0"/>
        <pt x="827" y="94" on="1"/>
        <pt x="853" y="94" on="0"/>
        <pt x="896" y="147" on="0"/>
        <pt x="901" y="198" on="1"/>
        <pt x="905" y="244" on="0"/>
        <pt x="860" y="324" on="0"/>
        <pt x="770" y="382" on="0"/>
        <pt x="638" y="416" on="0"/>
        <pt x="555" y="416" on="1"/>
        <pt x="373" y="416" on="0"/>
        <pt x="180" y="302" on="0"/>
        <pt x="171" y="201" on="1"/>
        <pt x="167" y="159" on="0"/>
        <pt x="191" y="106" on="0"/>
        <pt x="212" y="91" on="1"/>
        <pt x="211" y="115" on="0"/>
        <pt x="217" y="167" on="0"/>
        <pt x="226" y="192" on="1"/>
        <pt x="243" y="240" on="0"/>
        <pt x="317" y="309" on="0"/>
        <pt x="373" y="309" on="1"/>
        <pt x="404" y="309" on="0"/>
        <pt x="453" y="287" on="0"/>
        <pt x="484" y="247" on="0"/>
        <pt x="498" y="192" on="0"/>
        <pt x="495" y="159" on="1"/>
        <pt x="492" y="123" on="0"/>
        <pt x="457" y="61" on="0"/>
        <pt x="401" y="16" on="0"/>
        <pt x="327" y="-9" on="0"/>
        <pt x="285" y="-9" on="1"/>
        <pt x="239" y="-9" on="0"/>
        <pt x="156" y="25" on="0"/>
        <pt x="95" y="87" on="0"/>
        <pt x="62" y="172" on="0"/>
        <pt x="67" y="223" on="1"/>
        <pt x="73" y="286" on="0"/>
        <pt x="136" y="395" on="0"/>
        <pt x="258" y="475" on="0"/>
        <pt x="441" y="520" on="0"/>
        <pt x="566" y="520" on="1"/>
        <pt x="686" y="520" on="0"/>
        <pt x="858" y="462" on="0"/>
        <pt x="967" y="370" on="0"/>
        <pt x="1013" y="254" on="0"/>
        <pt x="1007" y="197" on="1"/>
        <pt x="1002" y="148" on="0"/>
        <pt x="969" y="72" on="0"/>
        <pt x="918" y="19" on="0"/>
        <pt x="855" y="-9" on="0"/>
        <pt x="821" y="-9" on="1"/>
        <pt x="791" y="-9" on="0"/>
        <pt x="740" y="10" on="0"/>
        <pt x="704" y="46" on="0"/>
        <pt x="686" y="97" on="0"/>
        <pt x="689" y="129" on="1"/>
        <pt x="691" y="141" on="0"/>
        <pt x="699" y="170" on="0"/>
        <pt x="705" y="185" on="1"/>
        <pt x="670" y="156" on="0"/>
        <pt x="626" y="73" on="0"/>
        <pt x="622" y="30" on="1"/>
        <pt x="618" y="-5" on="0"/>
        <pt x="635" y="-56" on="0"/>
        <pt x="672" y="-89" on="0"/>
        <pt x="727" y="-105" on="0"/>
        <pt x="760" y="-105" on="1"/>
        <pt x="858" y="-105" on="1"/>
        <pt x="848" y="-207" on="1"/>
      </contour>
      <contour>
        <pt x="1396" y="520" on="1"/>
        <pt x="1441" y="520" on="0"/>
        <pt x="1510" y="492" on="0"/>
        <pt x="1561" y="446" on="0"/>
        <pt x="1595" y="386" on="0"/>
        <pt x="1603" y="354" on="1"/>
        <pt x="1619" y="511" on="1"/>
        <pt x="2063" y="511" on="1"/>
        <pt x="2054" y="408" on="1"/>
        <pt x="1960" y="408" on="1"/>
        <pt x="1922" y="0" on="1"/>
        <pt x="1819" y="0" on="1"/>
        <pt x="1857" y="408" on="1"/>
        <pt x="1703" y="408" on="1"/>
        <pt x="1665" y="0" on="1"/>
        <pt x="1571" y="0" on="1"/>
        <pt x="1585" y="157" on="1"/>
        <pt x="1596" y="279" on="0"/>
        <pt x="1497" y="416" on="0"/>
        <pt x="1404" y="416" on="1"/>
        <pt x="1360" y="416" on="0"/>
        <pt x="1285" y="383" on="0"/>
        <pt x="1227" y="326" on="0"/>
        <pt x="1190" y="249" on="0"/>
        <pt x="1186" y="205" on="1"/>
        <pt x="1181" y="160" on="0"/>
        <pt x="1204" y="106" on="0"/>
        <pt x="1226" y="91" on="1"/>
        <pt x="1225" y="115" on="0"/>
        <pt x="1231" y="167" on="0"/>
        <pt x="1240" y="192" on="1"/>
        <pt x="1257" y="240" on="0"/>
        <pt x="1331" y="309" on="0"/>
        <pt x="1387" y="309" on="1"/>
        <pt x="1418" y="309" on="0"/>
        <pt x="1467" y="287" on="0"/>
        <pt x="1498" y="247" on="0"/>
        <pt x="1512" y="192" on="0"/>
        <pt x="1509" y="159" on="1"/>
        <pt x="1506" y="123" on="0"/>
        <pt x="1471" y="61" on="0"/>
        <pt x="1416" y="16" on="0"/>
        <pt x="1342" y="-9" on="0"/>
        <pt x="1299" y="-9" on="1"/>
        <pt x="1254" y="-9" on="0"/>
        <pt x="1171" y="25" on="0"/>
        <pt x="1109" y="88" on="0"/>
        <pt x="1077" y="176" on="0"/>
        <pt x="1082" y="230" on="1"/>
        <pt x="1088" y="298" on="0"/>
        <pt x="1147" y="405" on="0"/>
        <pt x="1234" y="480" on="0"/>
        <pt x="1341" y="520" on="0"/>
      </contour>
      <contour>
        <pt x="347" y="210" on="1"/>
        <pt x="320" y="210" on="0"/>
        <pt x="281" y="168" on="0"/>
        <pt x="273" y="139" on="1"/>
        <pt x="265" y="107" on="0"/>
        <pt x="268" y="80" on="1"/>
        <pt x="274" y="78" on="0"/>
        <pt x="291" y="78" on="0"/>
        <pt x="299" y="78" on="1"/>
        <pt x="312" y="78" on="0"/>
        <pt x="343" y="88" on="0"/>
        <pt x="369" y="108" on="0"/>
        <pt x="387" y="137" on="0"/>
        <pt x="389" y="157" on="1"/>
        <pt x="391" y="180" on="0"/>
        <pt x="370" y="210" on="0"/>
      </contour>
      <contour>
        <pt x="1361" y="210" on="1"/>
        <pt x="1334" y="210" on="0"/>
        <pt x="1295" y="168" on="0"/>
        <pt x="1287" y="139" on="1"/>
        <pt x="1279" y="107" on="0"/>
        <pt x="1282" y="80" on="1"/>
        <pt x="1288" y="78" on="0"/>
        <pt x="1305" y="78" on="0"/>
        <pt x="1313" y="78" on="1"/>
        <pt x="1326" y="78" on="0"/>
        <pt x="1357" y="88" on="0"/>
        <pt x="1383" y="108" on="0"/>
        <pt x="1401" y="137" on="0"/>
        <pt x="1403" y="157" on="1"/>
        <pt x="1405" y="180" on="0"/>
        <pt x="1384" y="210" on="0"/>
      </contour>
      <contour>
        <pt x="371" y="-158" on="1"/>
        <pt x="349" y="-158" on="0"/>
        <pt x="319" y="-187" on="0"/>
        <pt x="317" y="-209" on="1"/>
        <pt x="315" y="-236" on="0"/>
        <pt x="353" y="-269" on="0"/>
        <pt x="382" y="-269" on="1"/>
        <pt x="396" y="-269" on="0"/>
        <pt x="414" y="-267" on="0"/>
        <pt x="425" y="-264" on="1"/>
        <pt x="427" y="-216" on="0"/>
        <pt x="400" y="-158" on="0"/>
      </contour>
    </TTGlyph>
    <TTGlyph name="aumatra.tam" xMin="70" yMin="-9" xMax="2234" yMax="791">
      <contour>
        <pt x="881" y="423" on="1"/>
        <pt x="901" y="440" on="0"/>
        <pt x="950" y="461" on="0"/>
        <pt x="976" y="465" on="1"/>
        <pt x="976" y="439" on="0"/>
        <pt x="977" y="386" on="0"/>
        <pt x="977" y="360" on="1"/>
        <pt x="951" y="357" on="0"/>
        <pt x="931" y="340" on="1"/>
      </contour>
      <contour>
        <pt x="799" y="289" on="1"/>
        <pt x="805" y="316" on="0"/>
        <pt x="830" y="367" on="0"/>
        <pt x="846" y="387" on="1"/>
        <pt x="913" y="322" on="1"/>
        <pt x="899" y="302" on="0"/>
        <pt x="893" y="279" on="1"/>
      </contour>
      <contour>
        <pt x="1022" y="464" on="1"/>
        <pt x="1071" y="456" on="0"/>
        <pt x="1106" y="423" on="1"/>
        <pt x="1041" y="338" on="1"/>
        <pt x="1025" y="356" on="0"/>
        <pt x="1001" y="359" on="1"/>
      </contour>
      <contour>
        <pt x="1135" y="385" on="1"/>
        <pt x="1149" y="364" on="0"/>
        <pt x="1162" y="314" on="0"/>
        <pt x="1163" y="287" on="1"/>
        <pt x="1067" y="275" on="1"/>
        <pt x="1066" y="289" on="0"/>
        <pt x="1061" y="309" on="0"/>
        <pt x="1056" y="320" on="1"/>
      </contour>
      <contour>
        <pt x="1074" y="101" on="1"/>
        <pt x="1054" y="85" on="0"/>
        <pt x="1006" y="63" on="0"/>
        <pt x="983" y="60" on="1"/>
        <pt x="979" y="164" on="1"/>
        <pt x="992" y="166" on="0"/>
        <pt x="1013" y="175" on="0"/>
        <pt x="1024" y="183" on="1"/>
      </contour>
      <contour>
        <pt x="1157" y="236" on="1"/>
        <pt x="1152" y="208" on="0"/>
        <pt x="1128" y="157" on="0"/>
        <pt x="1111" y="137" on="1"/>
        <pt x="1042" y="201" on="1"/>
        <pt x="1050" y="211" on="0"/>
        <pt x="1061" y="237" on="0"/>
        <pt x="1064" y="248" on="1"/>
      </contour>
      <contour>
        <pt x="821" y="138" on="1"/>
        <pt x="796" y="181" on="0"/>
        <pt x="794" y="237" on="1"/>
        <pt x="889" y="250" on="1"/>
        <pt x="890" y="236" on="0"/>
        <pt x="895" y="216" on="0"/>
        <pt x="900" y="204" on="1"/>
      </contour>
      <contour>
        <pt x="935" y="60" on="1"/>
        <pt x="910" y="64" on="0"/>
        <pt x="867" y="86" on="0"/>
        <pt x="850" y="102" on="1"/>
        <pt x="918" y="183" on="1"/>
        <pt x="931" y="168" on="0"/>
        <pt x="956" y="165" on="1"/>
      </contour>
      <contour>
        <pt x="527" y="791" on="1"/>
        <pt x="581" y="791" on="0"/>
        <pt x="658" y="754" on="0"/>
        <pt x="706" y="687" on="0"/>
        <pt x="724" y="593" on="0"/>
        <pt x="719" y="535" on="1"/>
        <pt x="668" y="0" on="1"/>
        <pt x="567" y="0" on="1"/>
        <pt x="618" y="536" on="1"/>
        <pt x="626" y="614" on="0"/>
        <pt x="570" y="683" on="0"/>
        <pt x="518" y="683" on="1"/>
        <pt x="469" y="683" on="0"/>
        <pt x="357" y="620" on="0"/>
        <pt x="259" y="511" on="0"/>
        <pt x="188" y="364" on="0"/>
        <pt x="180" y="280" on="1"/>
        <pt x="174" y="208" on="0"/>
        <pt x="199" y="115" on="0"/>
        <pt x="225" y="92" on="1"/>
        <pt x="225" y="115" on="0"/>
        <pt x="230" y="167" on="0"/>
        <pt x="240" y="192" on="1"/>
        <pt x="256" y="240" on="0"/>
        <pt x="330" y="309" on="0"/>
        <pt x="387" y="309" on="1"/>
        <pt x="418" y="309" on="0"/>
        <pt x="467" y="287" on="0"/>
        <pt x="498" y="247" on="0"/>
        <pt x="511" y="192" on="0"/>
        <pt x="508" y="159" on="1"/>
        <pt x="505" y="123" on="0"/>
        <pt x="471" y="61" on="0"/>
        <pt x="415" y="16" on="0"/>
        <pt x="341" y="-9" on="0"/>
        <pt x="298" y="-9" on="1"/>
        <pt x="251" y="-9" on="0"/>
        <pt x="165" y="34" on="0"/>
        <pt x="102" y="116" on="0"/>
        <pt x="70" y="235" on="0"/>
        <pt x="77" y="312" on="1"/>
        <pt x="86" y="411" on="0"/>
        <pt x="166" y="585" on="0"/>
        <pt x="288" y="716" on="0"/>
        <pt x="443" y="791" on="0"/>
      </contour>
      <contour>
        <pt x="361" y="210" on="1"/>
        <pt x="334" y="210" on="0"/>
        <pt x="295" y="168" on="0"/>
        <pt x="287" y="139" on="1"/>
        <pt x="279" y="109" on="0"/>
        <pt x="281" y="80" on="1"/>
        <pt x="289" y="78" on="0"/>
        <pt x="303" y="78" on="0"/>
        <pt x="311" y="78" on="1"/>
        <pt x="340" y="78" on="0"/>
        <pt x="398" y="118" on="0"/>
        <pt x="403" y="157" on="1"/>
        <pt x="405" y="180" on="0"/>
        <pt x="384" y="210" on="0"/>
      </contour>
      <contour>
        <pt x="1567" y="520" on="1"/>
        <pt x="1612" y="520" on="0"/>
        <pt x="1681" y="492" on="0"/>
        <pt x="1732" y="446" on="0"/>
        <pt x="1766" y="386" on="0"/>
        <pt x="1774" y="354" on="1"/>
        <pt x="1790" y="511" on="1"/>
        <pt x="2234" y="511" on="1"/>
        <pt x="2225" y="408" on="1"/>
        <pt x="2131" y="408" on="1"/>
        <pt x="2093" y="0" on="1"/>
        <pt x="1990" y="0" on="1"/>
        <pt x="2028" y="408" on="1"/>
        <pt x="1874" y="408" on="1"/>
        <pt x="1836" y="0" on="1"/>
        <pt x="1742" y="0" on="1"/>
        <pt x="1756" y="157" on="1"/>
        <pt x="1767" y="279" on="0"/>
        <pt x="1668" y="416" on="0"/>
        <pt x="1575" y="416" on="1"/>
        <pt x="1531" y="416" on="0"/>
        <pt x="1456" y="383" on="0"/>
        <pt x="1398" y="326" on="0"/>
        <pt x="1361" y="249" on="0"/>
        <pt x="1357" y="205" on="1"/>
        <pt x="1352" y="160" on="0"/>
        <pt x="1375" y="106" on="0"/>
        <pt x="1397" y="91" on="1"/>
        <pt x="1396" y="115" on="0"/>
        <pt x="1402" y="167" on="0"/>
        <pt x="1411" y="192" on="1"/>
        <pt x="1428" y="240" on="0"/>
        <pt x="1502" y="309" on="0"/>
        <pt x="1558" y="309" on="1"/>
        <pt x="1589" y="309" on="0"/>
        <pt x="1638" y="287" on="0"/>
        <pt x="1669" y="247" on="0"/>
        <pt x="1683" y="192" on="0"/>
        <pt x="1680" y="159" on="1"/>
        <pt x="1677" y="123" on="0"/>
        <pt x="1642" y="61" on="0"/>
        <pt x="1587" y="16" on="0"/>
        <pt x="1513" y="-9" on="0"/>
        <pt x="1470" y="-9" on="1"/>
        <pt x="1425" y="-9" on="0"/>
        <pt x="1342" y="25" on="0"/>
        <pt x="1280" y="88" on="0"/>
        <pt x="1248" y="176" on="0"/>
        <pt x="1253" y="230" on="1"/>
        <pt x="1259" y="298" on="0"/>
        <pt x="1318" y="405" on="0"/>
        <pt x="1405" y="480" on="0"/>
        <pt x="1512" y="520" on="0"/>
      </contour>
      <contour>
        <pt x="1532" y="210" on="1"/>
        <pt x="1505" y="210" on="0"/>
        <pt x="1466" y="168" on="0"/>
        <pt x="1458" y="139" on="1"/>
        <pt x="1450" y="107" on="0"/>
        <pt x="1453" y="80" on="1"/>
        <pt x="1459" y="78" on="0"/>
        <pt x="1476" y="78" on="0"/>
        <pt x="1484" y="78" on="1"/>
        <pt x="1497" y="78" on="0"/>
        <pt x="1528" y="88" on="0"/>
        <pt x="1554" y="108" on="0"/>
        <pt x="1572" y="137" on="0"/>
        <pt x="1574" y="157" on="1"/>
        <pt x="1576" y="180" on="0"/>
        <pt x="1555" y="210" on="0"/>
      </contour>
    </TTGlyph>
    <TTGlyph name="aumatrahalf.tam" xMin="63" yMin="-9" xMax="1049" yMax="520">
      <contour>
        <pt x="382" y="520" on="1"/>
        <pt x="427" y="520" on="0"/>
        <pt x="496" y="492" on="0"/>
        <pt x="547" y="446" on="0"/>
        <pt x="581" y="386" on="0"/>
        <pt x="589" y="354" on="1"/>
        <pt x="605" y="511" on="1"/>
        <pt x="1049" y="511" on="1"/>
        <pt x="1040" y="408" on="1"/>
        <pt x="946" y="408" on="1"/>
        <pt x="908" y="0" on="1"/>
        <pt x="805" y="0" on="1"/>
        <pt x="843" y="408" on="1"/>
        <pt x="689" y="408" on="1"/>
        <pt x="651" y="0" on="1"/>
        <pt x="557" y="0" on="1"/>
        <pt x="571" y="157" on="1"/>
        <pt x="582" y="279" on="0"/>
        <pt x="483" y="416" on="0"/>
        <pt x="390" y="416" on="1"/>
        <pt x="346" y="416" on="0"/>
        <pt x="271" y="383" on="0"/>
        <pt x="213" y="326" on="0"/>
        <pt x="176" y="249" on="0"/>
        <pt x="172" y="205" on="1"/>
        <pt x="167" y="160" on="0"/>
        <pt x="190" y="106" on="0"/>
        <pt x="212" y="91" on="1"/>
        <pt x="211" y="115" on="0"/>
        <pt x="217" y="167" on="0"/>
        <pt x="226" y="192" on="1"/>
        <pt x="243" y="240" on="0"/>
        <pt x="317" y="309" on="0"/>
        <pt x="373" y="309" on="1"/>
        <pt x="404" y="309" on="0"/>
        <pt x="453" y="287" on="0"/>
        <pt x="484" y="247" on="0"/>
        <pt x="498" y="192" on="0"/>
        <pt x="495" y="159" on="1"/>
        <pt x="492" y="123" on="0"/>
        <pt x="457" y="61" on="0"/>
        <pt x="402" y="16" on="0"/>
        <pt x="328" y="-9" on="0"/>
        <pt x="285" y="-9" on="1"/>
        <pt x="240" y="-9" on="0"/>
        <pt x="157" y="25" on="0"/>
        <pt x="95" y="88" on="0"/>
        <pt x="63" y="176" on="0"/>
        <pt x="68" y="230" on="1"/>
        <pt x="74" y="298" on="0"/>
        <pt x="133" y="405" on="0"/>
        <pt x="220" y="480" on="0"/>
        <pt x="327" y="520" on="0"/>
      </contour>
      <contour>
        <pt x="347" y="210" on="1"/>
        <pt x="320" y="210" on="0"/>
        <pt x="281" y="168" on="0"/>
        <pt x="273" y="139" on="1"/>
        <pt x="265" y="107" on="0"/>
        <pt x="268" y="80" on="1"/>
        <pt x="274" y="78" on="0"/>
        <pt x="291" y="78" on="0"/>
        <pt x="299" y="78" on="1"/>
        <pt x="312" y="78" on="0"/>
        <pt x="343" y="88" on="0"/>
        <pt x="369" y="108" on="0"/>
        <pt x="387" y="137" on="0"/>
        <pt x="389" y="157" on="1"/>
        <pt x="391" y="180" on="0"/>
        <pt x="370" y="210" on="0"/>
      </contour>
    </TTGlyph>
    <TTGlyph name="backslash" xMin="59" yMin="-82" xMax="481" yMax="749">
      <contour>
        <pt x="59" y="749" on="1"/>
        <pt x="168" y="749" on="1"/>
        <pt x="481" y="-82" on="1"/>
        <pt x="369" y="-82" on="1"/>
      </contour>
    </TTGlyph>
    <TTGlyph name="bar" xMin="71" yMin="-122" xMax="257" yMax="775">
      <contour>
        <pt x="154" y="775" on="1"/>
        <pt x="257" y="775" on="1"/>
        <pt x="172" y="-122" on="1"/>
        <pt x="71" y="-122" on="1"/>
      </contour>
    </TTGlyph>
    <TTGlyph name="braceleft" xMin="112" yMin="-160" xMax="447" yMax="806">
      <contour>
        <pt x="356" y="-160" on="1"/>
        <pt x="292" y="-160" on="0"/>
        <pt x="207" y="-122" on="0"/>
        <pt x="159" y="-55" on="0"/>
        <pt x="144" y="39" on="0"/>
        <pt x="149" y="96" on="1"/>
        <pt x="158" y="187" on="1"/>
        <pt x="163" y="228" on="0"/>
        <pt x="153" y="259" on="0"/>
        <pt x="136" y="259" on="1"/>
        <pt x="112" y="259" on="1"/>
        <pt x="124" y="388" on="1"/>
        <pt x="148" y="388" on="1"/>
        <pt x="165" y="388" on="0"/>
        <pt x="180" y="418" on="0"/>
        <pt x="184" y="459" on="1"/>
        <pt x="193" y="551" on="1"/>
        <pt x="199" y="607" on="0"/>
        <pt x="231" y="701" on="0"/>
        <pt x="292" y="768" on="0"/>
        <pt x="383" y="806" on="0"/>
        <pt x="447" y="806" on="1"/>
        <pt x="438" y="706" on="1"/>
        <pt x="372" y="706" on="0"/>
        <pt x="304" y="639" on="0"/>
        <pt x="297" y="564" on="1"/>
        <pt x="285" y="453" on="1"/>
        <pt x="280" y="405" on="0"/>
        <pt x="239" y="341" on="0"/>
        <pt x="211" y="326" on="1"/>
        <pt x="210" y="320" on="1"/>
        <pt x="236" y="306" on="0"/>
        <pt x="266" y="242" on="0"/>
        <pt x="261" y="194" on="1"/>
        <pt x="251" y="82" on="1"/>
        <pt x="244" y="8" on="0"/>
        <pt x="300" y="-59" on="0"/>
        <pt x="366" y="-59" on="1"/>
      </contour>
    </TTGlyph>
    <TTGlyph name="braceright" xMin="-32" yMin="-160" xMax="303" yMax="806">
      <contour>
        <pt x="59" y="806" on="1"/>
        <pt x="123" y="806" on="0"/>
        <pt x="207" y="768" on="0"/>
        <pt x="255" y="701" on="0"/>
        <pt x="271" y="607" on="0"/>
        <pt x="266" y="550" on="1"/>
        <pt x="257" y="459" on="1"/>
        <pt x="252" y="418" on="0"/>
        <pt x="262" y="387" on="0"/>
        <pt x="279" y="387" on="1"/>
        <pt x="303" y="387" on="1"/>
        <pt x="291" y="258" on="1"/>
        <pt x="267" y="258" on="1"/>
        <pt x="250" y="258" on="0"/>
        <pt x="235" y="228" on="0"/>
        <pt x="231" y="187" on="1"/>
        <pt x="222" y="95" on="1"/>
        <pt x="216" y="39" on="0"/>
        <pt x="184" y="-55" on="0"/>
        <pt x="123" y="-123" on="0"/>
        <pt x="32" y="-160" on="0"/>
        <pt x="-32" y="-160" on="1"/>
        <pt x="-23" y="-60" on="1"/>
        <pt x="43" y="-60" on="0"/>
        <pt x="111" y="7" on="0"/>
        <pt x="118" y="82" on="1"/>
        <pt x="130" y="193" on="1"/>
        <pt x="135" y="241" on="0"/>
        <pt x="176" y="305" on="0"/>
        <pt x="204" y="320" on="1"/>
        <pt x="205" y="326" on="1"/>
        <pt x="179" y="340" on="0"/>
        <pt x="149" y="404" on="0"/>
        <pt x="154" y="452" on="1"/>
        <pt x="164" y="564" on="1"/>
        <pt x="171" y="638" on="0"/>
        <pt x="115" y="705" on="0"/>
        <pt x="49" y="705" on="1"/>
      </contour>
    </TTGlyph>
    <TTGlyph name="bracketleft" xMin="87" yMin="-139" xMax="400" yMax="804">
      <contour>
        <pt x="179" y="804" on="1"/>
        <pt x="400" y="804" on="1"/>
        <pt x="389" y="700" on="1"/>
        <pt x="271" y="700" on="1"/>
        <pt x="199" y="-35" on="1"/>
        <pt x="317" y="-35" on="1"/>
        <pt x="307" y="-139" on="1"/>
        <pt x="87" y="-139" on="1"/>
      </contour>
    </TTGlyph>
    <TTGlyph name="bracketright" xMin="-13" yMin="-139" xMax="307" yMax="804">
      <contour>
        <pt x="207" y="-139" on="1"/>
        <pt x="-13" y="-139" on="1"/>
        <pt x="-2" y="-35" on="1"/>
        <pt x="117" y="-35" on="1"/>
        <pt x="194" y="700" on="1"/>
        <pt x="76" y="700" on="1"/>
        <pt x="87" y="804" on="1"/>
        <pt x="307" y="804" on="1"/>
      </contour>
    </TTGlyph>
    <TTGlyph name="ca.tam" xMin="49" yMin="-9" xMax="635" yMax="511">
      <contour>
        <pt x="264" y="287" on="1"/>
        <pt x="389" y="287" on="1"/>
        <pt x="401" y="408" on="1"/>
        <pt x="275" y="408" on="1"/>
      </contour>
      <contour>
        <pt x="207" y="216" on="1"/>
        <pt x="161" y="216" on="0"/>
        <pt x="157" y="173" on="1"/>
        <pt x="153" y="137" on="0"/>
        <pt x="221" y="85" on="0"/>
        <pt x="283" y="85" on="1"/>
        <pt x="328" y="85" on="0"/>
        <pt x="374" y="131" on="0"/>
        <pt x="379" y="179" on="1"/>
        <pt x="383" y="216" on="1"/>
      </contour>
      <contour>
        <pt x="635" y="511" on="1"/>
        <pt x="624" y="408" on="1"/>
        <pt x="502" y="408" on="1"/>
        <pt x="490" y="287" on="1"/>
        <pt x="593" y="287" on="1"/>
        <pt x="586" y="216" on="1"/>
        <pt x="485" y="216" on="1"/>
        <pt x="481" y="179" on="1"/>
        <pt x="470" y="80" on="0"/>
        <pt x="364" y="-9" on="0"/>
        <pt x="286" y="-9" on="1"/>
        <pt x="226" y="-9" on="0"/>
        <pt x="136" y="26" on="0"/>
        <pt x="76" y="82" on="0"/>
        <pt x="49" y="151" on="0"/>
        <pt x="52" y="186" on="1"/>
        <pt x="57" y="237" on="0"/>
        <pt x="119" y="287" on="0"/>
        <pt x="170" y="287" on="1"/>
        <pt x="191" y="511" on="1"/>
      </contour>
    </TTGlyph>
    <TTGlyph name="cansv.tam" xMin="49" yMin="-9" xMax="635" yMax="839">
      <contour>
        <pt x="264" y="287" on="1"/>
        <pt x="389" y="287" on="1"/>
        <pt x="401" y="408" on="1"/>
        <pt x="275" y="408" on="1"/>
      </contour>
      <contour>
        <pt x="207" y="216" on="1"/>
        <pt x="161" y="216" on="0"/>
        <pt x="157" y="173" on="1"/>
        <pt x="153" y="137" on="0"/>
        <pt x="221" y="85" on="0"/>
        <pt x="283" y="85" on="1"/>
        <pt x="328" y="85" on="0"/>
        <pt x="374" y="131" on="0"/>
        <pt x="379" y="179" on="1"/>
        <pt x="383" y="216" on="1"/>
      </contour>
      <contour>
        <pt x="635" y="511" on="1"/>
        <pt x="624" y="408" on="1"/>
        <pt x="502" y="408" on="1"/>
        <pt x="490" y="287" on="1"/>
        <pt x="593" y="287" on="1"/>
        <pt x="586" y="216" on="1"/>
        <pt x="485" y="216" on="1"/>
        <pt x="481" y="179" on="1"/>
        <pt x="470" y="80" on="0"/>
        <pt x="364" y="-9" on="0"/>
        <pt x="286" y="-9" on="1"/>
        <pt x="226" y="-9" on="0"/>
        <pt x="136" y="26" on="0"/>
        <pt x="76" y="82" on="0"/>
        <pt x="49" y="151" on="0"/>
        <pt x="52" y="186" on="1"/>
        <pt x="57" y="237" on="0"/>
        <pt x="119" y="287" on="0"/>
        <pt x="170" y="287" on="1"/>
        <pt x="191" y="511" on="1"/>
      </contour>
      <contour>
        <pt x="443" y="839" on="1"/>
        <pt x="501" y="839" on="0"/>
        <pt x="565" y="773" on="0"/>
        <pt x="559" y="715" on="1"/>
        <pt x="554" y="658" on="0"/>
        <pt x="477" y="592" on="0"/>
        <pt x="420" y="592" on="1"/>
        <pt x="363" y="592" on="0"/>
        <pt x="299" y="658" on="0"/>
        <pt x="304" y="715" on="1"/>
        <pt x="310" y="773" on="0"/>
        <pt x="386" y="839" on="0"/>
      </contour>
      <contour>
        <pt x="436" y="762" on="1"/>
        <pt x="418" y="762" on="0"/>
        <pt x="396" y="736" on="0"/>
        <pt x="394" y="715" on="1"/>
        <pt x="389" y="671" on="0"/>
        <pt x="427" y="671" on="1"/>
        <pt x="465" y="671" on="0"/>
        <pt x="470" y="715" on="1"/>
        <pt x="472" y="736" on="0"/>
        <pt x="454" y="762" on="0"/>
      </contour>
    </TTGlyph>
    <TTGlyph name="ci.tam" xMin="49" yMin="-9" xMax="817" yMax="791">
      <contour>
        <pt x="431" y="511" on="1"/>
        <pt x="411" y="529" on="0"/>
        <pt x="390" y="585" on="0"/>
        <pt x="393" y="618" on="1"/>
        <pt x="397" y="655" on="0"/>
        <pt x="431" y="719" on="0"/>
        <pt x="488" y="765" on="0"/>
        <pt x="564" y="791" on="0"/>
        <pt x="611" y="791" on="1"/>
        <pt x="709" y="791" on="0"/>
        <pt x="814" y="670" on="0"/>
        <pt x="816" y="561" on="1"/>
        <pt x="817" y="522" on="0"/>
        <pt x="813" y="480" on="1"/>
        <pt x="767" y="0" on="1"/>
        <pt x="666" y="0" on="1"/>
        <pt x="713" y="504" on="1"/>
        <pt x="721" y="590" on="0"/>
        <pt x="670" y="683" on="0"/>
        <pt x="609" y="683" on="1"/>
        <pt x="584" y="683" on="0"/>
        <pt x="544" y="664" on="0"/>
        <pt x="516" y="633" on="0"/>
        <pt x="498" y="591" on="0"/>
        <pt x="496" y="568" on="1"/>
        <pt x="493" y="536" on="0"/>
        <pt x="501" y="511" on="1"/>
        <pt x="635" y="511" on="1"/>
        <pt x="625" y="408" on="1"/>
        <pt x="502" y="408" on="1"/>
        <pt x="491" y="287" on="1"/>
        <pt x="593" y="287" on="1"/>
        <pt x="587" y="216" on="1"/>
        <pt x="485" y="216" on="1"/>
        <pt x="481" y="179" on="1"/>
        <pt x="471" y="81" on="0"/>
        <pt x="365" y="-9" on="0"/>
        <pt x="286" y="-9" on="1"/>
        <pt x="227" y="-9" on="0"/>
        <pt x="136" y="26" on="0"/>
        <pt x="77" y="82" on="0"/>
        <pt x="49" y="151" on="0"/>
        <pt x="53" y="186" on="1"/>
        <pt x="58" y="237" on="0"/>
        <pt x="120" y="287" on="0"/>
        <pt x="170" y="287" on="1"/>
        <pt x="192" y="511" on="1"/>
      </contour>
      <contour>
        <pt x="207" y="216" on="1"/>
        <pt x="186" y="216" on="0"/>
        <pt x="159" y="195" on="0"/>
        <pt x="157" y="173" on="1"/>
        <pt x="154" y="137" on="0"/>
        <pt x="222" y="85" on="0"/>
        <pt x="284" y="85" on="1"/>
        <pt x="371" y="85" on="0"/>
        <pt x="380" y="179" on="1"/>
        <pt x="384" y="216" on="1"/>
      </contour>
      <contour>
        <pt x="264" y="287" on="1"/>
        <pt x="390" y="287" on="1"/>
        <pt x="401" y="408" on="1"/>
        <pt x="276" y="408" on="1"/>
      </contour>
    </TTGlyph>
    <TTGlyph name="cii.tam" xMin="49" yMin="-9" xMax="760" yMax="855">
      <contour>
        <pt x="568" y="855" on="1"/>
        <pt x="615" y="855" on="0"/>
        <pt x="688" y="828" on="0"/>
        <pt x="736" y="783" on="0"/>
        <pt x="760" y="724" on="0"/>
        <pt x="757" y="693" on="1"/>
        <pt x="752" y="638" on="0"/>
        <pt x="673" y="567" on="0"/>
        <pt x="607" y="567" on="1"/>
        <pt x="576" y="567" on="0"/>
        <pt x="532" y="585" on="0"/>
        <pt x="505" y="615" on="0"/>
        <pt x="495" y="654" on="0"/>
        <pt x="497" y="675" on="1"/>
        <pt x="500" y="700" on="0"/>
        <pt x="524" y="748" on="0"/>
        <pt x="544" y="768" on="1"/>
        <pt x="499" y="758" on="0"/>
        <pt x="434" y="691" on="0"/>
        <pt x="429" y="638" on="1"/>
        <pt x="425" y="597" on="0"/>
        <pt x="465" y="532" on="0"/>
        <pt x="507" y="511" on="1"/>
        <pt x="635" y="511" on="1"/>
        <pt x="624" y="408" on="1"/>
        <pt x="502" y="408" on="1"/>
        <pt x="490" y="287" on="1"/>
        <pt x="593" y="287" on="1"/>
        <pt x="586" y="216" on="1"/>
        <pt x="485" y="216" on="1"/>
        <pt x="481" y="179" on="1"/>
        <pt x="470" y="80" on="0"/>
        <pt x="364" y="-9" on="0"/>
        <pt x="286" y="-9" on="1"/>
        <pt x="226" y="-9" on="0"/>
        <pt x="136" y="26" on="0"/>
        <pt x="76" y="82" on="0"/>
        <pt x="49" y="151" on="0"/>
        <pt x="52" y="186" on="1"/>
        <pt x="57" y="237" on="0"/>
        <pt x="119" y="287" on="0"/>
        <pt x="170" y="287" on="1"/>
        <pt x="191" y="511" on="1"/>
        <pt x="423" y="511" on="1"/>
        <pt x="378" y="531" on="0"/>
        <pt x="332" y="613" on="0"/>
        <pt x="337" y="664" on="1"/>
        <pt x="341" y="705" on="0"/>
        <pt x="380" y="775" on="0"/>
        <pt x="443" y="826" on="0"/>
        <pt x="523" y="855" on="0"/>
      </contour>
      <contour>
        <pt x="207" y="216" on="1"/>
        <pt x="161" y="216" on="0"/>
        <pt x="157" y="173" on="1"/>
        <pt x="153" y="137" on="0"/>
        <pt x="221" y="85" on="0"/>
        <pt x="283" y="85" on="1"/>
        <pt x="328" y="85" on="0"/>
        <pt x="374" y="131" on="0"/>
        <pt x="379" y="179" on="1"/>
        <pt x="383" y="216" on="1"/>
      </contour>
      <contour>
        <pt x="264" y="287" on="1"/>
        <pt x="389" y="287" on="1"/>
        <pt x="401" y="408" on="1"/>
        <pt x="275" y="408" on="1"/>
      </contour>
      <contour>
        <pt x="590" y="773" on="1"/>
        <pt x="579" y="756" on="0"/>
        <pt x="561" y="718" on="0"/>
        <pt x="559" y="701" on="1"/>
        <pt x="557" y="675" on="0"/>
        <pt x="580" y="642" on="0"/>
        <pt x="604" y="642" on="1"/>
        <pt x="626" y="642" on="0"/>
        <pt x="658" y="673" on="0"/>
        <pt x="660" y="696" on="1"/>
        <pt x="663" y="728" on="0"/>
        <pt x="618" y="767" on="0"/>
      </contour>
    </TTGlyph>
    <TTGlyph name="colon" xMin="49" yMin="-9" xMax="231" yMax="495">
      <contour>
        <pt x="161" y="495" on="1"/>
        <pt x="193" y="495" on="0"/>
        <pt x="231" y="449" on="0"/>
        <pt x="228" y="414" on="1"/>
        <pt x="224" y="380" on="0"/>
        <pt x="178" y="336" on="0"/>
        <pt x="146" y="336" on="1"/>
        <pt x="115" y="336" on="0"/>
        <pt x="80" y="380" on="0"/>
        <pt x="84" y="414" on="1"/>
        <pt x="87" y="449" on="0"/>
        <pt x="130" y="495" on="0"/>
      </contour>
      <contour>
        <pt x="130" y="150" on="1"/>
        <pt x="161" y="150" on="0"/>
        <pt x="199" y="105" on="0"/>
        <pt x="195" y="70" on="1"/>
        <pt x="193" y="35" on="0"/>
        <pt x="146" y="-9" on="0"/>
        <pt x="115" y="-9" on="1"/>
        <pt x="83" y="-9" on="0"/>
        <pt x="49" y="35" on="0"/>
        <pt x="52" y="70" on="1"/>
        <pt x="55" y="105" on="0"/>
        <pt x="98" y="150" on="0"/>
      </contour>
    </TTGlyph>
    <TTGlyph name="comma" xMin="35" yMin="-140" xMax="225" yMax="138">
      <contour>
        <pt x="148" y="138" on="1"/>
        <pt x="186" y="138" on="0"/>
        <pt x="225" y="75" on="0"/>
        <pt x="220" y="29" on="1"/>
        <pt x="218" y="6" on="0"/>
        <pt x="200" y="-42" on="0"/>
        <pt x="170" y="-87" on="0"/>
        <pt x="129" y="-127" on="0"/>
        <pt x="105" y="-140" on="1"/>
        <pt x="35" y="-95" on="1"/>
        <pt x="65" y="-78" on="0"/>
        <pt x="113" y="-34" on="0"/>
        <pt x="124" y="-5" on="1"/>
        <pt x="99" y="0" on="0"/>
        <pt x="68" y="36" on="0"/>
        <pt x="71" y="65" on="1"/>
        <pt x="74" y="96" on="0"/>
        <pt x="118" y="138" on="0"/>
      </contour>
    </TTGlyph>
    <TTGlyph name="cu.tam" xMin="49" yMin="-9" xMax="757" yMax="511">
      <contour>
        <pt x="635" y="511" on="1"/>
        <pt x="624" y="408" on="1"/>
        <pt x="502" y="408" on="1"/>
        <pt x="490" y="287" on="1"/>
        <pt x="757" y="287" on="1"/>
        <pt x="750" y="216" on="1"/>
        <pt x="676" y="216" on="1"/>
        <pt x="657" y="0" on="1"/>
        <pt x="555" y="0" on="1"/>
        <pt x="575" y="216" on="1"/>
        <pt x="485" y="216" on="1"/>
        <pt x="481" y="179" on="1"/>
        <pt x="470" y="80" on="0"/>
        <pt x="364" y="-9" on="0"/>
        <pt x="286" y="-9" on="1"/>
        <pt x="226" y="-9" on="0"/>
        <pt x="136" y="26" on="0"/>
        <pt x="76" y="82" on="0"/>
        <pt x="49" y="151" on="0"/>
        <pt x="52" y="186" on="1"/>
        <pt x="57" y="237" on="0"/>
        <pt x="119" y="287" on="0"/>
        <pt x="170" y="287" on="1"/>
        <pt x="191" y="511" on="1"/>
      </contour>
      <contour>
        <pt x="207" y="216" on="1"/>
        <pt x="186" y="216" on="0"/>
        <pt x="159" y="195" on="0"/>
        <pt x="157" y="173" on="1"/>
        <pt x="153" y="137" on="0"/>
        <pt x="221" y="85" on="0"/>
        <pt x="283" y="85" on="1"/>
        <pt x="328" y="85" on="0"/>
        <pt x="374" y="131" on="0"/>
        <pt x="379" y="179" on="1"/>
        <pt x="383" y="216" on="1"/>
      </contour>
      <contour>
        <pt x="264" y="287" on="1"/>
        <pt x="389" y="287" on="1"/>
        <pt x="401" y="408" on="1"/>
        <pt x="275" y="408" on="1"/>
      </contour>
    </TTGlyph>
    <TTGlyph name="cuu.tam" xMin="58" yMin="-351" xMax="1132" yMax="520">
      <contour>
        <pt x="850" y="511" on="1"/>
        <pt x="841" y="408" on="1"/>
        <pt x="719" y="408" on="1"/>
        <pt x="708" y="287" on="1"/>
        <pt x="997" y="287" on="1"/>
        <pt x="989" y="216" on="1"/>
        <pt x="895" y="216" on="1"/>
        <pt x="880" y="45" on="1"/>
        <pt x="900" y="87" on="0"/>
        <pt x="965" y="128" on="0"/>
        <pt x="1006" y="128" on="1"/>
        <pt x="1037" y="128" on="0"/>
        <pt x="1086" y="103" on="0"/>
        <pt x="1118" y="58" on="0"/>
        <pt x="1132" y="-3" on="0"/>
        <pt x="1129" y="-40" on="1"/>
        <pt x="1123" y="-99" on="0"/>
        <pt x="1066" y="-211" on="0"/>
        <pt x="953" y="-298" on="0"/>
        <pt x="779" y="-351" on="0"/>
        <pt x="656" y="-351" on="1"/>
        <pt x="521" y="-351" on="0"/>
        <pt x="295" y="-272" on="0"/>
        <pt x="137" y="-133" on="0"/>
        <pt x="58" y="60" on="0"/>
        <pt x="69" y="174" on="1"/>
        <pt x="77" y="262" on="0"/>
        <pt x="131" y="429" on="0"/>
        <pt x="176" y="520" on="1"/>
        <pt x="269" y="488" on="1"/>
        <pt x="228" y="400" on="0"/>
        <pt x="182" y="251" on="0"/>
        <pt x="175" y="174" on="1"/>
        <pt x="165" y="72" on="0"/>
        <pt x="236" y="-84" on="0"/>
        <pt x="372" y="-189" on="0"/>
        <pt x="559" y="-243" on="0"/>
        <pt x="666" y="-243" on="1"/>
        <pt x="750" y="-243" on="0"/>
        <pt x="879" y="-213" on="0"/>
        <pt x="969" y="-161" on="0"/>
        <pt x="1018" y="-90" on="0"/>
        <pt x="1023" y="-48" on="1"/>
        <pt x="1026" y="-10" on="0"/>
        <pt x="998" y="29" on="0"/>
        <pt x="971" y="29" on="1"/>
        <pt x="952" y="29" on="0"/>
        <pt x="917" y="9" on="0"/>
        <pt x="888" y="-25" on="0"/>
        <pt x="869" y="-71" on="0"/>
        <pt x="866" y="-96" on="1"/>
        <pt x="765" y="-96" on="1"/>
        <pt x="794" y="216" on="1"/>
        <pt x="700" y="216" on="1"/>
        <pt x="698" y="158" on="0"/>
        <pt x="668" y="73" on="0"/>
        <pt x="616" y="18" on="0"/>
        <pt x="544" y="-9" on="0"/>
        <pt x="502" y="-9" on="1"/>
        <pt x="444" y="-9" on="0"/>
        <pt x="354" y="26" on="0"/>
        <pt x="294" y="82" on="0"/>
        <pt x="265" y="152" on="0"/>
        <pt x="268" y="187" on="1"/>
        <pt x="273" y="235" on="0"/>
        <pt x="334" y="287" on="0"/>
        <pt x="382" y="287" on="1"/>
        <pt x="386" y="287" on="1"/>
        <pt x="407" y="511" on="1"/>
      </contour>
      <contour>
        <pt x="423" y="216" on="1"/>
        <pt x="401" y="216" on="0"/>
        <pt x="374" y="195" on="0"/>
        <pt x="372" y="173" on="1"/>
        <pt x="369" y="137" on="0"/>
        <pt x="438" y="85" on="0"/>
        <pt x="500" y="85" on="1"/>
        <pt x="586" y="85" on="0"/>
        <pt x="597" y="179" on="1"/>
        <pt x="599" y="216" on="1"/>
      </contour>
      <contour>
        <pt x="480" y="287" on="1"/>
        <pt x="607" y="287" on="1"/>
        <pt x="618" y="408" on="1"/>
        <pt x="491" y="408" on="1"/>
      </contour>
    </TTGlyph>
    <TTGlyph name="cvir.tam" xMin="49" yMin="-9" xMax="635" yMax="745">
      <contour>
        <pt x="264" y="287" on="1"/>
        <pt x="389" y="287" on="1"/>
        <pt x="401" y="408" on="1"/>
        <pt x="275" y="408" on="1"/>
      </contour>
      <contour>
        <pt x="207" y="216" on="1"/>
        <pt x="161" y="216" on="0"/>
        <pt x="157" y="173" on="1"/>
        <pt x="153" y="137" on="0"/>
        <pt x="221" y="85" on="0"/>
        <pt x="283" y="85" on="1"/>
        <pt x="328" y="85" on="0"/>
        <pt x="374" y="131" on="0"/>
        <pt x="379" y="179" on="1"/>
        <pt x="383" y="216" on="1"/>
      </contour>
      <contour>
        <pt x="635" y="511" on="1"/>
        <pt x="624" y="408" on="1"/>
        <pt x="502" y="408" on="1"/>
        <pt x="490" y="287" on="1"/>
        <pt x="593" y="287" on="1"/>
        <pt x="586" y="216" on="1"/>
        <pt x="485" y="216" on="1"/>
        <pt x="481" y="179" on="1"/>
        <pt x="470" y="80" on="0"/>
        <pt x="364" y="-9" on="0"/>
        <pt x="286" y="-9" on="1"/>
        <pt x="226" y="-9" on="0"/>
        <pt x="136" y="26" on="0"/>
        <pt x="76" y="82" on="0"/>
        <pt x="49" y="151" on="0"/>
        <pt x="52" y="186" on="1"/>
        <pt x="57" y="237" on="0"/>
        <pt x="119" y="287" on="0"/>
        <pt x="170" y="287" on="1"/>
        <pt x="191" y="511" on="1"/>
      </contour>
      <contour>
        <pt x="364" y="674" on="1"/>
        <pt x="368" y="705" on="0"/>
        <pt x="407" y="745" on="0"/>
        <pt x="433" y="745" on="1"/>
        <pt x="460" y="745" on="0"/>
        <pt x="492" y="705" on="0"/>
        <pt x="489" y="674" on="1"/>
        <pt x="487" y="647" on="0"/>
        <pt x="446" y="607" on="0"/>
        <pt x="419" y="607" on="1"/>
        <pt x="394" y="607" on="0"/>
        <pt x="362" y="647" on="0"/>
      </contour>
    </TTGlyph>
    <TTGlyph name="dollar" xMin="85" yMin="-108" xMax="590" yMax="758">
      <contour>
        <pt x="448" y="348" on="1"/>
        <pt x="517" y="324" on="0"/>
        <pt x="589" y="246" on="0"/>
        <pt x="583" y="177" on="1"/>
        <pt x="580" y="140" on="0"/>
        <pt x="544" y="77" on="0"/>
        <pt x="485" y="29" on="0"/>
        <pt x="404" y="-3" on="0"/>
        <pt x="356" y="-7" on="1"/>
        <pt x="347" y="-108" on="1"/>
        <pt x="266" y="-108" on="1"/>
        <pt x="275" y="-6" on="1"/>
        <pt x="234" y="-2" on="0"/>
        <pt x="163" y="28" on="0"/>
        <pt x="111" y="82" on="0"/>
        <pt x="85" y="161" on="0"/>
        <pt x="90" y="215" on="1"/>
        <pt x="192" y="215" on="1"/>
        <pt x="189" y="167" on="0"/>
        <pt x="231" y="94" on="0"/>
        <pt x="284" y="83" on="1"/>
        <pt x="303" y="290" on="1"/>
        <pt x="256" y="310" on="1"/>
        <pt x="182" y="339" on="0"/>
        <pt x="122" y="423" on="0"/>
        <pt x="128" y="487" on="1"/>
        <pt x="131" y="525" on="0"/>
        <pt x="166" y="585" on="0"/>
        <pt x="223" y="629" on="0"/>
        <pt x="297" y="655" on="0"/>
        <pt x="339" y="660" on="1"/>
        <pt x="348" y="758" on="1"/>
        <pt x="429" y="758" on="1"/>
        <pt x="420" y="661" on="1"/>
        <pt x="456" y="656" on="0"/>
        <pt x="518" y="629" on="0"/>
        <pt x="563" y="581" on="0"/>
        <pt x="590" y="511" on="0"/>
        <pt x="590" y="463" on="1"/>
        <pt x="489" y="463" on="1"/>
        <pt x="487" y="505" on="0"/>
        <pt x="448" y="561" on="0"/>
        <pt x="411" y="571" on="1"/>
        <pt x="392" y="367" on="1"/>
      </contour>
      <contour>
        <pt x="475" y="172" on="1"/>
        <pt x="479" y="225" on="0"/>
        <pt x="416" y="249" on="1"/>
        <pt x="382" y="261" on="1"/>
        <pt x="365" y="82" on="1"/>
        <pt x="415" y="90" on="0"/>
        <pt x="472" y="140" on="0"/>
      </contour>
      <contour>
        <pt x="235" y="487" on="1"/>
        <pt x="232" y="455" on="0"/>
        <pt x="262" y="419" on="0"/>
        <pt x="293" y="406" on="1"/>
        <pt x="314" y="398" on="1"/>
        <pt x="330" y="571" on="1"/>
        <pt x="286" y="562" on="0"/>
        <pt x="238" y="516" on="0"/>
      </contour>
    </TTGlyph>
    <TTGlyph name="e.tam" xMin="63" yMin="-9" xMax="789" yMax="511">
      <contour>
        <pt x="789" y="511" on="1"/>
        <pt x="778" y="408" on="1"/>
        <pt x="683" y="408" on="1"/>
        <pt x="646" y="0" on="1"/>
        <pt x="544" y="0" on="1"/>
        <pt x="582" y="408" on="1"/>
        <pt x="435" y="408" on="1"/>
        <pt x="386" y="408" on="0"/>
        <pt x="295" y="380" on="0"/>
        <pt x="223" y="327" on="0"/>
        <pt x="176" y="252" on="0"/>
        <pt x="172" y="205" on="1"/>
        <pt x="167" y="160" on="0"/>
        <pt x="190" y="106" on="0"/>
        <pt x="212" y="91" on="1"/>
        <pt x="211" y="115" on="0"/>
        <pt x="216" y="167" on="0"/>
        <pt x="226" y="192" on="1"/>
        <pt x="242" y="240" on="0"/>
        <pt x="317" y="309" on="0"/>
        <pt x="373" y="309" on="1"/>
        <pt x="404" y="309" on="0"/>
        <pt x="453" y="287" on="0"/>
        <pt x="484" y="247" on="0"/>
        <pt x="498" y="192" on="0"/>
        <pt x="495" y="159" on="1"/>
        <pt x="491" y="123" on="0"/>
        <pt x="457" y="61" on="0"/>
        <pt x="402" y="16" on="0"/>
        <pt x="328" y="-9" on="0"/>
        <pt x="285" y="-9" on="1"/>
        <pt x="240" y="-9" on="0"/>
        <pt x="157" y="25" on="0"/>
        <pt x="95" y="87" on="0"/>
        <pt x="63" y="173" on="0"/>
        <pt x="68" y="225" on="1"/>
        <pt x="74" y="286" on="0"/>
        <pt x="135" y="390" on="0"/>
        <pt x="234" y="467" on="0"/>
        <pt x="367" y="511" on="0"/>
        <pt x="445" y="511" on="1"/>
      </contour>
      <contour>
        <pt x="347" y="210" on="1"/>
        <pt x="321" y="210" on="0"/>
        <pt x="281" y="168" on="0"/>
        <pt x="273" y="139" on="1"/>
        <pt x="265" y="107" on="0"/>
        <pt x="268" y="80" on="1"/>
        <pt x="273" y="79" on="0"/>
        <pt x="284" y="78" on="0"/>
        <pt x="290" y="78" on="1"/>
        <pt x="305" y="78" on="0"/>
        <pt x="338" y="86" on="0"/>
        <pt x="366" y="105" on="0"/>
        <pt x="387" y="135" on="0"/>
        <pt x="389" y="157" on="1"/>
        <pt x="391" y="180" on="0"/>
        <pt x="371" y="210" on="0"/>
      </contour>
    </TTGlyph>
    <TTGlyph name="ee.tam" xMin="63" yMin="-260" xMax="789" yMax="511">
      <contour>
        <pt x="789" y="511" on="1"/>
        <pt x="778" y="408" on="1"/>
        <pt x="683" y="408" on="1"/>
        <pt x="646" y="0" on="1"/>
        <pt x="645" y="0" on="1"/>
        <pt x="639" y="-68" on="1"/>
        <pt x="391" y="-260" on="1"/>
        <pt x="308" y="-202" on="1"/>
        <pt x="542" y="-18" on="1"/>
        <pt x="547" y="41" on="1"/>
        <pt x="548" y="41" on="1"/>
        <pt x="582" y="408" on="1"/>
        <pt x="435" y="408" on="1"/>
        <pt x="386" y="408" on="0"/>
        <pt x="295" y="380" on="0"/>
        <pt x="223" y="327" on="0"/>
        <pt x="176" y="252" on="0"/>
        <pt x="172" y="205" on="1"/>
        <pt x="167" y="160" on="0"/>
        <pt x="190" y="106" on="0"/>
        <pt x="212" y="91" on="1"/>
        <pt x="211" y="115" on="0"/>
        <pt x="216" y="167" on="0"/>
        <pt x="226" y="192" on="1"/>
        <pt x="242" y="240" on="0"/>
        <pt x="317" y="309" on="0"/>
        <pt x="373" y="309" on="1"/>
        <pt x="404" y="309" on="0"/>
        <pt x="453" y="287" on="0"/>
        <pt x="484" y="247" on="0"/>
        <pt x="498" y="192" on="0"/>
        <pt x="495" y="159" on="1"/>
        <pt x="491" y="123" on="0"/>
        <pt x="457" y="61" on="0"/>
        <pt x="402" y="16" on="0"/>
        <pt x="328" y="-9" on="0"/>
        <pt x="285" y="-9" on="1"/>
        <pt x="240" y="-9" on="0"/>
        <pt x="157" y="25" on="0"/>
        <pt x="95" y="87" on="0"/>
        <pt x="63" y="173" on="0"/>
        <pt x="68" y="225" on="1"/>
        <pt x="74" y="286" on="0"/>
        <pt x="135" y="390" on="0"/>
        <pt x="234" y="467" on="0"/>
        <pt x="367" y="511" on="0"/>
        <pt x="445" y="511" on="1"/>
      </contour>
      <contour>
        <pt x="347" y="210" on="1"/>
        <pt x="321" y="210" on="0"/>
        <pt x="281" y="168" on="0"/>
        <pt x="273" y="139" on="1"/>
        <pt x="265" y="107" on="0"/>
        <pt x="268" y="80" on="1"/>
        <pt x="273" y="79" on="0"/>
        <pt x="284" y="78" on="0"/>
        <pt x="290" y="78" on="1"/>
        <pt x="305" y="78" on="0"/>
        <pt x="338" y="86" on="0"/>
        <pt x="366" y="105" on="0"/>
        <pt x="387" y="135" on="0"/>
        <pt x="389" y="157" on="1"/>
        <pt x="391" y="180" on="0"/>
        <pt x="371" y="210" on="0"/>
      </contour>
    </TTGlyph>
    <TTGlyph name="eematra.tam" xMin="61" yMin="-9" xMax="619" yMax="791">
      <contour>
        <pt x="420" y="791" on="1"/>
        <pt x="469" y="791" on="0"/>
        <pt x="544" y="762" on="0"/>
        <pt x="595" y="715" on="0"/>
        <pt x="619" y="653" on="0"/>
        <pt x="616" y="620" on="1"/>
        <pt x="609" y="561" on="0"/>
        <pt x="529" y="489" on="0"/>
        <pt x="461" y="489" on="1"/>
        <pt x="429" y="489" on="0"/>
        <pt x="383" y="508" on="0"/>
        <pt x="355" y="540" on="0"/>
        <pt x="343" y="581" on="0"/>
        <pt x="345" y="603" on="1"/>
        <pt x="347" y="632" on="0"/>
        <pt x="377" y="687" on="0"/>
        <pt x="399" y="708" on="1"/>
        <pt x="361" y="700" on="0"/>
        <pt x="288" y="646" on="0"/>
        <pt x="228" y="561" on="0"/>
        <pt x="187" y="452" on="0"/>
        <pt x="181" y="390" on="1"/>
        <pt x="175" y="329" on="0"/>
        <pt x="186" y="236" on="0"/>
        <pt x="213" y="167" on="0"/>
        <pt x="253" y="118" on="0"/>
        <pt x="278" y="102" on="1"/>
        <pt x="277" y="156" on="0"/>
        <pt x="296" y="205" on="1"/>
        <pt x="314" y="254" on="0"/>
        <pt x="394" y="316" on="0"/>
        <pt x="450" y="316" on="1"/>
        <pt x="480" y="316" on="0"/>
        <pt x="528" y="291" on="0"/>
        <pt x="560" y="249" on="0"/>
        <pt x="575" y="192" on="0"/>
        <pt x="572" y="159" on="1"/>
        <pt x="569" y="123" on="0"/>
        <pt x="534" y="61" on="0"/>
        <pt x="478" y="16" on="0"/>
        <pt x="404" y="-9" on="0"/>
        <pt x="361" y="-9" on="1"/>
        <pt x="304" y="-9" on="0"/>
        <pt x="192" y="43" on="0"/>
        <pt x="107" y="144" on="0"/>
        <pt x="61" y="293" on="0"/>
        <pt x="70" y="390" on="1"/>
        <pt x="78" y="477" on="0"/>
        <pt x="141" y="624" on="0"/>
        <pt x="235" y="731" on="0"/>
        <pt x="355" y="791" on="0"/>
      </contour>
      <contour>
        <pt x="339" y="144" on="1"/>
        <pt x="332" y="114" on="0"/>
        <pt x="330" y="84" on="1"/>
        <pt x="335" y="82" on="0"/>
        <pt x="347" y="81" on="0"/>
        <pt x="354" y="80" on="1"/>
        <pt x="370" y="77" on="0"/>
        <pt x="392" y="82" on="1"/>
        <pt x="422" y="87" on="0"/>
        <pt x="462" y="127" on="0"/>
        <pt x="465" y="159" on="1"/>
        <pt x="468" y="186" on="0"/>
        <pt x="444" y="218" on="0"/>
        <pt x="421" y="218" on="1"/>
        <pt x="391" y="218" on="0"/>
        <pt x="348" y="173" on="0"/>
      </contour>
      <contour>
        <pt x="518" y="623" on="1"/>
        <pt x="519" y="641" on="0"/>
        <pt x="507" y="670" on="0"/>
        <pt x="485" y="691" on="0"/>
        <pt x="456" y="705" on="0"/>
        <pt x="440" y="708" on="1"/>
        <pt x="427" y="691" on="0"/>
        <pt x="410" y="648" on="0"/>
        <pt x="408" y="629" on="1"/>
        <pt x="405" y="600" on="0"/>
        <pt x="430" y="564" on="0"/>
        <pt x="456" y="564" on="1"/>
        <pt x="482" y="564" on="0"/>
        <pt x="515" y="596" on="0"/>
      </contour>
    </TTGlyph>
    <TTGlyph name="eight" xMin="56" yMin="-14" xMax="566" yMax="662">
      <contour>
        <pt x="353" y="662" on="1"/>
        <pt x="401" y="662" on="0"/>
        <pt x="481" y="634" on="0"/>
        <pt x="538" y="585" on="0"/>
        <pt x="566" y="516" on="0"/>
        <pt x="563" y="476" on="1"/>
        <pt x="558" y="427" on="0"/>
        <pt x="489" y="349" on="0"/>
        <pt x="431" y="338" on="1"/>
        <pt x="437" y="336" on="1"/>
        <pt x="498" y="310" on="0"/>
        <pt x="561" y="237" on="0"/>
        <pt x="554" y="172" on="1"/>
        <pt x="551" y="131" on="0"/>
        <pt x="511" y="63" on="0"/>
        <pt x="443" y="14" on="0"/>
        <pt x="348" y="-14" on="0"/>
        <pt x="290" y="-14" on="1"/>
        <pt x="233" y="-14" on="0"/>
        <pt x="145" y="15" on="0"/>
        <pt x="85" y="65" on="0"/>
        <pt x="56" y="134" on="0"/>
        <pt x="60" y="175" on="1"/>
        <pt x="66" y="236" on="0"/>
        <pt x="149" y="311" on="0"/>
        <pt x="209" y="319" on="1"/>
        <pt x="189" y="329" on="0"/>
        <pt x="151" y="360" on="0"/>
        <pt x="122" y="402" on="0"/>
        <pt x="106" y="453" on="0"/>
        <pt x="109" y="485" on="1"/>
        <pt x="117" y="567" on="0"/>
        <pt x="244" y="662" on="0"/>
      </contour>
      <contour>
        <pt x="296" y="279" on="1"/>
        <pt x="245" y="275" on="0"/>
        <pt x="175" y="222" on="0"/>
        <pt x="171" y="187" on="1"/>
        <pt x="169" y="166" on="0"/>
        <pt x="188" y="132" on="0"/>
        <pt x="222" y="108" on="0"/>
        <pt x="271" y="95" on="0"/>
        <pt x="299" y="95" on="1"/>
        <pt x="369" y="95" on="0"/>
        <pt x="441" y="134" on="0"/>
        <pt x="444" y="166" on="1"/>
        <pt x="446" y="191" on="0"/>
        <pt x="416" y="227" on="0"/>
        <pt x="388" y="239" on="1"/>
      </contour>
      <contour>
        <pt x="220" y="480" on="1"/>
        <pt x="217" y="455" on="0"/>
        <pt x="243" y="424" on="0"/>
        <pt x="271" y="411" on="1"/>
        <pt x="335" y="382" on="1"/>
        <pt x="379" y="383" on="0"/>
        <pt x="447" y="430" on="0"/>
        <pt x="451" y="468" on="1"/>
        <pt x="455" y="508" on="0"/>
        <pt x="395" y="554" on="0"/>
        <pt x="344" y="554" on="1"/>
        <pt x="294" y="554" on="0"/>
        <pt x="223" y="512" on="0"/>
      </contour>
    </TTGlyph>
    <TTGlyph name="eighttamil" xMin="38" yMin="-9" xMax="801" yMax="520">
      <contour>
        <pt x="375" y="520" on="1"/>
        <pt x="433" y="520" on="0"/>
        <pt x="517" y="479" on="0"/>
        <pt x="572" y="412" on="0"/>
        <pt x="597" y="327" on="0"/>
        <pt x="596" y="282" on="1"/>
        <pt x="677" y="282" on="1"/>
        <pt x="699" y="512" on="1"/>
        <pt x="801" y="512" on="1"/>
        <pt x="753" y="0" on="1"/>
        <pt x="651" y="0" on="1"/>
        <pt x="671" y="210" on="1"/>
        <pt x="586" y="210" on="1"/>
        <pt x="575" y="169" on="0"/>
        <pt x="532" y="90" on="0"/>
        <pt x="461" y="28" on="0"/>
        <pt x="361" y="-9" on="0"/>
        <pt x="294" y="-9" on="1"/>
        <pt x="231" y="-9" on="0"/>
        <pt x="134" y="23" on="0"/>
        <pt x="69" y="77" on="0"/>
        <pt x="38" y="147" on="0"/>
        <pt x="42" y="185" on="1"/>
        <pt x="47" y="236" on="0"/>
        <pt x="112" y="282" on="0"/>
        <pt x="164" y="282" on="1"/>
        <pt x="211" y="282" on="1"/>
        <pt x="194" y="298" on="0"/>
        <pt x="179" y="344" on="0"/>
        <pt x="182" y="371" on="1"/>
        <pt x="185" y="404" on="0"/>
        <pt x="216" y="459" on="0"/>
        <pt x="267" y="498" on="0"/>
        <pt x="335" y="520" on="0"/>
      </contour>
      <contour>
        <pt x="304" y="94" on="1"/>
        <pt x="379" y="94" on="0"/>
        <pt x="463" y="159" on="0"/>
        <pt x="479" y="210" on="1"/>
        <pt x="191" y="210" on="1"/>
        <pt x="171" y="210" on="0"/>
        <pt x="149" y="191" on="0"/>
        <pt x="148" y="174" on="1"/>
        <pt x="146" y="160" on="0"/>
        <pt x="162" y="131" on="0"/>
        <pt x="199" y="108" on="0"/>
        <pt x="260" y="94" on="0"/>
      </contour>
      <contour>
        <pt x="284" y="347" on="1"/>
        <pt x="282" y="321" on="0"/>
        <pt x="309" y="284" on="0"/>
        <pt x="335" y="282" on="1"/>
        <pt x="490" y="282" on="1"/>
        <pt x="489" y="339" on="0"/>
        <pt x="426" y="416" on="0"/>
        <pt x="374" y="416" on="1"/>
        <pt x="335" y="416" on="0"/>
        <pt x="286" y="379" on="0"/>
      </contour>
    </TTGlyph>
    <TTGlyph name="ematra.tam" xMin="70" yMin="-9" xMax="724" yMax="791">
      <contour>
        <pt x="527" y="791" on="1"/>
        <pt x="581" y="791" on="0"/>
        <pt x="658" y="754" on="0"/>
        <pt x="706" y="687" on="0"/>
        <pt x="724" y="593" on="0"/>
        <pt x="719" y="535" on="1"/>
        <pt x="668" y="0" on="1"/>
        <pt x="567" y="0" on="1"/>
        <pt x="618" y="536" on="1"/>
        <pt x="626" y="614" on="0"/>
        <pt x="570" y="683" on="0"/>
        <pt x="518" y="683" on="1"/>
        <pt x="469" y="683" on="0"/>
        <pt x="357" y="620" on="0"/>
        <pt x="259" y="511" on="0"/>
        <pt x="188" y="364" on="0"/>
        <pt x="180" y="280" on="1"/>
        <pt x="174" y="208" on="0"/>
        <pt x="199" y="115" on="0"/>
        <pt x="225" y="92" on="1"/>
        <pt x="225" y="115" on="0"/>
        <pt x="230" y="167" on="0"/>
        <pt x="240" y="192" on="1"/>
        <pt x="256" y="240" on="0"/>
        <pt x="330" y="309" on="0"/>
        <pt x="387" y="309" on="1"/>
        <pt x="418" y="309" on="0"/>
        <pt x="467" y="287" on="0"/>
        <pt x="498" y="247" on="0"/>
        <pt x="511" y="192" on="0"/>
        <pt x="508" y="159" on="1"/>
        <pt x="505" y="123" on="0"/>
        <pt x="471" y="61" on="0"/>
        <pt x="415" y="16" on="0"/>
        <pt x="341" y="-9" on="0"/>
        <pt x="298" y="-9" on="1"/>
        <pt x="251" y="-9" on="0"/>
        <pt x="165" y="34" on="0"/>
        <pt x="102" y="116" on="0"/>
        <pt x="70" y="235" on="0"/>
        <pt x="77" y="312" on="1"/>
        <pt x="86" y="411" on="0"/>
        <pt x="166" y="585" on="0"/>
        <pt x="288" y="716" on="0"/>
        <pt x="443" y="791" on="0"/>
      </contour>
      <contour>
        <pt x="361" y="210" on="1"/>
        <pt x="334" y="210" on="0"/>
        <pt x="295" y="168" on="0"/>
        <pt x="287" y="139" on="1"/>
        <pt x="279" y="109" on="0"/>
        <pt x="281" y="80" on="1"/>
        <pt x="289" y="78" on="0"/>
        <pt x="303" y="78" on="0"/>
        <pt x="311" y="78" on="1"/>
        <pt x="340" y="78" on="0"/>
        <pt x="398" y="118" on="0"/>
        <pt x="403" y="157" on="1"/>
        <pt x="405" y="180" on="0"/>
        <pt x="384" y="210" on="0"/>
      </contour>
    </TTGlyph>
    <TTGlyph name="emdash" xMin="75" yMin="264" xMax="672" yMax="366">
      <contour>
        <pt x="672" y="366" on="1"/>
        <pt x="662" y="264" on="1"/>
        <pt x="75" y="264" on="1"/>
        <pt x="83" y="366" on="1"/>
      </contour>
    </TTGlyph>
    <TTGlyph name="endash" xMin="75" yMin="264" xMax="451" yMax="366">
      <contour>
        <pt x="451" y="366" on="1"/>
        <pt x="442" y="264" on="1"/>
        <pt x="75" y="264" on="1"/>
        <pt x="83" y="366" on="1"/>
      </contour>
    </TTGlyph>
    <TTGlyph name="equals" xMin="80" yMin="104" xMax="421" yMax="425">
      <contour>
        <pt x="401" y="207" on="1"/>
        <pt x="392" y="104" on="1"/>
        <pt x="80" y="104" on="1"/>
        <pt x="90" y="207" on="1"/>
      </contour>
      <contour>
        <pt x="421" y="425" on="1"/>
        <pt x="412" y="322" on="1"/>
        <pt x="101" y="322" on="1"/>
        <pt x="110" y="425" on="1"/>
      </contour>
    </TTGlyph>
    <TTGlyph name="exclam" xMin="66" yMin="-9" xMax="253" yMax="694">
      <contour>
        <pt x="253" y="694" on="1"/>
        <pt x="200" y="225" on="1"/>
        <pt x="108" y="225" on="1"/>
        <pt x="144" y="694" on="1"/>
      </contour>
      <contour>
        <pt x="147" y="150" on="1"/>
        <pt x="179" y="150" on="0"/>
        <pt x="216" y="105" on="0"/>
        <pt x="214" y="70" on="1"/>
        <pt x="209" y="35" on="0"/>
        <pt x="165" y="-9" on="0"/>
        <pt x="133" y="-9" on="1"/>
        <pt x="102" y="-9" on="0"/>
        <pt x="66" y="35" on="0"/>
        <pt x="69" y="70" on="1"/>
        <pt x="73" y="105" on="0"/>
        <pt x="117" y="150" on="0"/>
      </contour>
    </TTGlyph>
    <TTGlyph name="five" xMin="53" yMin="-120" xMax="508" yMax="581">
      <contour>
        <pt x="508" y="581" on="1"/>
        <pt x="498" y="473" on="1"/>
        <pt x="251" y="473" on="1"/>
        <pt x="222" y="317" on="1"/>
        <pt x="264" y="329" on="0"/>
        <pt x="308" y="329" on="1"/>
        <pt x="356" y="329" on="0"/>
        <pt x="429" y="298" on="0"/>
        <pt x="477" y="243" on="0"/>
        <pt x="498" y="164" on="0"/>
        <pt x="494" y="116" on="1"/>
        <pt x="489" y="65" on="0"/>
        <pt x="446" y="-22" on="0"/>
        <pt x="378" y="-85" on="0"/>
        <pt x="292" y="-120" on="0"/>
        <pt x="244" y="-120" on="1"/>
        <pt x="204" y="-120" on="0"/>
        <pt x="132" y="-92" on="0"/>
        <pt x="80" y="-38" on="0"/>
        <pt x="53" y="41" on="0"/>
        <pt x="58" y="92" on="1"/>
        <pt x="164" y="92" on="1"/>
        <pt x="160" y="41" on="0"/>
        <pt x="212" y="-11" on="0"/>
        <pt x="257" y="-11" on="1"/>
        <pt x="282" y="-11" on="0"/>
        <pt x="327" y="7" on="0"/>
        <pt x="362" y="40" on="0"/>
        <pt x="384" y="87" on="0"/>
        <pt x="386" y="116" on="1"/>
        <pt x="392" y="171" on="0"/>
        <pt x="334" y="233" on="0"/>
        <pt x="268" y="233" on="1"/>
        <pt x="103" y="233" on="1"/>
        <pt x="163" y="581" on="1"/>
      </contour>
    </TTGlyph>
    <TTGlyph name="fivetamil" xMin="58" yMin="-260" xMax="975" yMax="517">
      <contour>
        <pt x="832" y="511" on="1"/>
        <pt x="823" y="408" on="1"/>
        <pt x="723" y="408" on="1"/>
        <pt x="707" y="225" on="1"/>
        <pt x="727" y="267" on="0"/>
        <pt x="792" y="309" on="0"/>
        <pt x="834" y="309" on="1"/>
        <pt x="865" y="309" on="0"/>
        <pt x="919" y="280" on="0"/>
        <pt x="957" y="226" on="0"/>
        <pt x="975" y="146" on="0"/>
        <pt x="971" y="95" on="1"/>
        <pt x="963" y="14" on="0"/>
        <pt x="893" y="-117" on="0"/>
        <pt x="775" y="-210" on="0"/>
        <pt x="613" y="-260" on="0"/>
        <pt x="514" y="-260" on="1"/>
        <pt x="406" y="-260" on="0"/>
        <pt x="232" y="-203" on="0"/>
        <pt x="114" y="-93" on="0"/>
        <pt x="58" y="68" on="0"/>
        <pt x="68" y="171" on="1"/>
        <pt x="77" y="260" on="0"/>
        <pt x="135" y="428" on="0"/>
        <pt x="180" y="517" on="1"/>
        <pt x="274" y="485" on="1"/>
        <pt x="233" y="397" on="0"/>
        <pt x="183" y="250" on="0"/>
        <pt x="175" y="171" on="1"/>
        <pt x="167" y="87" on="0"/>
        <pt x="207" y="-34" on="0"/>
        <pt x="297" y="-114" on="0"/>
        <pt x="434" y="-152" on="0"/>
        <pt x="524" y="-152" on="1"/>
        <pt x="589" y="-152" on="0"/>
        <pt x="708" y="-122" on="0"/>
        <pt x="800" y="-60" on="0"/>
        <pt x="859" y="32" on="0"/>
        <pt x="864" y="95" on="1"/>
        <pt x="870" y="152" on="0"/>
        <pt x="832" y="210" on="0"/>
        <pt x="798" y="210" on="1"/>
        <pt x="758" y="210" on="0"/>
        <pt x="697" y="125" on="0"/>
        <pt x="690" y="52" on="1"/>
        <pt x="686" y="0" on="1"/>
        <pt x="584" y="0" on="1"/>
        <pt x="623" y="408" on="1"/>
        <pt x="471" y="408" on="1"/>
        <pt x="434" y="0" on="1"/>
        <pt x="332" y="0" on="1"/>
        <pt x="381" y="511" on="1"/>
      </contour>
    </TTGlyph>
    <TTGlyph name="four" xMin="19" yMin="-107" xMax="535" yMax="575">
      <contour>
        <pt x="474" y="575" on="1"/>
        <pt x="434" y="151" on="1"/>
        <pt x="535" y="151" on="1"/>
        <pt x="526" y="48" on="1"/>
        <pt x="424" y="48" on="1"/>
        <pt x="410" y="-107" on="1"/>
        <pt x="302" y="-107" on="1"/>
        <pt x="316" y="48" on="1"/>
        <pt x="19" y="48" on="1"/>
        <pt x="28" y="139" on="1"/>
        <pt x="369" y="575" on="1"/>
      </contour>
      <contour>
        <pt x="146" y="139" on="1"/>
        <pt x="330" y="139" on="1"/>
        <pt x="355" y="400" on="1"/>
      </contour>
    </TTGlyph>
    <TTGlyph name="fourtamil" xMin="52" yMin="-9" xMax="772" yMax="511">
      <contour>
        <pt x="772" y="511" on="1"/>
        <pt x="743" y="216" on="1"/>
        <pt x="485" y="216" on="1"/>
        <pt x="481" y="179" on="1"/>
        <pt x="471" y="81" on="0"/>
        <pt x="365" y="-9" on="0"/>
        <pt x="286" y="-9" on="1"/>
        <pt x="230" y="-9" on="0"/>
        <pt x="143" y="23" on="0"/>
        <pt x="83" y="74" on="0"/>
        <pt x="52" y="139" on="0"/>
        <pt x="52" y="172" on="1"/>
        <pt x="52" y="223" on="0"/>
        <pt x="111" y="287" on="0"/>
        <pt x="165" y="287" on="1"/>
        <pt x="170" y="287" on="1"/>
        <pt x="192" y="511" on="1"/>
        <pt x="588" y="511" on="1"/>
        <pt x="578" y="408" on="1"/>
        <pt x="503" y="408" on="1"/>
        <pt x="491" y="287" on="1"/>
        <pt x="648" y="287" on="1"/>
        <pt x="670" y="511" on="1"/>
      </contour>
      <contour>
        <pt x="207" y="216" on="1"/>
        <pt x="187" y="216" on="0"/>
        <pt x="158" y="193" on="0"/>
        <pt x="158" y="167" on="1"/>
        <pt x="158" y="132" on="0"/>
        <pt x="224" y="85" on="0"/>
        <pt x="284" y="85" on="1"/>
        <pt x="371" y="85" on="0"/>
        <pt x="380" y="179" on="1"/>
        <pt x="384" y="216" on="1"/>
      </contour>
      <contour>
        <pt x="264" y="287" on="1"/>
        <pt x="390" y="287" on="1"/>
        <pt x="401" y="408" on="1"/>
        <pt x="276" y="408" on="1"/>
      </contour>
    </TTGlyph>
    <TTGlyph name="greater" xMin="51" yMin="25" xMax="457" yMax="628">
      <contour>
        <pt x="174" y="628" on="1"/>
        <pt x="457" y="384" on="1"/>
        <pt x="446" y="268" on="1"/>
        <pt x="118" y="25" on="1"/>
        <pt x="51" y="122" on="1"/>
        <pt x="332" y="326" on="1"/>
        <pt x="90" y="531" on="1"/>
      </contour>
    </TTGlyph>
    <TTGlyph name="ha.tam" xMin="24" yMin="-335" xMax="1493" yMax="520">
      <contour>
        <pt x="1038" y="520" on="1"/>
        <pt x="1083" y="520" on="0"/>
        <pt x="1134" y="465" on="0"/>
        <pt x="1142" y="425" on="1"/>
        <pt x="1174" y="481" on="0"/>
        <pt x="1255" y="520" on="0"/>
        <pt x="1302" y="520" on="1"/>
        <pt x="1352" y="520" on="0"/>
        <pt x="1427" y="470" on="0"/>
        <pt x="1475" y="385" on="0"/>
        <pt x="1493" y="269" on="0"/>
        <pt x="1487" y="203" on="1"/>
        <pt x="1478" y="109" on="0"/>
        <pt x="1418" y="-37" on="0"/>
        <pt x="1320" y="-136" on="0"/>
        <pt x="1190" y="-187" on="0"/>
        <pt x="1112" y="-187" on="1"/>
        <pt x="167" y="-187" on="1"/>
        <pt x="149" y="-187" on="0"/>
        <pt x="127" y="-203" on="0"/>
        <pt x="126" y="-220" on="1"/>
        <pt x="125" y="-238" on="0"/>
        <pt x="142" y="-270" on="0"/>
        <pt x="157" y="-287" on="1"/>
        <pt x="85" y="-335" on="1"/>
        <pt x="59" y="-310" on="0"/>
        <pt x="24" y="-238" on="0"/>
        <pt x="29" y="-196" on="1"/>
        <pt x="31" y="-174" on="0"/>
        <pt x="47" y="-133" on="0"/>
        <pt x="79" y="-101" on="0"/>
        <pt x="128" y="-83" on="0"/>
        <pt x="162" y="-83" on="1"/>
        <pt x="1069" y="-83" on="1"/>
        <pt x="1092" y="-83" on="0"/>
        <pt x="1135" y="-81" on="0"/>
        <pt x="1156" y="-79" on="1"/>
        <pt x="1213" y="-74" on="0"/>
        <pt x="1293" y="-25" on="0"/>
        <pt x="1347" y="51" on="0"/>
        <pt x="1376" y="149" on="0"/>
        <pt x="1381" y="203" on="1"/>
        <pt x="1385" y="250" on="0"/>
        <pt x="1376" y="328" on="0"/>
        <pt x="1352" y="385" on="0"/>
        <pt x="1315" y="416" on="0"/>
        <pt x="1291" y="416" on="1"/>
        <pt x="1258" y="416" on="0"/>
        <pt x="1215" y="357" on="0"/>
        <pt x="1210" y="306" on="1"/>
        <pt x="1181" y="0" on="1"/>
        <pt x="1080" y="0" on="1"/>
        <pt x="1109" y="306" on="1"/>
        <pt x="1114" y="357" on="0"/>
        <pt x="1085" y="416" on="0"/>
        <pt x="1046" y="416" on="1"/>
        <pt x="1006" y="416" on="0"/>
        <pt x="966" y="357" on="0"/>
        <pt x="962" y="306" on="1"/>
        <pt x="933" y="0" on="1"/>
        <pt x="616" y="0" on="1"/>
        <pt x="542" y="46" on="1"/>
        <pt x="562" y="84" on="0"/>
        <pt x="586" y="168" on="0"/>
        <pt x="590" y="207" on="1"/>
        <pt x="594" y="250" on="0"/>
        <pt x="574" y="326" on="0"/>
        <pt x="528" y="383" on="0"/>
        <pt x="455" y="416" on="0"/>
        <pt x="407" y="416" on="1"/>
        <pt x="363" y="416" on="0"/>
        <pt x="282" y="385" on="0"/>
        <pt x="219" y="330" on="0"/>
        <pt x="177" y="252" on="0"/>
        <pt x="173" y="205" on="1"/>
        <pt x="168" y="160" on="0"/>
        <pt x="193" y="106" on="0"/>
        <pt x="214" y="91" on="1"/>
        <pt x="213" y="115" on="0"/>
        <pt x="218" y="167" on="0"/>
        <pt x="227" y="192" on="1"/>
        <pt x="243" y="233" on="0"/>
        <pt x="305" y="294" on="0"/>
        <pt x="351" y="301" on="1"/>
        <pt x="392" y="309" on="0"/>
        <pt x="425" y="295" on="1"/>
        <pt x="464" y="282" on="0"/>
        <pt x="502" y="210" on="0"/>
        <pt x="497" y="159" on="1"/>
        <pt x="494" y="123" on="0"/>
        <pt x="459" y="61" on="0"/>
        <pt x="404" y="16" on="0"/>
        <pt x="330" y="-9" on="0"/>
        <pt x="287" y="-9" on="1"/>
        <pt x="242" y="-9" on="0"/>
        <pt x="158" y="25" on="0"/>
        <pt x="97" y="87" on="0"/>
        <pt x="64" y="173" on="0"/>
        <pt x="69" y="225" on="1"/>
        <pt x="75" y="291" on="0"/>
        <pt x="135" y="400" on="0"/>
        <pt x="229" y="477" on="0"/>
        <pt x="351" y="520" on="0"/>
        <pt x="420" y="520" on="1"/>
        <pt x="492" y="520" on="0"/>
        <pt x="601" y="472" on="0"/>
        <pt x="672" y="391" on="0"/>
        <pt x="704" y="284" on="0"/>
        <pt x="699" y="226" on="1"/>
        <pt x="695" y="192" on="0"/>
        <pt x="679" y="132" on="0"/>
        <pt x="668" y="103" on="1"/>
        <pt x="840" y="103" on="1"/>
        <pt x="859" y="306" on="1"/>
        <pt x="865" y="363" on="0"/>
        <pt x="896" y="445" on="0"/>
        <pt x="942" y="496" on="0"/>
        <pt x="1003" y="520" on="0"/>
      </contour>
      <contour>
        <pt x="349" y="210" on="1"/>
        <pt x="322" y="210" on="0"/>
        <pt x="283" y="168" on="0"/>
        <pt x="275" y="139" on="1"/>
        <pt x="267" y="107" on="0"/>
        <pt x="270" y="80" on="1"/>
        <pt x="275" y="79" on="0"/>
        <pt x="286" y="78" on="0"/>
        <pt x="291" y="78" on="1"/>
        <pt x="306" y="78" on="0"/>
        <pt x="340" y="87" on="0"/>
        <pt x="369" y="106" on="0"/>
        <pt x="388" y="136" on="0"/>
        <pt x="390" y="157" on="1"/>
        <pt x="393" y="180" on="0"/>
        <pt x="372" y="210" on="0"/>
      </contour>
    </TTGlyph>
    <TTGlyph name="hansv.tam" xMin="11" yMin="-335" xMax="1480" yMax="841">
      <contour>
        <pt x="1025" y="520" on="1"/>
        <pt x="1070" y="520" on="0"/>
        <pt x="1121" y="465" on="0"/>
        <pt x="1129" y="425" on="1"/>
        <pt x="1161" y="481" on="0"/>
        <pt x="1242" y="520" on="0"/>
        <pt x="1289" y="520" on="1"/>
        <pt x="1339" y="520" on="0"/>
        <pt x="1414" y="470" on="0"/>
        <pt x="1462" y="385" on="0"/>
        <pt x="1480" y="269" on="0"/>
        <pt x="1474" y="203" on="1"/>
        <pt x="1465" y="109" on="0"/>
        <pt x="1405" y="-37" on="0"/>
        <pt x="1307" y="-136" on="0"/>
        <pt x="1177" y="-187" on="0"/>
        <pt x="1099" y="-187" on="1"/>
        <pt x="154" y="-187" on="1"/>
        <pt x="136" y="-187" on="0"/>
        <pt x="114" y="-203" on="0"/>
        <pt x="113" y="-220" on="1"/>
        <pt x="112" y="-238" on="0"/>
        <pt x="129" y="-270" on="0"/>
        <pt x="144" y="-287" on="1"/>
        <pt x="72" y="-335" on="1"/>
        <pt x="46" y="-310" on="0"/>
        <pt x="11" y="-238" on="0"/>
        <pt x="16" y="-196" on="1"/>
        <pt x="18" y="-174" on="0"/>
        <pt x="34" y="-133" on="0"/>
        <pt x="66" y="-101" on="0"/>
        <pt x="115" y="-83" on="0"/>
        <pt x="149" y="-83" on="1"/>
        <pt x="1056" y="-83" on="1"/>
        <pt x="1079" y="-83" on="0"/>
        <pt x="1122" y="-81" on="0"/>
        <pt x="1143" y="-79" on="1"/>
        <pt x="1200" y="-74" on="0"/>
        <pt x="1280" y="-25" on="0"/>
        <pt x="1334" y="51" on="0"/>
        <pt x="1363" y="149" on="0"/>
        <pt x="1368" y="203" on="1"/>
        <pt x="1372" y="250" on="0"/>
        <pt x="1363" y="328" on="0"/>
        <pt x="1339" y="385" on="0"/>
        <pt x="1302" y="416" on="0"/>
        <pt x="1278" y="416" on="1"/>
        <pt x="1245" y="416" on="0"/>
        <pt x="1202" y="357" on="0"/>
        <pt x="1197" y="306" on="1"/>
        <pt x="1168" y="0" on="1"/>
        <pt x="1067" y="0" on="1"/>
        <pt x="1096" y="306" on="1"/>
        <pt x="1101" y="357" on="0"/>
        <pt x="1072" y="416" on="0"/>
        <pt x="1033" y="416" on="1"/>
        <pt x="993" y="416" on="0"/>
        <pt x="953" y="357" on="0"/>
        <pt x="949" y="306" on="1"/>
        <pt x="920" y="0" on="1"/>
        <pt x="603" y="0" on="1"/>
        <pt x="529" y="46" on="1"/>
        <pt x="549" y="84" on="0"/>
        <pt x="573" y="168" on="0"/>
        <pt x="577" y="207" on="1"/>
        <pt x="581" y="250" on="0"/>
        <pt x="561" y="326" on="0"/>
        <pt x="515" y="383" on="0"/>
        <pt x="442" y="416" on="0"/>
        <pt x="394" y="416" on="1"/>
        <pt x="350" y="416" on="0"/>
        <pt x="269" y="385" on="0"/>
        <pt x="206" y="330" on="0"/>
        <pt x="164" y="252" on="0"/>
        <pt x="160" y="205" on="1"/>
        <pt x="155" y="160" on="0"/>
        <pt x="180" y="106" on="0"/>
        <pt x="201" y="91" on="1"/>
        <pt x="200" y="115" on="0"/>
        <pt x="205" y="167" on="0"/>
        <pt x="214" y="192" on="1"/>
        <pt x="230" y="233" on="0"/>
        <pt x="292" y="294" on="0"/>
        <pt x="338" y="301" on="1"/>
        <pt x="379" y="309" on="0"/>
        <pt x="412" y="295" on="1"/>
        <pt x="451" y="282" on="0"/>
        <pt x="489" y="210" on="0"/>
        <pt x="484" y="159" on="1"/>
        <pt x="481" y="123" on="0"/>
        <pt x="446" y="61" on="0"/>
        <pt x="391" y="16" on="0"/>
        <pt x="317" y="-9" on="0"/>
        <pt x="274" y="-9" on="1"/>
        <pt x="229" y="-9" on="0"/>
        <pt x="145" y="25" on="0"/>
        <pt x="84" y="87" on="0"/>
        <pt x="51" y="173" on="0"/>
        <pt x="56" y="225" on="1"/>
        <pt x="62" y="291" on="0"/>
        <pt x="122" y="400" on="0"/>
        <pt x="216" y="477" on="0"/>
        <pt x="338" y="520" on="0"/>
        <pt x="407" y="520" on="1"/>
        <pt x="479" y="520" on="0"/>
        <pt x="588" y="472" on="0"/>
        <pt x="659" y="391" on="0"/>
        <pt x="691" y="284" on="0"/>
        <pt x="686" y="226" on="1"/>
        <pt x="682" y="192" on="0"/>
        <pt x="666" y="132" on="0"/>
        <pt x="655" y="103" on="1"/>
        <pt x="827" y="103" on="1"/>
        <pt x="846" y="306" on="1"/>
        <pt x="852" y="363" on="0"/>
        <pt x="883" y="445" on="0"/>
        <pt x="929" y="496" on="0"/>
        <pt x="990" y="520" on="0"/>
      </contour>
      <contour>
        <pt x="336" y="210" on="1"/>
        <pt x="309" y="210" on="0"/>
        <pt x="270" y="168" on="0"/>
        <pt x="262" y="139" on="1"/>
        <pt x="254" y="107" on="0"/>
        <pt x="257" y="80" on="1"/>
        <pt x="262" y="79" on="0"/>
        <pt x="273" y="78" on="0"/>
        <pt x="278" y="78" on="1"/>
        <pt x="293" y="78" on="0"/>
        <pt x="327" y="87" on="0"/>
        <pt x="356" y="106" on="0"/>
        <pt x="375" y="136" on="0"/>
        <pt x="377" y="157" on="1"/>
        <pt x="380" y="180" on="0"/>
        <pt x="359" y="210" on="0"/>
      </contour>
      <contour>
        <pt x="788" y="841" on="1"/>
        <pt x="846" y="841" on="0"/>
        <pt x="910" y="775" on="0"/>
        <pt x="904" y="717" on="1"/>
        <pt x="899" y="660" on="0"/>
        <pt x="822" y="594" on="0"/>
        <pt x="765" y="594" on="1"/>
        <pt x="708" y="594" on="0"/>
        <pt x="644" y="660" on="0"/>
        <pt x="649" y="717" on="1"/>
        <pt x="655" y="775" on="0"/>
        <pt x="731" y="841" on="0"/>
      </contour>
      <contour>
        <pt x="781" y="764" on="1"/>
        <pt x="763" y="764" on="0"/>
        <pt x="741" y="738" on="0"/>
        <pt x="739" y="717" on="1"/>
        <pt x="734" y="673" on="0"/>
        <pt x="772" y="673" on="1"/>
        <pt x="810" y="673" on="0"/>
        <pt x="815" y="717" on="1"/>
        <pt x="817" y="738" on="0"/>
        <pt x="799" y="764" on="0"/>
      </contour>
    </TTGlyph>
    <TTGlyph name="hi.tam" xMin="24" yMin="-335" xMax="1710" yMax="791">
      <contour>
        <pt x="1038" y="520" on="1"/>
        <pt x="1083" y="520" on="0"/>
        <pt x="1134" y="465" on="0"/>
        <pt x="1142" y="425" on="1"/>
        <pt x="1174" y="481" on="0"/>
        <pt x="1255" y="520" on="0"/>
        <pt x="1302" y="520" on="1"/>
        <pt x="1305" y="520" on="0"/>
        <pt x="1312" y="520" on="0"/>
        <pt x="1315" y="519" on="1"/>
        <pt x="1297" y="541" on="0"/>
        <pt x="1278" y="596" on="0"/>
        <pt x="1281" y="628" on="1"/>
        <pt x="1288" y="702" on="0"/>
        <pt x="1402" y="791" on="0"/>
        <pt x="1492" y="791" on="1"/>
        <pt x="1538" y="791" on="0"/>
        <pt x="1617" y="757" on="0"/>
        <pt x="1674" y="691" on="0"/>
        <pt x="1707" y="593" on="0"/>
        <pt x="1708" y="529" on="1"/>
        <pt x="1710" y="488" on="0"/>
        <pt x="1705" y="443" on="1"/>
        <pt x="1664" y="0" on="1"/>
        <pt x="1562" y="0" on="1"/>
        <pt x="1605" y="471" on="1"/>
        <pt x="1615" y="574" on="0"/>
        <pt x="1555" y="683" on="0"/>
        <pt x="1492" y="683" on="1"/>
        <pt x="1469" y="683" on="0"/>
        <pt x="1429" y="666" on="0"/>
        <pt x="1399" y="636" on="0"/>
        <pt x="1380" y="597" on="0"/>
        <pt x="1378" y="575" on="1"/>
        <pt x="1376" y="549" on="0"/>
        <pt x="1387" y="506" on="0"/>
        <pt x="1402" y="486" on="1"/>
        <pt x="1451" y="447" on="0"/>
        <pt x="1496" y="296" on="0"/>
        <pt x="1487" y="203" on="1"/>
        <pt x="1478" y="109" on="0"/>
        <pt x="1418" y="-37" on="0"/>
        <pt x="1320" y="-136" on="0"/>
        <pt x="1190" y="-187" on="0"/>
        <pt x="1112" y="-187" on="1"/>
        <pt x="167" y="-187" on="1"/>
        <pt x="149" y="-187" on="0"/>
        <pt x="127" y="-203" on="0"/>
        <pt x="126" y="-220" on="1"/>
        <pt x="125" y="-238" on="0"/>
        <pt x="142" y="-270" on="0"/>
        <pt x="157" y="-287" on="1"/>
        <pt x="85" y="-335" on="1"/>
        <pt x="59" y="-310" on="0"/>
        <pt x="24" y="-238" on="0"/>
        <pt x="29" y="-196" on="1"/>
        <pt x="31" y="-174" on="0"/>
        <pt x="47" y="-133" on="0"/>
        <pt x="79" y="-101" on="0"/>
        <pt x="128" y="-83" on="0"/>
        <pt x="162" y="-83" on="1"/>
        <pt x="1069" y="-83" on="1"/>
        <pt x="1092" y="-83" on="0"/>
        <pt x="1135" y="-81" on="0"/>
        <pt x="1156" y="-79" on="1"/>
        <pt x="1213" y="-74" on="0"/>
        <pt x="1293" y="-25" on="0"/>
        <pt x="1347" y="51" on="0"/>
        <pt x="1376" y="149" on="0"/>
        <pt x="1381" y="203" on="1"/>
        <pt x="1385" y="250" on="0"/>
        <pt x="1376" y="328" on="0"/>
        <pt x="1352" y="385" on="0"/>
        <pt x="1315" y="416" on="0"/>
        <pt x="1291" y="416" on="1"/>
        <pt x="1258" y="416" on="0"/>
        <pt x="1215" y="357" on="0"/>
        <pt x="1210" y="306" on="1"/>
        <pt x="1181" y="0" on="1"/>
        <pt x="1080" y="0" on="1"/>
        <pt x="1109" y="306" on="1"/>
        <pt x="1114" y="357" on="0"/>
        <pt x="1085" y="416" on="0"/>
        <pt x="1046" y="416" on="1"/>
        <pt x="1006" y="416" on="0"/>
        <pt x="966" y="357" on="0"/>
        <pt x="962" y="306" on="1"/>
        <pt x="933" y="0" on="1"/>
        <pt x="616" y="0" on="1"/>
        <pt x="542" y="46" on="1"/>
        <pt x="562" y="84" on="0"/>
        <pt x="586" y="168" on="0"/>
        <pt x="590" y="207" on="1"/>
        <pt x="594" y="250" on="0"/>
        <pt x="574" y="326" on="0"/>
        <pt x="528" y="383" on="0"/>
        <pt x="455" y="416" on="0"/>
        <pt x="407" y="416" on="1"/>
        <pt x="363" y="416" on="0"/>
        <pt x="282" y="385" on="0"/>
        <pt x="219" y="330" on="0"/>
        <pt x="177" y="252" on="0"/>
        <pt x="173" y="205" on="1"/>
        <pt x="168" y="160" on="0"/>
        <pt x="193" y="106" on="0"/>
        <pt x="214" y="91" on="1"/>
        <pt x="213" y="115" on="0"/>
        <pt x="218" y="167" on="0"/>
        <pt x="227" y="192" on="1"/>
        <pt x="243" y="233" on="0"/>
        <pt x="305" y="294" on="0"/>
        <pt x="351" y="301" on="1"/>
        <pt x="371" y="304" on="0"/>
        <pt x="408" y="302" on="0"/>
        <pt x="425" y="295" on="1"/>
        <pt x="464" y="282" on="0"/>
        <pt x="502" y="210" on="0"/>
        <pt x="497" y="159" on="1"/>
        <pt x="494" y="123" on="0"/>
        <pt x="459" y="61" on="0"/>
        <pt x="404" y="16" on="0"/>
        <pt x="330" y="-9" on="0"/>
        <pt x="287" y="-9" on="1"/>
        <pt x="242" y="-9" on="0"/>
        <pt x="158" y="25" on="0"/>
        <pt x="97" y="87" on="0"/>
        <pt x="64" y="173" on="0"/>
        <pt x="69" y="225" on="1"/>
        <pt x="75" y="291" on="0"/>
        <pt x="135" y="400" on="0"/>
        <pt x="229" y="477" on="0"/>
        <pt x="351" y="520" on="0"/>
        <pt x="420" y="520" on="1"/>
        <pt x="492" y="520" on="0"/>
        <pt x="601" y="472" on="0"/>
        <pt x="672" y="391" on="0"/>
        <pt x="704" y="284" on="0"/>
        <pt x="699" y="226" on="1"/>
        <pt x="695" y="192" on="0"/>
        <pt x="679" y="132" on="0"/>
        <pt x="668" y="103" on="1"/>
        <pt x="840" y="103" on="1"/>
        <pt x="859" y="306" on="1"/>
        <pt x="865" y="363" on="0"/>
        <pt x="896" y="445" on="0"/>
        <pt x="942" y="496" on="0"/>
        <pt x="1003" y="520" on="0"/>
      </contour>
      <contour>
        <pt x="349" y="210" on="1"/>
        <pt x="322" y="210" on="0"/>
        <pt x="283" y="168" on="0"/>
        <pt x="275" y="139" on="1"/>
        <pt x="267" y="107" on="0"/>
        <pt x="270" y="80" on="1"/>
        <pt x="275" y="79" on="0"/>
        <pt x="286" y="78" on="0"/>
        <pt x="291" y="78" on="1"/>
        <pt x="306" y="78" on="0"/>
        <pt x="340" y="87" on="0"/>
        <pt x="369" y="106" on="0"/>
        <pt x="388" y="136" on="0"/>
        <pt x="390" y="157" on="1"/>
        <pt x="393" y="180" on="0"/>
        <pt x="372" y="210" on="0"/>
      </contour>
    </TTGlyph>
    <TTGlyph name="hii.tam" xMin="24" yMin="-335" xMax="1593" yMax="855">
      <contour>
        <pt x="1401" y="855" on="1"/>
        <pt x="1448" y="855" on="0"/>
        <pt x="1521" y="828" on="0"/>
        <pt x="1569" y="783" on="0"/>
        <pt x="1593" y="724" on="0"/>
        <pt x="1590" y="693" on="1"/>
        <pt x="1584" y="638" on="0"/>
        <pt x="1506" y="567" on="0"/>
        <pt x="1440" y="567" on="1"/>
        <pt x="1409" y="567" on="0"/>
        <pt x="1365" y="585" on="0"/>
        <pt x="1338" y="615" on="0"/>
        <pt x="1328" y="654" on="0"/>
        <pt x="1330" y="675" on="1"/>
        <pt x="1332" y="700" on="0"/>
        <pt x="1356" y="748" on="0"/>
        <pt x="1376" y="768" on="1"/>
        <pt x="1331" y="758" on="0"/>
        <pt x="1265" y="690" on="0"/>
        <pt x="1260" y="638" on="1"/>
        <pt x="1256" y="597" on="0"/>
        <pt x="1300" y="532" on="0"/>
        <pt x="1345" y="514" on="1"/>
        <pt x="1384" y="504" on="0"/>
        <pt x="1443" y="448" on="0"/>
        <pt x="1479" y="365" on="0"/>
        <pt x="1493" y="261" on="0"/>
        <pt x="1487" y="203" on="1"/>
        <pt x="1478" y="109" on="0"/>
        <pt x="1418" y="-37" on="0"/>
        <pt x="1320" y="-136" on="0"/>
        <pt x="1190" y="-187" on="0"/>
        <pt x="1112" y="-187" on="1"/>
        <pt x="167" y="-187" on="1"/>
        <pt x="149" y="-187" on="0"/>
        <pt x="127" y="-203" on="0"/>
        <pt x="126" y="-220" on="1"/>
        <pt x="125" y="-238" on="0"/>
        <pt x="142" y="-270" on="0"/>
        <pt x="157" y="-287" on="1"/>
        <pt x="85" y="-335" on="1"/>
        <pt x="59" y="-310" on="0"/>
        <pt x="24" y="-238" on="0"/>
        <pt x="29" y="-196" on="1"/>
        <pt x="31" y="-174" on="0"/>
        <pt x="47" y="-133" on="0"/>
        <pt x="79" y="-101" on="0"/>
        <pt x="128" y="-83" on="0"/>
        <pt x="162" y="-83" on="1"/>
        <pt x="1069" y="-83" on="1"/>
        <pt x="1092" y="-83" on="0"/>
        <pt x="1135" y="-81" on="0"/>
        <pt x="1156" y="-79" on="1"/>
        <pt x="1213" y="-74" on="0"/>
        <pt x="1293" y="-25" on="0"/>
        <pt x="1347" y="51" on="0"/>
        <pt x="1376" y="149" on="0"/>
        <pt x="1381" y="203" on="1"/>
        <pt x="1385" y="250" on="0"/>
        <pt x="1376" y="328" on="0"/>
        <pt x="1352" y="385" on="0"/>
        <pt x="1315" y="416" on="0"/>
        <pt x="1291" y="416" on="1"/>
        <pt x="1258" y="416" on="0"/>
        <pt x="1215" y="357" on="0"/>
        <pt x="1210" y="306" on="1"/>
        <pt x="1181" y="0" on="1"/>
        <pt x="1080" y="0" on="1"/>
        <pt x="1109" y="306" on="1"/>
        <pt x="1114" y="357" on="0"/>
        <pt x="1085" y="416" on="0"/>
        <pt x="1046" y="416" on="1"/>
        <pt x="1006" y="416" on="0"/>
        <pt x="966" y="357" on="0"/>
        <pt x="962" y="306" on="1"/>
        <pt x="933" y="0" on="1"/>
        <pt x="616" y="0" on="1"/>
        <pt x="542" y="46" on="1"/>
        <pt x="562" y="84" on="0"/>
        <pt x="586" y="168" on="0"/>
        <pt x="590" y="207" on="1"/>
        <pt x="594" y="250" on="0"/>
        <pt x="574" y="326" on="0"/>
        <pt x="528" y="383" on="0"/>
        <pt x="455" y="416" on="0"/>
        <pt x="407" y="416" on="1"/>
        <pt x="363" y="416" on="0"/>
        <pt x="282" y="385" on="0"/>
        <pt x="219" y="330" on="0"/>
        <pt x="177" y="252" on="0"/>
        <pt x="173" y="205" on="1"/>
        <pt x="168" y="160" on="0"/>
        <pt x="193" y="106" on="0"/>
        <pt x="214" y="91" on="1"/>
        <pt x="213" y="115" on="0"/>
        <pt x="218" y="167" on="0"/>
        <pt x="227" y="192" on="1"/>
        <pt x="243" y="233" on="0"/>
        <pt x="305" y="294" on="0"/>
        <pt x="351" y="301" on="1"/>
        <pt x="392" y="309" on="0"/>
        <pt x="425" y="295" on="1"/>
        <pt x="464" y="282" on="0"/>
        <pt x="502" y="210" on="0"/>
        <pt x="497" y="159" on="1"/>
        <pt x="494" y="123" on="0"/>
        <pt x="459" y="61" on="0"/>
        <pt x="404" y="16" on="0"/>
        <pt x="330" y="-9" on="0"/>
        <pt x="287" y="-9" on="1"/>
        <pt x="242" y="-9" on="0"/>
        <pt x="158" y="25" on="0"/>
        <pt x="97" y="87" on="0"/>
        <pt x="64" y="173" on="0"/>
        <pt x="69" y="225" on="1"/>
        <pt x="75" y="291" on="0"/>
        <pt x="135" y="400" on="0"/>
        <pt x="229" y="477" on="0"/>
        <pt x="351" y="520" on="0"/>
        <pt x="420" y="520" on="1"/>
        <pt x="492" y="520" on="0"/>
        <pt x="601" y="472" on="0"/>
        <pt x="672" y="391" on="0"/>
        <pt x="704" y="284" on="0"/>
        <pt x="699" y="226" on="1"/>
        <pt x="695" y="192" on="0"/>
        <pt x="679" y="132" on="0"/>
        <pt x="668" y="103" on="1"/>
        <pt x="840" y="103" on="1"/>
        <pt x="859" y="306" on="1"/>
        <pt x="865" y="363" on="0"/>
        <pt x="896" y="445" on="0"/>
        <pt x="942" y="496" on="0"/>
        <pt x="1003" y="520" on="0"/>
        <pt x="1038" y="520" on="1"/>
        <pt x="1083" y="520" on="0"/>
        <pt x="1134" y="465" on="0"/>
        <pt x="1142" y="425" on="1"/>
        <pt x="1162" y="461" on="0"/>
        <pt x="1210" y="501" on="0"/>
        <pt x="1237" y="510" on="1"/>
        <pt x="1202" y="534" on="0"/>
        <pt x="1164" y="614" on="0"/>
        <pt x="1169" y="664" on="1"/>
        <pt x="1173" y="705" on="0"/>
        <pt x="1213" y="775" on="0"/>
        <pt x="1276" y="826" on="0"/>
        <pt x="1356" y="855" on="0"/>
      </contour>
      <contour>
        <pt x="349" y="210" on="1"/>
        <pt x="322" y="210" on="0"/>
        <pt x="283" y="168" on="0"/>
        <pt x="275" y="139" on="1"/>
        <pt x="267" y="107" on="0"/>
        <pt x="270" y="80" on="1"/>
        <pt x="275" y="79" on="0"/>
        <pt x="286" y="78" on="0"/>
        <pt x="291" y="78" on="1"/>
        <pt x="306" y="78" on="0"/>
        <pt x="340" y="87" on="0"/>
        <pt x="369" y="106" on="0"/>
        <pt x="388" y="136" on="0"/>
        <pt x="390" y="157" on="1"/>
        <pt x="393" y="180" on="0"/>
        <pt x="372" y="210" on="0"/>
      </contour>
      <contour>
        <pt x="1421" y="773" on="1"/>
        <pt x="1410" y="756" on="0"/>
        <pt x="1394" y="718" on="0"/>
        <pt x="1392" y="701" on="1"/>
        <pt x="1390" y="675" on="0"/>
        <pt x="1412" y="642" on="0"/>
        <pt x="1436" y="642" on="1"/>
        <pt x="1459" y="642" on="0"/>
        <pt x="1490" y="673" on="0"/>
        <pt x="1492" y="696" on="1"/>
        <pt x="1494" y="728" on="0"/>
        <pt x="1450" y="767" on="0"/>
      </contour>
    </TTGlyph>
    <TTGlyph name="hu.tam" xMin="11" yMin="-335" xMax="1900" yMax="520">
      <contour>
        <pt x="1025" y="520" on="1"/>
        <pt x="1070" y="520" on="0"/>
        <pt x="1121" y="465" on="0"/>
        <pt x="1129" y="425" on="1"/>
        <pt x="1161" y="481" on="0"/>
        <pt x="1242" y="520" on="0"/>
        <pt x="1289" y="520" on="1"/>
        <pt x="1318" y="520" on="0"/>
        <pt x="1344" y="511" on="1"/>
        <pt x="1738" y="511" on="1"/>
        <pt x="1775" y="511" on="0"/>
        <pt x="1836" y="492" on="0"/>
        <pt x="1879" y="453" on="0"/>
        <pt x="1900" y="395" on="0"/>
        <pt x="1896" y="357" on="1"/>
        <pt x="1893" y="322" on="0"/>
        <pt x="1866" y="263" on="0"/>
        <pt x="1824" y="220" on="0"/>
        <pt x="1766" y="195" on="0"/>
        <pt x="1731" y="195" on="1"/>
        <pt x="1696" y="195" on="0"/>
        <pt x="1643" y="220" on="0"/>
        <pt x="1609" y="265" on="0"/>
        <pt x="1594" y="327" on="0"/>
        <pt x="1597" y="363" on="1"/>
        <pt x="1602" y="422" on="1"/>
        <pt x="1440" y="422" on="1"/>
        <pt x="1463" y="379" on="0"/>
        <pt x="1480" y="267" on="0"/>
        <pt x="1474" y="203" on="1"/>
        <pt x="1465" y="109" on="0"/>
        <pt x="1405" y="-37" on="0"/>
        <pt x="1307" y="-136" on="0"/>
        <pt x="1177" y="-187" on="0"/>
        <pt x="1099" y="-187" on="1"/>
        <pt x="154" y="-187" on="1"/>
        <pt x="136" y="-187" on="0"/>
        <pt x="114" y="-203" on="0"/>
        <pt x="113" y="-220" on="1"/>
        <pt x="112" y="-238" on="0"/>
        <pt x="129" y="-270" on="0"/>
        <pt x="144" y="-287" on="1"/>
        <pt x="72" y="-335" on="1"/>
        <pt x="46" y="-310" on="0"/>
        <pt x="11" y="-238" on="0"/>
        <pt x="16" y="-196" on="1"/>
        <pt x="18" y="-174" on="0"/>
        <pt x="34" y="-133" on="0"/>
        <pt x="66" y="-101" on="0"/>
        <pt x="115" y="-83" on="0"/>
        <pt x="149" y="-83" on="1"/>
        <pt x="1056" y="-83" on="1"/>
        <pt x="1079" y="-83" on="0"/>
        <pt x="1122" y="-81" on="0"/>
        <pt x="1143" y="-79" on="1"/>
        <pt x="1200" y="-74" on="0"/>
        <pt x="1280" y="-25" on="0"/>
        <pt x="1334" y="51" on="0"/>
        <pt x="1363" y="149" on="0"/>
        <pt x="1368" y="203" on="1"/>
        <pt x="1372" y="250" on="0"/>
        <pt x="1363" y="328" on="0"/>
        <pt x="1339" y="385" on="0"/>
        <pt x="1302" y="416" on="0"/>
        <pt x="1278" y="416" on="1"/>
        <pt x="1245" y="416" on="0"/>
        <pt x="1202" y="357" on="0"/>
        <pt x="1197" y="306" on="1"/>
        <pt x="1168" y="0" on="1"/>
        <pt x="1067" y="0" on="1"/>
        <pt x="1096" y="306" on="1"/>
        <pt x="1101" y="357" on="0"/>
        <pt x="1072" y="416" on="0"/>
        <pt x="1033" y="416" on="1"/>
        <pt x="993" y="416" on="0"/>
        <pt x="953" y="357" on="0"/>
        <pt x="949" y="306" on="1"/>
        <pt x="920" y="0" on="1"/>
        <pt x="603" y="0" on="1"/>
        <pt x="529" y="46" on="1"/>
        <pt x="549" y="84" on="0"/>
        <pt x="573" y="168" on="0"/>
        <pt x="577" y="207" on="1"/>
        <pt x="581" y="250" on="0"/>
        <pt x="561" y="326" on="0"/>
        <pt x="515" y="383" on="0"/>
        <pt x="442" y="416" on="0"/>
        <pt x="394" y="416" on="1"/>
        <pt x="350" y="416" on="0"/>
        <pt x="269" y="385" on="0"/>
        <pt x="206" y="330" on="0"/>
        <pt x="164" y="252" on="0"/>
        <pt x="160" y="205" on="1"/>
        <pt x="155" y="160" on="0"/>
        <pt x="180" y="106" on="0"/>
        <pt x="201" y="91" on="1"/>
        <pt x="200" y="115" on="0"/>
        <pt x="205" y="167" on="0"/>
        <pt x="214" y="192" on="1"/>
        <pt x="230" y="233" on="0"/>
        <pt x="292" y="294" on="0"/>
        <pt x="338" y="301" on="1"/>
        <pt x="358" y="304" on="0"/>
        <pt x="395" y="302" on="0"/>
        <pt x="412" y="295" on="1"/>
        <pt x="451" y="282" on="0"/>
        <pt x="489" y="210" on="0"/>
        <pt x="484" y="159" on="1"/>
        <pt x="481" y="123" on="0"/>
        <pt x="446" y="61" on="0"/>
        <pt x="391" y="16" on="0"/>
        <pt x="317" y="-9" on="0"/>
        <pt x="274" y="-9" on="1"/>
        <pt x="229" y="-9" on="0"/>
        <pt x="145" y="25" on="0"/>
        <pt x="84" y="87" on="0"/>
        <pt x="51" y="173" on="0"/>
        <pt x="56" y="225" on="1"/>
        <pt x="62" y="291" on="0"/>
        <pt x="122" y="400" on="0"/>
        <pt x="216" y="477" on="0"/>
        <pt x="338" y="520" on="0"/>
        <pt x="407" y="520" on="1"/>
        <pt x="479" y="520" on="0"/>
        <pt x="588" y="472" on="0"/>
        <pt x="659" y="391" on="0"/>
        <pt x="691" y="284" on="0"/>
        <pt x="686" y="226" on="1"/>
        <pt x="682" y="192" on="0"/>
        <pt x="666" y="132" on="0"/>
        <pt x="655" y="103" on="1"/>
        <pt x="827" y="103" on="1"/>
        <pt x="846" y="306" on="1"/>
        <pt x="852" y="363" on="0"/>
        <pt x="883" y="445" on="0"/>
        <pt x="929" y="496" on="0"/>
        <pt x="990" y="520" on="0"/>
      </contour>
      <contour>
        <pt x="1694" y="422" on="1"/>
        <pt x="1688" y="350" on="1"/>
        <pt x="1682" y="284" on="0"/>
        <pt x="1731" y="284" on="1"/>
        <pt x="1754" y="284" on="0"/>
        <pt x="1790" y="323" on="0"/>
        <pt x="1794" y="357" on="1"/>
        <pt x="1800" y="422" on="0"/>
        <pt x="1730" y="422" on="1"/>
      </contour>
      <contour>
        <pt x="336" y="210" on="1"/>
        <pt x="309" y="210" on="0"/>
        <pt x="270" y="168" on="0"/>
        <pt x="262" y="139" on="1"/>
        <pt x="254" y="107" on="0"/>
        <pt x="257" y="80" on="1"/>
        <pt x="262" y="79" on="0"/>
        <pt x="273" y="78" on="0"/>
        <pt x="278" y="78" on="1"/>
        <pt x="293" y="78" on="0"/>
        <pt x="327" y="87" on="0"/>
        <pt x="356" y="106" on="0"/>
        <pt x="375" y="136" on="0"/>
        <pt x="377" y="157" on="1"/>
        <pt x="380" y="180" on="0"/>
        <pt x="359" y="210" on="0"/>
      </contour>
    </TTGlyph>
    <TTGlyph name="hundredtamil" xMin="82" yMin="0" xMax="852" yMax="520">
      <contour>
        <pt x="852" y="511" on="1"/>
        <pt x="842" y="408" on="1"/>
        <pt x="748" y="408" on="1"/>
        <pt x="710" y="0" on="1"/>
        <pt x="608" y="0" on="1"/>
        <pt x="646" y="408" on="1"/>
        <pt x="495" y="408" on="1"/>
        <pt x="458" y="0" on="1"/>
        <pt x="356" y="0" on="1"/>
        <pt x="381" y="273" on="1"/>
        <pt x="385" y="312" on="0"/>
        <pt x="376" y="366" on="0"/>
        <pt x="355" y="400" on="0"/>
        <pt x="324" y="416" on="0"/>
        <pt x="306" y="416" on="1"/>
        <pt x="268" y="416" on="0"/>
        <pt x="218" y="363" on="0"/>
        <pt x="213" y="306" on="1"/>
        <pt x="184" y="0" on="1"/>
        <pt x="82" y="0" on="1"/>
        <pt x="113" y="341" on="1"/>
        <pt x="117" y="386" on="0"/>
        <pt x="145" y="453" on="0"/>
        <pt x="189" y="498" on="0"/>
        <pt x="245" y="520" on="0"/>
        <pt x="277" y="520" on="1"/>
        <pt x="322" y="520" on="0"/>
        <pt x="381" y="466" on="0"/>
        <pt x="395" y="415" on="1"/>
        <pt x="404" y="511" on="1"/>
      </contour>
    </TTGlyph>
    <TTGlyph name="huu.tam" xMin="11" yMin="-335" xMax="2182" yMax="676">
      <contour>
        <pt x="1025" y="520" on="1"/>
        <pt x="1070" y="520" on="0"/>
        <pt x="1121" y="465" on="0"/>
        <pt x="1129" y="425" on="1"/>
        <pt x="1161" y="481" on="0"/>
        <pt x="1242" y="520" on="0"/>
        <pt x="1289" y="520" on="1"/>
        <pt x="1318" y="520" on="0"/>
        <pt x="1344" y="511" on="1"/>
        <pt x="1717" y="511" on="1"/>
        <pt x="1729" y="550" on="0"/>
        <pt x="1773" y="611" on="0"/>
        <pt x="1831" y="654" on="0"/>
        <pt x="1900" y="676" on="0"/>
        <pt x="1937" y="676" on="1"/>
        <pt x="1993" y="676" on="0"/>
        <pt x="2087" y="631" on="0"/>
        <pt x="2152" y="547" on="0"/>
        <pt x="2182" y="430" on="0"/>
        <pt x="2175" y="358" on="1"/>
        <pt x="2168" y="284" on="0"/>
        <pt x="2118" y="156" on="0"/>
        <pt x="2032" y="62" on="0"/>
        <pt x="1909" y="8" on="0"/>
        <pt x="1830" y="8" on="1"/>
        <pt x="1726" y="8" on="0"/>
        <pt x="1574" y="122" on="0"/>
        <pt x="1540" y="228" on="1"/>
        <pt x="1614" y="282" on="1"/>
        <pt x="1630" y="235" on="0"/>
        <pt x="1673" y="169" on="0"/>
        <pt x="1727" y="129" on="0"/>
        <pt x="1793" y="111" on="0"/>
        <pt x="1832" y="111" on="1"/>
        <pt x="1885" y="111" on="0"/>
        <pt x="1969" y="147" on="0"/>
        <pt x="2030" y="212" on="0"/>
        <pt x="2067" y="303" on="0"/>
        <pt x="2073" y="358" on="1"/>
        <pt x="2078" y="408" on="0"/>
        <pt x="2060" y="488" on="0"/>
        <pt x="2020" y="543" on="0"/>
        <pt x="1962" y="573" on="0"/>
        <pt x="1927" y="573" on="1"/>
        <pt x="1892" y="573" on="0"/>
        <pt x="1826" y="540" on="0"/>
        <pt x="1803" y="511" on="1"/>
        <pt x="1839" y="511" on="1"/>
        <pt x="1876" y="511" on="0"/>
        <pt x="1937" y="492" on="0"/>
        <pt x="1979" y="453" on="0"/>
        <pt x="2000" y="395" on="0"/>
        <pt x="1997" y="357" on="1"/>
        <pt x="1994" y="322" on="0"/>
        <pt x="1968" y="263" on="0"/>
        <pt x="1925" y="220" on="0"/>
        <pt x="1867" y="195" on="0"/>
        <pt x="1831" y="195" on="1"/>
        <pt x="1797" y="195" on="0"/>
        <pt x="1744" y="220" on="0"/>
        <pt x="1709" y="265" on="0"/>
        <pt x="1693" y="327" on="0"/>
        <pt x="1697" y="363" on="1"/>
        <pt x="1703" y="422" on="1"/>
        <pt x="1440" y="422" on="1"/>
        <pt x="1463" y="379" on="0"/>
        <pt x="1480" y="267" on="0"/>
        <pt x="1474" y="203" on="1"/>
        <pt x="1465" y="109" on="0"/>
        <pt x="1405" y="-37" on="0"/>
        <pt x="1307" y="-136" on="0"/>
        <pt x="1177" y="-187" on="0"/>
        <pt x="1099" y="-187" on="1"/>
        <pt x="154" y="-187" on="1"/>
        <pt x="136" y="-187" on="0"/>
        <pt x="114" y="-203" on="0"/>
        <pt x="113" y="-220" on="1"/>
        <pt x="112" y="-238" on="0"/>
        <pt x="129" y="-270" on="0"/>
        <pt x="144" y="-287" on="1"/>
        <pt x="72" y="-335" on="1"/>
        <pt x="46" y="-310" on="0"/>
        <pt x="11" y="-238" on="0"/>
        <pt x="16" y="-196" on="1"/>
        <pt x="18" y="-174" on="0"/>
        <pt x="34" y="-133" on="0"/>
        <pt x="66" y="-101" on="0"/>
        <pt x="115" y="-83" on="0"/>
        <pt x="149" y="-83" on="1"/>
        <pt x="1056" y="-83" on="1"/>
        <pt x="1079" y="-83" on="0"/>
        <pt x="1122" y="-81" on="0"/>
        <pt x="1143" y="-79" on="1"/>
        <pt x="1200" y="-74" on="0"/>
        <pt x="1280" y="-25" on="0"/>
        <pt x="1334" y="51" on="0"/>
        <pt x="1363" y="149" on="0"/>
        <pt x="1368" y="203" on="1"/>
        <pt x="1372" y="250" on="0"/>
        <pt x="1363" y="328" on="0"/>
        <pt x="1339" y="385" on="0"/>
        <pt x="1302" y="416" on="0"/>
        <pt x="1278" y="416" on="1"/>
        <pt x="1245" y="416" on="0"/>
        <pt x="1202" y="357" on="0"/>
        <pt x="1197" y="306" on="1"/>
        <pt x="1168" y="0" on="1"/>
        <pt x="1067" y="0" on="1"/>
        <pt x="1096" y="306" on="1"/>
        <pt x="1101" y="357" on="0"/>
        <pt x="1072" y="416" on="0"/>
        <pt x="1033" y="416" on="1"/>
        <pt x="993" y="416" on="0"/>
        <pt x="953" y="357" on="0"/>
        <pt x="949" y="306" on="1"/>
        <pt x="920" y="0" on="1"/>
        <pt x="603" y="0" on="1"/>
        <pt x="529" y="46" on="1"/>
        <pt x="549" y="84" on="0"/>
        <pt x="573" y="168" on="0"/>
        <pt x="577" y="207" on="1"/>
        <pt x="581" y="250" on="0"/>
        <pt x="561" y="326" on="0"/>
        <pt x="515" y="383" on="0"/>
        <pt x="442" y="416" on="0"/>
        <pt x="394" y="416" on="1"/>
        <pt x="350" y="416" on="0"/>
        <pt x="269" y="385" on="0"/>
        <pt x="206" y="330" on="0"/>
        <pt x="164" y="252" on="0"/>
        <pt x="160" y="205" on="1"/>
        <pt x="155" y="160" on="0"/>
        <pt x="180" y="106" on="0"/>
        <pt x="201" y="91" on="1"/>
        <pt x="200" y="115" on="0"/>
        <pt x="205" y="167" on="0"/>
        <pt x="214" y="192" on="1"/>
        <pt x="230" y="233" on="0"/>
        <pt x="292" y="294" on="0"/>
        <pt x="338" y="301" on="1"/>
        <pt x="358" y="304" on="0"/>
        <pt x="395" y="302" on="0"/>
        <pt x="412" y="295" on="1"/>
        <pt x="451" y="282" on="0"/>
        <pt x="489" y="210" on="0"/>
        <pt x="484" y="159" on="1"/>
        <pt x="481" y="123" on="0"/>
        <pt x="446" y="61" on="0"/>
        <pt x="391" y="16" on="0"/>
        <pt x="317" y="-9" on="0"/>
        <pt x="274" y="-9" on="1"/>
        <pt x="229" y="-9" on="0"/>
        <pt x="145" y="25" on="0"/>
        <pt x="84" y="87" on="0"/>
        <pt x="51" y="173" on="0"/>
        <pt x="56" y="225" on="1"/>
        <pt x="62" y="291" on="0"/>
        <pt x="122" y="400" on="0"/>
        <pt x="216" y="477" on="0"/>
        <pt x="338" y="520" on="0"/>
        <pt x="407" y="520" on="1"/>
        <pt x="479" y="520" on="0"/>
        <pt x="588" y="472" on="0"/>
        <pt x="659" y="391" on="0"/>
        <pt x="691" y="284" on="0"/>
        <pt x="686" y="226" on="1"/>
        <pt x="682" y="192" on="0"/>
        <pt x="666" y="132" on="0"/>
        <pt x="655" y="103" on="1"/>
        <pt x="827" y="103" on="1"/>
        <pt x="846" y="306" on="1"/>
        <pt x="852" y="363" on="0"/>
        <pt x="883" y="445" on="0"/>
        <pt x="929" y="496" on="0"/>
        <pt x="990" y="520" on="0"/>
      </contour>
      <contour>
        <pt x="1789" y="350" on="1"/>
        <pt x="1785" y="284" on="0"/>
        <pt x="1832" y="284" on="1"/>
        <pt x="1855" y="284" on="0"/>
        <pt x="1891" y="323" on="0"/>
        <pt x="1894" y="357" on="1"/>
        <pt x="1901" y="422" on="0"/>
        <pt x="1830" y="422" on="1"/>
        <pt x="1796" y="422" on="1"/>
      </contour>
      <contour>
        <pt x="336" y="210" on="1"/>
        <pt x="309" y="210" on="0"/>
        <pt x="270" y="168" on="0"/>
        <pt x="262" y="139" on="1"/>
        <pt x="254" y="107" on="0"/>
        <pt x="257" y="80" on="1"/>
        <pt x="262" y="79" on="0"/>
        <pt x="273" y="78" on="0"/>
        <pt x="278" y="78" on="1"/>
        <pt x="293" y="78" on="0"/>
        <pt x="327" y="87" on="0"/>
        <pt x="356" y="106" on="0"/>
        <pt x="375" y="136" on="0"/>
        <pt x="377" y="157" on="1"/>
        <pt x="380" y="180" on="0"/>
        <pt x="359" y="210" on="0"/>
      </contour>
    </TTGlyph>
    <TTGlyph name="hvir.tam" xMin="24" yMin="-335" xMax="1493" yMax="745">
      <contour>
        <pt x="1038" y="520" on="1"/>
        <pt x="1083" y="520" on="0"/>
        <pt x="1134" y="465" on="0"/>
        <pt x="1142" y="425" on="1"/>
        <pt x="1174" y="481" on="0"/>
        <pt x="1255" y="520" on="0"/>
        <pt x="1302" y="520" on="1"/>
        <pt x="1352" y="520" on="0"/>
        <pt x="1427" y="470" on="0"/>
        <pt x="1475" y="385" on="0"/>
        <pt x="1493" y="269" on="0"/>
        <pt x="1487" y="203" on="1"/>
        <pt x="1478" y="109" on="0"/>
        <pt x="1418" y="-37" on="0"/>
        <pt x="1320" y="-136" on="0"/>
        <pt x="1190" y="-187" on="0"/>
        <pt x="1112" y="-187" on="1"/>
        <pt x="167" y="-187" on="1"/>
        <pt x="149" y="-187" on="0"/>
        <pt x="127" y="-203" on="0"/>
        <pt x="126" y="-220" on="1"/>
        <pt x="125" y="-238" on="0"/>
        <pt x="142" y="-270" on="0"/>
        <pt x="157" y="-287" on="1"/>
        <pt x="85" y="-335" on="1"/>
        <pt x="59" y="-310" on="0"/>
        <pt x="24" y="-238" on="0"/>
        <pt x="29" y="-196" on="1"/>
        <pt x="31" y="-174" on="0"/>
        <pt x="47" y="-133" on="0"/>
        <pt x="79" y="-101" on="0"/>
        <pt x="128" y="-83" on="0"/>
        <pt x="162" y="-83" on="1"/>
        <pt x="1069" y="-83" on="1"/>
        <pt x="1092" y="-83" on="0"/>
        <pt x="1135" y="-81" on="0"/>
        <pt x="1156" y="-79" on="1"/>
        <pt x="1213" y="-74" on="0"/>
        <pt x="1293" y="-25" on="0"/>
        <pt x="1347" y="51" on="0"/>
        <pt x="1376" y="149" on="0"/>
        <pt x="1381" y="203" on="1"/>
        <pt x="1385" y="250" on="0"/>
        <pt x="1376" y="328" on="0"/>
        <pt x="1352" y="385" on="0"/>
        <pt x="1315" y="416" on="0"/>
        <pt x="1291" y="416" on="1"/>
        <pt x="1258" y="416" on="0"/>
        <pt x="1215" y="357" on="0"/>
        <pt x="1210" y="306" on="1"/>
        <pt x="1181" y="0" on="1"/>
        <pt x="1080" y="0" on="1"/>
        <pt x="1109" y="306" on="1"/>
        <pt x="1114" y="357" on="0"/>
        <pt x="1085" y="416" on="0"/>
        <pt x="1046" y="416" on="1"/>
        <pt x="1006" y="416" on="0"/>
        <pt x="966" y="357" on="0"/>
        <pt x="962" y="306" on="1"/>
        <pt x="933" y="0" on="1"/>
        <pt x="616" y="0" on="1"/>
        <pt x="542" y="46" on="1"/>
        <pt x="562" y="84" on="0"/>
        <pt x="586" y="168" on="0"/>
        <pt x="590" y="207" on="1"/>
        <pt x="594" y="250" on="0"/>
        <pt x="574" y="326" on="0"/>
        <pt x="528" y="383" on="0"/>
        <pt x="455" y="416" on="0"/>
        <pt x="407" y="416" on="1"/>
        <pt x="363" y="416" on="0"/>
        <pt x="282" y="385" on="0"/>
        <pt x="219" y="330" on="0"/>
        <pt x="177" y="252" on="0"/>
        <pt x="173" y="205" on="1"/>
        <pt x="168" y="160" on="0"/>
        <pt x="193" y="106" on="0"/>
        <pt x="214" y="91" on="1"/>
        <pt x="213" y="115" on="0"/>
        <pt x="218" y="167" on="0"/>
        <pt x="227" y="192" on="1"/>
        <pt x="243" y="233" on="0"/>
        <pt x="305" y="294" on="0"/>
        <pt x="351" y="301" on="1"/>
        <pt x="392" y="309" on="0"/>
        <pt x="425" y="295" on="1"/>
        <pt x="464" y="282" on="0"/>
        <pt x="502" y="210" on="0"/>
        <pt x="497" y="159" on="1"/>
        <pt x="494" y="123" on="0"/>
        <pt x="459" y="61" on="0"/>
        <pt x="404" y="16" on="0"/>
        <pt x="330" y="-9" on="0"/>
        <pt x="287" y="-9" on="1"/>
        <pt x="242" y="-9" on="0"/>
        <pt x="158" y="25" on="0"/>
        <pt x="97" y="87" on="0"/>
        <pt x="64" y="173" on="0"/>
        <pt x="69" y="225" on="1"/>
        <pt x="75" y="291" on="0"/>
        <pt x="135" y="400" on="0"/>
        <pt x="229" y="477" on="0"/>
        <pt x="351" y="520" on="0"/>
        <pt x="420" y="520" on="1"/>
        <pt x="492" y="520" on="0"/>
        <pt x="601" y="472" on="0"/>
        <pt x="672" y="391" on="0"/>
        <pt x="704" y="284" on="0"/>
        <pt x="699" y="226" on="1"/>
        <pt x="695" y="192" on="0"/>
        <pt x="679" y="132" on="0"/>
        <pt x="668" y="103" on="1"/>
        <pt x="840" y="103" on="1"/>
        <pt x="859" y="306" on="1"/>
        <pt x="865" y="363" on="0"/>
        <pt x="896" y="445" on="0"/>
        <pt x="942" y="496" on="0"/>
        <pt x="1003" y="520" on="0"/>
      </contour>
      <contour>
        <pt x="349" y="210" on="1"/>
        <pt x="322" y="210" on="0"/>
        <pt x="283" y="168" on="0"/>
        <pt x="275" y="139" on="1"/>
        <pt x="267" y="107" on="0"/>
        <pt x="270" y="80" on="1"/>
        <pt x="275" y="79" on="0"/>
        <pt x="286" y="78" on="0"/>
        <pt x="291" y="78" on="1"/>
        <pt x="306" y="78" on="0"/>
        <pt x="340" y="87" on="0"/>
        <pt x="369" y="106" on="0"/>
        <pt x="388" y="136" on="0"/>
        <pt x="390" y="157" on="1"/>
        <pt x="393" y="180" on="0"/>
        <pt x="372" y="210" on="0"/>
      </contour>
      <contour>
        <pt x="763" y="674" on="1"/>
        <pt x="767" y="705" on="0"/>
        <pt x="806" y="745" on="0"/>
        <pt x="832" y="745" on="1"/>
        <pt x="859" y="745" on="0"/>
        <pt x="891" y="705" on="0"/>
        <pt x="888" y="674" on="1"/>
        <pt x="886" y="647" on="0"/>
        <pt x="845" y="607" on="0"/>
        <pt x="818" y="607" on="1"/>
        <pt x="793" y="607" on="0"/>
        <pt x="761" y="647" on="0"/>
      </contour>
    </TTGlyph>
    <TTGlyph name="hyphen" xMin="75" yMin="264" xMax="335" yMax="366">
      <contour>
        <pt x="335" y="366" on="1"/>
        <pt x="325" y="264" on="1"/>
        <pt x="75" y="264" on="1"/>
        <pt x="83" y="366" on="1"/>
      </contour>
    </TTGlyph>
    <TTGlyph name="i.tam" xMin="23" yMin="-260" xMax="912" yMax="746">
      <contour>
        <pt x="548" y="746" on="1"/>
        <pt x="641" y="746" on="0"/>
        <pt x="782" y="671" on="0"/>
        <pt x="874" y="542" on="0"/>
        <pt x="912" y="369" on="0"/>
        <pt x="903" y="270" on="1"/>
        <pt x="890" y="130" on="1"/>
        <pt x="805" y="130" on="1"/>
        <pt x="817" y="260" on="1"/>
        <pt x="825" y="350" on="0"/>
        <pt x="795" y="492" on="0"/>
        <pt x="723" y="591" on="0"/>
        <pt x="612" y="644" on="0"/>
        <pt x="540" y="644" on="1"/>
        <pt x="468" y="644" on="0"/>
        <pt x="345" y="595" on="0"/>
        <pt x="252" y="507" on="0"/>
        <pt x="194" y="385" on="0"/>
        <pt x="187" y="313" on="1"/>
        <pt x="184" y="278" on="0"/>
        <pt x="189" y="218" on="0"/>
        <pt x="202" y="164" on="0"/>
        <pt x="224" y="116" on="0"/>
        <pt x="237" y="92" on="1"/>
        <pt x="284" y="109" on="0"/>
        <pt x="406" y="129" on="0"/>
        <pt x="467" y="129" on="1"/>
        <pt x="502" y="129" on="0"/>
        <pt x="562" y="122" on="0"/>
        <pt x="593" y="115" on="1"/>
        <pt x="604" y="141" on="0"/>
        <pt x="619" y="200" on="0"/>
        <pt x="621" y="226" on="1"/>
        <pt x="627" y="293" on="0"/>
        <pt x="590" y="409" on="0"/>
        <pt x="545" y="440" on="1"/>
        <pt x="552" y="417" on="0"/>
        <pt x="557" y="362" on="0"/>
        <pt x="555" y="339" on="1"/>
        <pt x="552" y="311" on="0"/>
        <pt x="530" y="263" on="0"/>
        <pt x="496" y="227" on="0"/>
        <pt x="450" y="207" on="0"/>
        <pt x="422" y="207" on="1"/>
        <pt x="393" y="207" on="0"/>
        <pt x="347" y="226" on="0"/>
        <pt x="315" y="262" on="0"/>
        <pt x="300" y="313" on="0"/>
        <pt x="303" y="344" on="1"/>
        <pt x="307" y="384" on="0"/>
        <pt x="343" y="449" on="0"/>
        <pt x="397" y="493" on="0"/>
        <pt x="466" y="517" on="0"/>
        <pt x="504" y="517" on="1"/>
        <pt x="554" y="517" on="0"/>
        <pt x="633" y="472" on="0"/>
        <pt x="686" y="394" on="0"/>
        <pt x="709" y="288" on="0"/>
        <pt x="703" y="227" on="1"/>
        <pt x="697" y="159" on="0"/>
        <pt x="671" y="94" on="1"/>
        <pt x="714" y="78" on="0"/>
        <pt x="787" y="35" on="0"/>
        <pt x="839" y="-17" on="0"/>
        <pt x="865" y="-79" on="0"/>
        <pt x="862" y="-113" on="1"/>
        <pt x="859" y="-145" on="0"/>
        <pt x="832" y="-198" on="0"/>
        <pt x="787" y="-238" on="0"/>
        <pt x="726" y="-260" on="0"/>
        <pt x="691" y="-260" on="1"/>
        <pt x="631" y="-260" on="0"/>
        <pt x="507" y="-218" on="0"/>
        <pt x="441" y="-183" on="1"/>
        <pt x="384" y="-218" on="0"/>
        <pt x="262" y="-260" on="0"/>
        <pt x="193" y="-260" on="1"/>
        <pt x="153" y="-260" on="0"/>
        <pt x="89" y="-237" on="0"/>
        <pt x="44" y="-197" on="0"/>
        <pt x="23" y="-140" on="0"/>
        <pt x="26" y="-105" on="1"/>
        <pt x="31" y="-56" on="0"/>
        <pt x="101" y="27" on="0"/>
        <pt x="159" y="59" on="1"/>
        <pt x="124" y="119" on="0"/>
        <pt x="88" y="245" on="0"/>
        <pt x="95" y="318" on="1"/>
        <pt x="104" y="418" on="0"/>
        <pt x="184" y="576" on="0"/>
        <pt x="307" y="687" on="0"/>
        <pt x="463" y="746" on="0"/>
      </contour>
      <contour>
        <pt x="764" y="-106" on="1"/>
        <pt x="768" y="-69" on="0"/>
        <pt x="701" y="-3" on="0"/>
        <pt x="641" y="23" on="1"/>
        <pt x="613" y="-28" on="0"/>
        <pt x="544" y="-106" on="0"/>
        <pt x="502" y="-138" on="1"/>
        <pt x="545" y="-157" on="0"/>
        <pt x="633" y="-178" on="0"/>
        <pt x="672" y="-178" on="1"/>
        <pt x="715" y="-178" on="0"/>
        <pt x="761" y="-135" on="0"/>
      </contour>
      <contour>
        <pt x="427" y="-94" on="1"/>
        <pt x="467" y="-65" on="0"/>
        <pt x="529" y="3" on="0"/>
        <pt x="557" y="47" on="1"/>
        <pt x="528" y="52" on="0"/>
        <pt x="471" y="55" on="0"/>
        <pt x="439" y="54" on="1"/>
        <pt x="400" y="52" on="0"/>
        <pt x="318" y="40" on="0"/>
        <pt x="284" y="27" on="1"/>
        <pt x="314" y="-8" on="0"/>
        <pt x="389" y="-69" on="0"/>
      </contour>
      <contour>
        <pt x="206" y="-178" on="1"/>
        <pt x="243" y="-178" on="0"/>
        <pt x="328" y="-158" on="0"/>
        <pt x="368" y="-138" on="1"/>
        <pt x="318" y="-111" on="0"/>
        <pt x="235" y="-42" on="0"/>
        <pt x="207" y="-6" on="1"/>
        <pt x="169" y="-29" on="0"/>
        <pt x="126" y="-84" on="0"/>
        <pt x="123" y="-113" on="1"/>
        <pt x="120" y="-141" on="0"/>
        <pt x="161" y="-178" on="0"/>
      </contour>
      <contour>
        <pt x="496" y="427" on="1"/>
        <pt x="449" y="424" on="0"/>
        <pt x="385" y="382" on="0"/>
        <pt x="382" y="345" on="1"/>
        <pt x="378" y="298" on="0"/>
        <pt x="415" y="291" on="1"/>
        <pt x="424" y="288" on="0"/>
        <pt x="436" y="290" on="1"/>
        <pt x="465" y="292" on="0"/>
        <pt x="496" y="346" on="0"/>
        <pt x="498" y="391" on="1"/>
        <pt x="499" y="410" on="0"/>
      </contour>
    </TTGlyph>
    <TTGlyph name="ii.tam" xMin="83" yMin="0" xMax="700" yMax="511">
      <contour>
        <pt x="700" y="511" on="1"/>
        <pt x="689" y="408" on="1"/>
        <pt x="534" y="408" on="1"/>
        <pt x="497" y="0" on="1"/>
        <pt x="395" y="0" on="1"/>
        <pt x="433" y="408" on="1"/>
        <pt x="223" y="408" on="1"/>
        <pt x="185" y="0" on="1"/>
        <pt x="83" y="0" on="1"/>
        <pt x="132" y="511" on="1"/>
      </contour>
      <contour>
        <pt x="316" y="285" on="1"/>
        <pt x="342" y="285" on="0"/>
        <pt x="372" y="248" on="0"/>
        <pt x="369" y="220" on="1"/>
        <pt x="367" y="191" on="0"/>
        <pt x="329" y="155" on="0"/>
        <pt x="304" y="155" on="1"/>
        <pt x="278" y="155" on="0"/>
        <pt x="248" y="191" on="0"/>
        <pt x="250" y="220" on="1"/>
        <pt x="254" y="248" on="0"/>
        <pt x="290" y="285" on="0"/>
      </contour>
      <contour>
        <pt x="626" y="285" on="1"/>
        <pt x="652" y="285" on="0"/>
        <pt x="682" y="248" on="0"/>
        <pt x="679" y="220" on="1"/>
        <pt x="677" y="191" on="0"/>
        <pt x="640" y="155" on="0"/>
        <pt x="614" y="155" on="1"/>
        <pt x="588" y="155" on="0"/>
        <pt x="560" y="191" on="0"/>
        <pt x="562" y="220" on="1"/>
        <pt x="564" y="248" on="0"/>
        <pt x="600" y="285" on="0"/>
      </contour>
    </TTGlyph>
    <TTGlyph name="iimatra.alt.tam" xMin="60" yMin="488" xMax="490" yMax="855">
      <contour>
        <pt x="298" y="855" on="1"/>
        <pt x="345" y="855" on="0"/>
        <pt x="418" y="828" on="0"/>
        <pt x="466" y="783" on="0"/>
        <pt x="490" y="724" on="0"/>
        <pt x="487" y="693" on="1"/>
        <pt x="481" y="638" on="0"/>
        <pt x="403" y="567" on="0"/>
        <pt x="337" y="567" on="1"/>
        <pt x="306" y="567" on="0"/>
        <pt x="262" y="585" on="0"/>
        <pt x="235" y="615" on="0"/>
        <pt x="225" y="654" on="0"/>
        <pt x="227" y="675" on="1"/>
        <pt x="229" y="700" on="0"/>
        <pt x="253" y="748" on="0"/>
        <pt x="273" y="768" on="1"/>
        <pt x="228" y="758" on="0"/>
        <pt x="162" y="690" on="0"/>
        <pt x="157" y="638" on="1"/>
        <pt x="153" y="595" on="0"/>
        <pt x="202" y="528" on="0"/>
        <pt x="252" y="511" on="1"/>
        <pt x="184" y="488" on="1"/>
        <pt x="128" y="503" on="0"/>
        <pt x="60" y="598" on="0"/>
        <pt x="66" y="664" on="1"/>
        <pt x="70" y="705" on="0"/>
        <pt x="110" y="775" on="0"/>
        <pt x="173" y="826" on="0"/>
        <pt x="253" y="855" on="0"/>
      </contour>
      <contour>
        <pt x="318" y="773" on="1"/>
        <pt x="307" y="756" on="0"/>
        <pt x="291" y="718" on="0"/>
        <pt x="289" y="701" on="1"/>
        <pt x="287" y="675" on="0"/>
        <pt x="309" y="642" on="0"/>
        <pt x="333" y="642" on="1"/>
        <pt x="356" y="642" on="0"/>
        <pt x="387" y="673" on="0"/>
        <pt x="389" y="696" on="1"/>
        <pt x="391" y="728" on="0"/>
        <pt x="347" y="767" on="0"/>
      </contour>
    </TTGlyph>
    <TTGlyph name="iimatra.tam" xMin="72" yMin="496" xMax="498" yMax="855">
      <contour>
        <pt x="306" y="855" on="1"/>
        <pt x="353" y="855" on="0"/>
        <pt x="426" y="828" on="0"/>
        <pt x="474" y="783" on="0"/>
        <pt x="498" y="724" on="0"/>
        <pt x="495" y="693" on="1"/>
        <pt x="490" y="638" on="0"/>
        <pt x="411" y="567" on="0"/>
        <pt x="345" y="567" on="1"/>
        <pt x="314" y="567" on="0"/>
        <pt x="270" y="585" on="0"/>
        <pt x="243" y="615" on="0"/>
        <pt x="233" y="654" on="0"/>
        <pt x="235" y="675" on="1"/>
        <pt x="238" y="700" on="0"/>
        <pt x="262" y="748" on="0"/>
        <pt x="282" y="768" on="1"/>
        <pt x="237" y="758" on="0"/>
        <pt x="172" y="691" on="0"/>
        <pt x="167" y="638" on="1"/>
        <pt x="159" y="553" on="0"/>
        <pt x="248" y="510" on="1"/>
        <pt x="220" y="496" on="1"/>
        <pt x="184" y="499" on="0"/>
        <pt x="127" y="528" on="0"/>
        <pt x="89" y="573" on="0"/>
        <pt x="72" y="631" on="0"/>
        <pt x="75" y="664" on="1"/>
        <pt x="79" y="705" on="0"/>
        <pt x="118" y="775" on="0"/>
        <pt x="181" y="826" on="0"/>
        <pt x="261" y="855" on="0"/>
      </contour>
      <contour>
        <pt x="328" y="773" on="1"/>
        <pt x="317" y="756" on="0"/>
        <pt x="299" y="718" on="0"/>
        <pt x="297" y="701" on="1"/>
        <pt x="295" y="675" on="0"/>
        <pt x="318" y="642" on="0"/>
        <pt x="342" y="642" on="1"/>
        <pt x="364" y="642" on="0"/>
        <pt x="396" y="673" on="0"/>
        <pt x="398" y="696" on="1"/>
        <pt x="401" y="728" on="0"/>
        <pt x="356" y="767" on="0"/>
      </contour>
    </TTGlyph>
    <TTGlyph name="imatra.alt.tam" xMin="-220" yMin="0" xMax="195" yMax="791">
      <contour>
        <pt x="-14" y="791" on="1"/>
        <pt x="37" y="791" on="0"/>
        <pt x="118" y="752" on="0"/>
        <pt x="172" y="678" on="0"/>
        <pt x="195" y="572" on="0"/>
        <pt x="189" y="505" on="1"/>
        <pt x="141" y="0" on="1"/>
        <pt x="40" y="0" on="1"/>
        <pt x="87" y="503" on="1"/>
        <pt x="95" y="588" on="0"/>
        <pt x="42" y="683" on="0"/>
        <pt x="-15" y="683" on="1"/>
        <pt x="-56" y="683" on="0"/>
        <pt x="-113" y="627" on="0"/>
        <pt x="-118" y="583" on="1"/>
        <pt x="-124" y="525" on="0"/>
        <pt x="-84" y="485" on="1"/>
        <pt x="-102" y="485" on="1"/>
        <pt x="-126" y="489" on="0"/>
        <pt x="-170" y="515" on="0"/>
        <pt x="-203" y="556" on="0"/>
        <pt x="-220" y="607" on="0"/>
        <pt x="-217" y="636" on="1"/>
        <pt x="-210" y="705" on="0"/>
        <pt x="-102" y="791" on="0"/>
      </contour>
    </TTGlyph>
    <TTGlyph name="imatra.alt1.tam" xMin="-194" yMin="0" xMax="219" yMax="791">
      <contour>
        <pt x="14" y="791" on="1"/>
        <pt x="64" y="791" on="0"/>
        <pt x="143" y="750" on="0"/>
        <pt x="196" y="674" on="0"/>
        <pt x="219" y="565" on="0"/>
        <pt x="213" y="498" on="1"/>
        <pt x="166" y="0" on="1"/>
        <pt x="65" y="0" on="1"/>
        <pt x="112" y="498" on="1"/>
        <pt x="121" y="595" on="0"/>
        <pt x="64" y="688" on="0"/>
        <pt x="10" y="688" on="1"/>
        <pt x="-32" y="688" on="0"/>
        <pt x="-87" y="634" on="0"/>
        <pt x="-91" y="596" on="1"/>
        <pt x="-94" y="564" on="0"/>
        <pt x="-59" y="519" on="0"/>
        <pt x="-29" y="511" on="1"/>
        <pt x="-65" y="462" on="1"/>
        <pt x="-93" y="464" on="0"/>
        <pt x="-142" y="488" on="0"/>
        <pt x="-177" y="528" on="0"/>
        <pt x="-194" y="585" on="0"/>
        <pt x="-191" y="620" on="1"/>
        <pt x="-188" y="655" on="0"/>
        <pt x="-156" y="717" on="0"/>
        <pt x="-103" y="764" on="0"/>
        <pt x="-30" y="791" on="0"/>
      </contour>
    </TTGlyph>
    <TTGlyph name="imatra.alt2.tam" xMin="-352" yMin="0" xMax="210" yMax="791">
      <contour>
        <pt x="-89" y="791" on="1"/>
        <pt x="-16" y="791" on="0"/>
        <pt x="101" y="733" on="0"/>
        <pt x="177" y="626" on="0"/>
        <pt x="210" y="473" on="0"/>
        <pt x="201" y="377" on="1"/>
        <pt x="166" y="0" on="1"/>
        <pt x="65" y="0" on="1"/>
        <pt x="100" y="377" on="1"/>
        <pt x="107" y="448" on="0"/>
        <pt x="89" y="561" on="0"/>
        <pt x="40" y="641" on="0"/>
        <pt x="-38" y="683" on="0"/>
        <pt x="-91" y="683" on="1"/>
        <pt x="-124" y="683" on="0"/>
        <pt x="-181" y="665" on="0"/>
        <pt x="-223" y="634" on="0"/>
        <pt x="-249" y="589" on="0"/>
        <pt x="-252" y="562" on="1"/>
        <pt x="-257" y="521" on="0"/>
        <pt x="-236" y="486" on="1"/>
        <pt x="-256" y="486" on="1"/>
        <pt x="-278" y="489" on="0"/>
        <pt x="-315" y="511" on="0"/>
        <pt x="-340" y="544" on="0"/>
        <pt x="-352" y="587" on="0"/>
        <pt x="-349" y="613" on="1"/>
        <pt x="-346" y="647" on="0"/>
        <pt x="-310" y="711" on="0"/>
        <pt x="-245" y="761" on="0"/>
        <pt x="-151" y="791" on="0"/>
      </contour>
    </TTGlyph>
    <TTGlyph name="imatra.tam" xMin="-320" yMin="0" xMax="195" yMax="791">
      <contour>
        <pt x="-68" y="791" on="1"/>
        <pt x="5" y="791" on="0"/>
        <pt x="109" y="739" on="0"/>
        <pt x="172" y="642" on="0"/>
        <pt x="195" y="503" on="0"/>
        <pt x="187" y="416" on="1"/>
        <pt x="147" y="0" on="1"/>
        <pt x="46" y="0" on="1"/>
        <pt x="85" y="416" on="1"/>
        <pt x="92" y="489" on="0"/>
        <pt x="78" y="591" on="0"/>
        <pt x="37" y="655" on="0"/>
        <pt x="-27" y="683" on="0"/>
        <pt x="-69" y="683" on="1"/>
        <pt x="-99" y="683" on="0"/>
        <pt x="-152" y="665" on="0"/>
        <pt x="-193" y="632" on="0"/>
        <pt x="-218" y="587" on="0"/>
        <pt x="-221" y="559" on="1"/>
        <pt x="-223" y="539" on="0"/>
        <pt x="-217" y="502" on="0"/>
        <pt x="-206" y="486" on="1"/>
        <pt x="-224" y="486" on="1"/>
        <pt x="-247" y="489" on="0"/>
        <pt x="-283" y="512" on="0"/>
        <pt x="-308" y="547" on="0"/>
        <pt x="-320" y="592" on="0"/>
        <pt x="-317" y="616" on="1"/>
        <pt x="-314" y="654" on="0"/>
        <pt x="-274" y="718" on="0"/>
        <pt x="-208" y="765" on="0"/>
        <pt x="-119" y="791" on="0"/>
      </contour>
    </TTGlyph>
    <TTGlyph name="ja.tam" xMin="49" yMin="-269" xMax="778" yMax="520">
      <contour>
        <pt x="294" y="520" on="1"/>
        <pt x="357" y="520" on="0"/>
        <pt x="433" y="454" on="0"/>
        <pt x="450" y="405" on="1"/>
        <pt x="480" y="462" on="0"/>
        <pt x="569" y="520" on="0"/>
        <pt x="622" y="520" on="1"/>
        <pt x="655" y="520" on="0"/>
        <pt x="712" y="493" on="0"/>
        <pt x="754" y="444" on="0"/>
        <pt x="778" y="376" on="0"/>
        <pt x="778" y="335" on="1"/>
        <pt x="778" y="263" on="0"/>
        <pt x="721" y="150" on="0"/>
        <pt x="621" y="73" on="0"/>
        <pt x="483" y="33" on="0"/>
        <pt x="401" y="33" on="1"/>
        <pt x="283" y="33" on="1"/>
        <pt x="226" y="33" on="0"/>
        <pt x="155" y="-26" on="0"/>
        <pt x="155" y="-74" on="1"/>
        <pt x="155" y="-112" on="0"/>
        <pt x="206" y="-158" on="0"/>
        <pt x="244" y="-158" on="1"/>
        <pt x="287" y="-158" on="0"/>
        <pt x="377" y="-108" on="0"/>
        <pt x="470" y="-47" on="0"/>
        <pt x="567" y="3" on="0"/>
        <pt x="617" y="3" on="1"/>
        <pt x="650" y="3" on="0"/>
        <pt x="697" y="-15" on="0"/>
        <pt x="729" y="-45" on="0"/>
        <pt x="744" y="-86" on="0"/>
        <pt x="744" y="-109" on="1"/>
        <pt x="744" y="-169" on="0"/>
        <pt x="666" y="-252" on="0"/>
        <pt x="604" y="-269" on="1"/>
        <pt x="539" y="-217" on="1"/>
        <pt x="555" y="-213" on="0"/>
        <pt x="590" y="-198" on="0"/>
        <pt x="620" y="-176" on="0"/>
        <pt x="639" y="-147" on="0"/>
        <pt x="639" y="-129" on="1"/>
        <pt x="639" y="-113" on="0"/>
        <pt x="617" y="-91" on="0"/>
        <pt x="597" y="-91" on="1"/>
        <pt x="576" y="-91" on="0"/>
        <pt x="523" y="-116" on="0"/>
        <pt x="465" y="-154" on="0"/>
        <pt x="401" y="-197" on="0"/>
        <pt x="334" y="-235" on="0"/>
        <pt x="267" y="-260" on="0"/>
        <pt x="234" y="-260" on="1"/>
        <pt x="193" y="-260" on="0"/>
        <pt x="126" y="-235" on="0"/>
        <pt x="76" y="-189" on="0"/>
        <pt x="49" y="-125" on="0"/>
        <pt x="49" y="-86" on="1"/>
        <pt x="49" y="-37" on="0"/>
        <pt x="84" y="41" on="0"/>
        <pt x="146" y="95" on="0"/>
        <pt x="232" y="123" on="0"/>
        <pt x="283" y="123" on="1"/>
        <pt x="411" y="123" on="1"/>
        <pt x="469" y="123" on="0"/>
        <pt x="566" y="148" on="0"/>
        <pt x="634" y="201" on="0"/>
        <pt x="672" y="281" on="0"/>
        <pt x="672" y="335" on="1"/>
        <pt x="672" y="378" on="0"/>
        <pt x="639" y="421" on="0"/>
        <pt x="612" y="421" on="1"/>
        <pt x="577" y="421" on="0"/>
        <pt x="527" y="355" on="0"/>
        <pt x="521" y="291" on="1"/>
        <pt x="513" y="215" on="1"/>
        <pt x="412" y="215" on="1"/>
        <pt x="417" y="260" on="1"/>
        <pt x="420" y="291" on="0"/>
        <pt x="411" y="352" on="0"/>
        <pt x="384" y="398" on="0"/>
        <pt x="339" y="426" on="0"/>
        <pt x="305" y="426" on="1"/>
        <pt x="328" y="404" on="0"/>
        <pt x="354" y="339" on="0"/>
        <pt x="354" y="306" on="1"/>
        <pt x="354" y="279" on="0"/>
        <pt x="335" y="232" on="0"/>
        <pt x="300" y="198" on="0"/>
        <pt x="251" y="178" on="0"/>
        <pt x="222" y="178" on="1"/>
        <pt x="195" y="178" on="0"/>
        <pt x="146" y="195" on="0"/>
        <pt x="108" y="228" on="0"/>
        <pt x="86" y="277" on="0"/>
        <pt x="86" y="310" on="1"/>
        <pt x="86" y="353" on="0"/>
        <pt x="119" y="429" on="0"/>
        <pt x="176" y="486" on="0"/>
        <pt x="252" y="520" on="0"/>
      </contour>
      <contour>
        <pt x="261" y="417" on="1"/>
        <pt x="229" y="405" on="0"/>
        <pt x="184" y="349" on="0"/>
        <pt x="184" y="314" on="1"/>
        <pt x="184" y="291" on="0"/>
        <pt x="207" y="262" on="0"/>
        <pt x="230" y="262" on="1"/>
        <pt x="259" y="262" on="0"/>
        <pt x="293" y="310" on="0"/>
        <pt x="293" y="344" on="1"/>
        <pt x="293" y="363" on="0"/>
        <pt x="277" y="401" on="0"/>
      </contour>
    </TTGlyph>
    <TTGlyph name="jansv.tam" xMin="49" yMin="-269" xMax="778" yMax="840">
      <contour>
        <pt x="294" y="520" on="1"/>
        <pt x="357" y="520" on="0"/>
        <pt x="433" y="454" on="0"/>
        <pt x="450" y="405" on="1"/>
        <pt x="480" y="462" on="0"/>
        <pt x="569" y="520" on="0"/>
        <pt x="622" y="520" on="1"/>
        <pt x="655" y="520" on="0"/>
        <pt x="712" y="493" on="0"/>
        <pt x="754" y="444" on="0"/>
        <pt x="778" y="376" on="0"/>
        <pt x="778" y="335" on="1"/>
        <pt x="778" y="263" on="0"/>
        <pt x="721" y="150" on="0"/>
        <pt x="621" y="73" on="0"/>
        <pt x="483" y="33" on="0"/>
        <pt x="401" y="33" on="1"/>
        <pt x="283" y="33" on="1"/>
        <pt x="226" y="33" on="0"/>
        <pt x="155" y="-26" on="0"/>
        <pt x="155" y="-74" on="1"/>
        <pt x="155" y="-112" on="0"/>
        <pt x="206" y="-158" on="0"/>
        <pt x="244" y="-158" on="1"/>
        <pt x="287" y="-158" on="0"/>
        <pt x="377" y="-108" on="0"/>
        <pt x="470" y="-47" on="0"/>
        <pt x="567" y="3" on="0"/>
        <pt x="617" y="3" on="1"/>
        <pt x="650" y="3" on="0"/>
        <pt x="697" y="-15" on="0"/>
        <pt x="729" y="-45" on="0"/>
        <pt x="744" y="-86" on="0"/>
        <pt x="744" y="-109" on="1"/>
        <pt x="744" y="-169" on="0"/>
        <pt x="666" y="-252" on="0"/>
        <pt x="604" y="-269" on="1"/>
        <pt x="539" y="-217" on="1"/>
        <pt x="555" y="-213" on="0"/>
        <pt x="590" y="-198" on="0"/>
        <pt x="620" y="-176" on="0"/>
        <pt x="639" y="-147" on="0"/>
        <pt x="639" y="-129" on="1"/>
        <pt x="639" y="-113" on="0"/>
        <pt x="617" y="-91" on="0"/>
        <pt x="597" y="-91" on="1"/>
        <pt x="576" y="-91" on="0"/>
        <pt x="523" y="-116" on="0"/>
        <pt x="465" y="-154" on="0"/>
        <pt x="401" y="-197" on="0"/>
        <pt x="334" y="-235" on="0"/>
        <pt x="267" y="-260" on="0"/>
        <pt x="234" y="-260" on="1"/>
        <pt x="193" y="-260" on="0"/>
        <pt x="126" y="-235" on="0"/>
        <pt x="76" y="-189" on="0"/>
        <pt x="49" y="-125" on="0"/>
        <pt x="49" y="-86" on="1"/>
        <pt x="49" y="-37" on="0"/>
        <pt x="84" y="41" on="0"/>
        <pt x="146" y="95" on="0"/>
        <pt x="232" y="123" on="0"/>
        <pt x="283" y="123" on="1"/>
        <pt x="411" y="123" on="1"/>
        <pt x="469" y="123" on="0"/>
        <pt x="566" y="148" on="0"/>
        <pt x="634" y="201" on="0"/>
        <pt x="672" y="281" on="0"/>
        <pt x="672" y="335" on="1"/>
        <pt x="672" y="378" on="0"/>
        <pt x="639" y="421" on="0"/>
        <pt x="612" y="421" on="1"/>
        <pt x="577" y="421" on="0"/>
        <pt x="527" y="355" on="0"/>
        <pt x="521" y="291" on="1"/>
        <pt x="513" y="215" on="1"/>
        <pt x="412" y="215" on="1"/>
        <pt x="417" y="260" on="1"/>
        <pt x="420" y="291" on="0"/>
        <pt x="411" y="352" on="0"/>
        <pt x="384" y="398" on="0"/>
        <pt x="339" y="426" on="0"/>
        <pt x="305" y="426" on="1"/>
        <pt x="328" y="404" on="0"/>
        <pt x="354" y="339" on="0"/>
        <pt x="354" y="306" on="1"/>
        <pt x="354" y="279" on="0"/>
        <pt x="335" y="232" on="0"/>
        <pt x="300" y="198" on="0"/>
        <pt x="251" y="178" on="0"/>
        <pt x="222" y="178" on="1"/>
        <pt x="195" y="178" on="0"/>
        <pt x="146" y="195" on="0"/>
        <pt x="108" y="228" on="0"/>
        <pt x="86" y="277" on="0"/>
        <pt x="86" y="310" on="1"/>
        <pt x="86" y="353" on="0"/>
        <pt x="119" y="429" on="0"/>
        <pt x="176" y="486" on="0"/>
        <pt x="252" y="520" on="0"/>
      </contour>
      <contour>
        <pt x="261" y="417" on="1"/>
        <pt x="229" y="405" on="0"/>
        <pt x="184" y="349" on="0"/>
        <pt x="184" y="314" on="1"/>
        <pt x="184" y="291" on="0"/>
        <pt x="207" y="262" on="0"/>
        <pt x="230" y="262" on="1"/>
        <pt x="259" y="262" on="0"/>
        <pt x="293" y="310" on="0"/>
        <pt x="293" y="344" on="1"/>
        <pt x="293" y="363" on="0"/>
        <pt x="277" y="401" on="0"/>
      </contour>
      <contour>
        <pt x="492" y="840" on="1"/>
        <pt x="550" y="840" on="0"/>
        <pt x="614" y="774" on="0"/>
        <pt x="608" y="716" on="1"/>
        <pt x="603" y="659" on="0"/>
        <pt x="526" y="593" on="0"/>
        <pt x="469" y="593" on="1"/>
        <pt x="412" y="593" on="0"/>
        <pt x="348" y="659" on="0"/>
        <pt x="353" y="716" on="1"/>
        <pt x="359" y="774" on="0"/>
        <pt x="435" y="840" on="0"/>
      </contour>
      <contour>
        <pt x="485" y="763" on="1"/>
        <pt x="467" y="763" on="0"/>
        <pt x="445" y="737" on="0"/>
        <pt x="443" y="716" on="1"/>
        <pt x="438" y="672" on="0"/>
        <pt x="476" y="672" on="1"/>
        <pt x="514" y="672" on="0"/>
        <pt x="519" y="716" on="1"/>
        <pt x="521" y="737" on="0"/>
        <pt x="503" y="763" on="0"/>
      </contour>
    </TTGlyph>
    <TTGlyph name="ji.tam" xMin="48" yMin="-269" xMax="995" yMax="791">
      <contour>
        <pt x="786" y="791" on="1"/>
        <pt x="837" y="791" on="0"/>
        <pt x="918" y="752" on="0"/>
        <pt x="972" y="678" on="0"/>
        <pt x="995" y="572" on="0"/>
        <pt x="989" y="505" on="1"/>
        <pt x="941" y="0" on="1"/>
        <pt x="840" y="0" on="1"/>
        <pt x="887" y="503" on="1"/>
        <pt x="895" y="588" on="0"/>
        <pt x="842" y="683" on="0"/>
        <pt x="785" y="683" on="1"/>
        <pt x="744" y="683" on="0"/>
        <pt x="687" y="627" on="0"/>
        <pt x="682" y="583" on="1"/>
        <pt x="676" y="525" on="0"/>
        <pt x="716" y="485" on="1"/>
        <pt x="744" y="460" on="0"/>
        <pt x="777" y="383" on="0"/>
        <pt x="777" y="335" on="1"/>
        <pt x="777" y="263" on="0"/>
        <pt x="720" y="150" on="0"/>
        <pt x="620" y="73" on="0"/>
        <pt x="482" y="33" on="0"/>
        <pt x="400" y="33" on="1"/>
        <pt x="282" y="33" on="1"/>
        <pt x="225" y="33" on="0"/>
        <pt x="154" y="-26" on="0"/>
        <pt x="154" y="-74" on="1"/>
        <pt x="154" y="-112" on="0"/>
        <pt x="205" y="-158" on="0"/>
        <pt x="243" y="-158" on="1"/>
        <pt x="286" y="-158" on="0"/>
        <pt x="376" y="-108" on="0"/>
        <pt x="469" y="-47" on="0"/>
        <pt x="566" y="3" on="0"/>
        <pt x="616" y="3" on="1"/>
        <pt x="649" y="3" on="0"/>
        <pt x="696" y="-15" on="0"/>
        <pt x="728" y="-45" on="0"/>
        <pt x="743" y="-86" on="0"/>
        <pt x="743" y="-109" on="1"/>
        <pt x="743" y="-169" on="0"/>
        <pt x="665" y="-252" on="0"/>
        <pt x="603" y="-269" on="1"/>
        <pt x="538" y="-217" on="1"/>
        <pt x="554" y="-213" on="0"/>
        <pt x="589" y="-198" on="0"/>
        <pt x="619" y="-176" on="0"/>
        <pt x="638" y="-147" on="0"/>
        <pt x="638" y="-129" on="1"/>
        <pt x="638" y="-113" on="0"/>
        <pt x="616" y="-91" on="0"/>
        <pt x="596" y="-91" on="1"/>
        <pt x="575" y="-91" on="0"/>
        <pt x="522" y="-116" on="0"/>
        <pt x="464" y="-154" on="0"/>
        <pt x="400" y="-197" on="0"/>
        <pt x="334" y="-235" on="0"/>
        <pt x="266" y="-260" on="0"/>
        <pt x="233" y="-260" on="1"/>
        <pt x="192" y="-260" on="0"/>
        <pt x="125" y="-235" on="0"/>
        <pt x="75" y="-189" on="0"/>
        <pt x="48" y="-125" on="0"/>
        <pt x="48" y="-86" on="1"/>
        <pt x="48" y="-37" on="0"/>
        <pt x="83" y="41" on="0"/>
        <pt x="145" y="95" on="0"/>
        <pt x="231" y="123" on="0"/>
        <pt x="282" y="123" on="1"/>
        <pt x="410" y="123" on="1"/>
        <pt x="468" y="123" on="0"/>
        <pt x="565" y="148" on="0"/>
        <pt x="633" y="201" on="0"/>
        <pt x="671" y="281" on="0"/>
        <pt x="671" y="335" on="1"/>
        <pt x="671" y="378" on="0"/>
        <pt x="638" y="421" on="0"/>
        <pt x="611" y="421" on="1"/>
        <pt x="576" y="421" on="0"/>
        <pt x="526" y="355" on="0"/>
        <pt x="520" y="291" on="1"/>
        <pt x="512" y="215" on="1"/>
        <pt x="411" y="215" on="1"/>
        <pt x="416" y="260" on="1"/>
        <pt x="419" y="291" on="0"/>
        <pt x="410" y="352" on="0"/>
        <pt x="383" y="398" on="0"/>
        <pt x="338" y="426" on="0"/>
        <pt x="304" y="426" on="1"/>
        <pt x="327" y="404" on="0"/>
        <pt x="353" y="339" on="0"/>
        <pt x="353" y="306" on="1"/>
        <pt x="353" y="279" on="0"/>
        <pt x="334" y="232" on="0"/>
        <pt x="299" y="198" on="0"/>
        <pt x="250" y="178" on="0"/>
        <pt x="221" y="178" on="1"/>
        <pt x="194" y="178" on="0"/>
        <pt x="145" y="195" on="0"/>
        <pt x="107" y="228" on="0"/>
        <pt x="85" y="277" on="0"/>
        <pt x="85" y="310" on="1"/>
        <pt x="85" y="353" on="0"/>
        <pt x="118" y="429" on="0"/>
        <pt x="175" y="486" on="0"/>
        <pt x="251" y="520" on="0"/>
        <pt x="293" y="520" on="1"/>
        <pt x="356" y="520" on="0"/>
        <pt x="432" y="454" on="0"/>
        <pt x="449" y="405" on="1"/>
        <pt x="479" y="462" on="0"/>
        <pt x="568" y="520" on="0"/>
        <pt x="621" y="520" on="1"/>
        <pt x="628" y="520" on="1"/>
        <pt x="605" y="541" on="0"/>
        <pt x="579" y="601" on="0"/>
        <pt x="583" y="636" on="1"/>
        <pt x="590" y="705" on="0"/>
        <pt x="698" y="791" on="0"/>
      </contour>
      <contour>
        <pt x="260" y="417" on="1"/>
        <pt x="228" y="405" on="0"/>
        <pt x="183" y="349" on="0"/>
        <pt x="183" y="314" on="1"/>
        <pt x="183" y="291" on="0"/>
        <pt x="206" y="262" on="0"/>
        <pt x="229" y="262" on="1"/>
        <pt x="258" y="262" on="0"/>
        <pt x="292" y="310" on="0"/>
        <pt x="292" y="344" on="1"/>
        <pt x="292" y="363" on="0"/>
        <pt x="276" y="401" on="0"/>
      </contour>
    </TTGlyph>
    <TTGlyph name="jii.tam" xMin="49" yMin="-269" xMax="909" yMax="855">
      <contour>
        <pt x="717" y="855" on="1"/>
        <pt x="764" y="855" on="0"/>
        <pt x="837" y="828" on="0"/>
        <pt x="885" y="783" on="0"/>
        <pt x="909" y="724" on="0"/>
        <pt x="906" y="693" on="1"/>
        <pt x="900" y="638" on="0"/>
        <pt x="822" y="567" on="0"/>
        <pt x="756" y="567" on="1"/>
        <pt x="725" y="567" on="0"/>
        <pt x="681" y="585" on="0"/>
        <pt x="654" y="615" on="0"/>
        <pt x="644" y="654" on="0"/>
        <pt x="646" y="675" on="1"/>
        <pt x="648" y="700" on="0"/>
        <pt x="672" y="748" on="0"/>
        <pt x="692" y="768" on="1"/>
        <pt x="647" y="758" on="0"/>
        <pt x="581" y="690" on="0"/>
        <pt x="576" y="638" on="1"/>
        <pt x="572" y="597" on="0"/>
        <pt x="615" y="533" on="0"/>
        <pt x="660" y="515" on="1"/>
        <pt x="712" y="501" on="0"/>
        <pt x="778" y="405" on="0"/>
        <pt x="778" y="335" on="1"/>
        <pt x="778" y="263" on="0"/>
        <pt x="721" y="150" on="0"/>
        <pt x="621" y="73" on="0"/>
        <pt x="483" y="33" on="0"/>
        <pt x="401" y="33" on="1"/>
        <pt x="283" y="33" on="1"/>
        <pt x="226" y="33" on="0"/>
        <pt x="155" y="-26" on="0"/>
        <pt x="155" y="-74" on="1"/>
        <pt x="155" y="-112" on="0"/>
        <pt x="206" y="-158" on="0"/>
        <pt x="244" y="-158" on="1"/>
        <pt x="287" y="-158" on="0"/>
        <pt x="377" y="-108" on="0"/>
        <pt x="470" y="-47" on="0"/>
        <pt x="567" y="3" on="0"/>
        <pt x="617" y="3" on="1"/>
        <pt x="650" y="3" on="0"/>
        <pt x="697" y="-15" on="0"/>
        <pt x="729" y="-45" on="0"/>
        <pt x="744" y="-86" on="0"/>
        <pt x="744" y="-109" on="1"/>
        <pt x="744" y="-169" on="0"/>
        <pt x="666" y="-252" on="0"/>
        <pt x="604" y="-269" on="1"/>
        <pt x="539" y="-217" on="1"/>
        <pt x="555" y="-213" on="0"/>
        <pt x="590" y="-198" on="0"/>
        <pt x="620" y="-176" on="0"/>
        <pt x="639" y="-147" on="0"/>
        <pt x="639" y="-129" on="1"/>
        <pt x="639" y="-113" on="0"/>
        <pt x="617" y="-91" on="0"/>
        <pt x="597" y="-91" on="1"/>
        <pt x="576" y="-91" on="0"/>
        <pt x="523" y="-116" on="0"/>
        <pt x="465" y="-154" on="0"/>
        <pt x="401" y="-197" on="0"/>
        <pt x="334" y="-235" on="0"/>
        <pt x="267" y="-260" on="0"/>
        <pt x="234" y="-260" on="1"/>
        <pt x="193" y="-260" on="0"/>
        <pt x="126" y="-235" on="0"/>
        <pt x="76" y="-189" on="0"/>
        <pt x="49" y="-125" on="0"/>
        <pt x="49" y="-86" on="1"/>
        <pt x="49" y="-37" on="0"/>
        <pt x="84" y="41" on="0"/>
        <pt x="146" y="95" on="0"/>
        <pt x="232" y="123" on="0"/>
        <pt x="283" y="123" on="1"/>
        <pt x="411" y="123" on="1"/>
        <pt x="469" y="123" on="0"/>
        <pt x="566" y="148" on="0"/>
        <pt x="634" y="201" on="0"/>
        <pt x="672" y="281" on="0"/>
        <pt x="672" y="335" on="1"/>
        <pt x="672" y="378" on="0"/>
        <pt x="639" y="421" on="0"/>
        <pt x="612" y="421" on="1"/>
        <pt x="577" y="421" on="0"/>
        <pt x="527" y="355" on="0"/>
        <pt x="521" y="291" on="1"/>
        <pt x="513" y="215" on="1"/>
        <pt x="412" y="215" on="1"/>
        <pt x="417" y="260" on="1"/>
        <pt x="420" y="291" on="0"/>
        <pt x="411" y="352" on="0"/>
        <pt x="384" y="398" on="0"/>
        <pt x="339" y="426" on="0"/>
        <pt x="305" y="426" on="1"/>
        <pt x="328" y="404" on="0"/>
        <pt x="354" y="339" on="0"/>
        <pt x="354" y="306" on="1"/>
        <pt x="354" y="279" on="0"/>
        <pt x="335" y="232" on="0"/>
        <pt x="300" y="198" on="0"/>
        <pt x="251" y="178" on="0"/>
        <pt x="222" y="178" on="1"/>
        <pt x="195" y="178" on="0"/>
        <pt x="146" y="195" on="0"/>
        <pt x="108" y="228" on="0"/>
        <pt x="86" y="277" on="0"/>
        <pt x="86" y="310" on="1"/>
        <pt x="86" y="353" on="0"/>
        <pt x="119" y="429" on="0"/>
        <pt x="176" y="486" on="0"/>
        <pt x="252" y="520" on="0"/>
        <pt x="294" y="520" on="1"/>
        <pt x="357" y="520" on="0"/>
        <pt x="433" y="454" on="0"/>
        <pt x="450" y="405" on="1"/>
        <pt x="491" y="482" on="0"/>
        <pt x="557" y="508" on="1"/>
        <pt x="521" y="531" on="0"/>
        <pt x="480" y="613" on="0"/>
        <pt x="485" y="664" on="1"/>
        <pt x="489" y="705" on="0"/>
        <pt x="529" y="775" on="0"/>
        <pt x="592" y="826" on="0"/>
        <pt x="672" y="855" on="0"/>
      </contour>
      <contour>
        <pt x="261" y="417" on="1"/>
        <pt x="229" y="405" on="0"/>
        <pt x="184" y="349" on="0"/>
        <pt x="184" y="314" on="1"/>
        <pt x="184" y="291" on="0"/>
        <pt x="207" y="262" on="0"/>
        <pt x="230" y="262" on="1"/>
        <pt x="259" y="262" on="0"/>
        <pt x="293" y="310" on="0"/>
        <pt x="293" y="344" on="1"/>
        <pt x="293" y="363" on="0"/>
        <pt x="277" y="401" on="0"/>
      </contour>
      <contour>
        <pt x="737" y="773" on="1"/>
        <pt x="726" y="756" on="0"/>
        <pt x="710" y="718" on="0"/>
        <pt x="708" y="701" on="1"/>
        <pt x="706" y="675" on="0"/>
        <pt x="728" y="642" on="0"/>
        <pt x="752" y="642" on="1"/>
        <pt x="775" y="642" on="0"/>
        <pt x="806" y="673" on="0"/>
        <pt x="808" y="696" on="1"/>
        <pt x="810" y="728" on="0"/>
        <pt x="766" y="767" on="0"/>
      </contour>
    </TTGlyph>
    <TTGlyph name="ju.tam" xMin="46" yMin="-269" xMax="1194" yMax="520">
      <contour>
        <pt x="294" y="520" on="1"/>
        <pt x="357" y="520" on="0"/>
        <pt x="433" y="454" on="0"/>
        <pt x="450" y="405" on="1"/>
        <pt x="480" y="462" on="0"/>
        <pt x="569" y="520" on="0"/>
        <pt x="622" y="520" on="1"/>
        <pt x="649" y="520" on="0"/>
        <pt x="672" y="511" on="1"/>
        <pt x="1033" y="511" on="1"/>
        <pt x="1070" y="511" on="0"/>
        <pt x="1131" y="492" on="0"/>
        <pt x="1173" y="453" on="0"/>
        <pt x="1194" y="395" on="0"/>
        <pt x="1191" y="357" on="1"/>
        <pt x="1188" y="322" on="0"/>
        <pt x="1161" y="263" on="0"/>
        <pt x="1118" y="220" on="0"/>
        <pt x="1060" y="195" on="0"/>
        <pt x="1025" y="195" on="1"/>
        <pt x="991" y="195" on="0"/>
        <pt x="938" y="220" on="0"/>
        <pt x="903" y="265" on="0"/>
        <pt x="888" y="327" on="0"/>
        <pt x="891" y="363" on="1"/>
        <pt x="896" y="422" on="1"/>
        <pt x="761" y="422" on="1"/>
        <pt x="783" y="370" on="0"/>
        <pt x="777" y="307" on="1"/>
        <pt x="771" y="238" on="0"/>
        <pt x="712" y="135" on="0"/>
        <pt x="618" y="67" on="0"/>
        <pt x="496" y="33" on="0"/>
        <pt x="427" y="33" on="1"/>
        <pt x="262" y="33" on="1"/>
        <pt x="222" y="33" on="0"/>
        <pt x="161" y="-18" on="0"/>
        <pt x="156" y="-62" on="1"/>
        <pt x="154" y="-84" on="0"/>
        <pt x="165" y="-119" on="0"/>
        <pt x="189" y="-144" on="0"/>
        <pt x="224" y="-158" on="0"/>
        <pt x="244" y="-158" on="1"/>
        <pt x="287" y="-158" on="0"/>
        <pt x="377" y="-108" on="0"/>
        <pt x="470" y="-47" on="0"/>
        <pt x="567" y="3" on="0"/>
        <pt x="617" y="3" on="1"/>
        <pt x="652" y="3" on="0"/>
        <pt x="702" y="-18" on="0"/>
        <pt x="733" y="-52" on="0"/>
        <pt x="745" y="-98" on="0"/>
        <pt x="743" y="-123" on="1"/>
        <pt x="738" y="-176" on="0"/>
        <pt x="670" y="-251" on="0"/>
        <pt x="604" y="-269" on="1"/>
        <pt x="539" y="-217" on="1"/>
        <pt x="583" y="-203" on="0"/>
        <pt x="635" y="-163" on="0"/>
        <pt x="639" y="-134" on="1"/>
        <pt x="640" y="-115" on="0"/>
        <pt x="617" y="-91" on="0"/>
        <pt x="597" y="-91" on="1"/>
        <pt x="576" y="-91" on="0"/>
        <pt x="523" y="-116" on="0"/>
        <pt x="465" y="-154" on="0"/>
        <pt x="401" y="-197" on="0"/>
        <pt x="334" y="-235" on="0"/>
        <pt x="267" y="-260" on="0"/>
        <pt x="234" y="-260" on="1"/>
        <pt x="190" y="-260" on="0"/>
        <pt x="118" y="-231" on="0"/>
        <pt x="69" y="-179" on="0"/>
        <pt x="46" y="-106" on="0"/>
        <pt x="50" y="-62" on="1"/>
        <pt x="54" y="-17" on="0"/>
        <pt x="91" y="52" on="0"/>
        <pt x="149" y="99" on="0"/>
        <pt x="226" y="123" on="0"/>
        <pt x="271" y="123" on="1"/>
        <pt x="436" y="123" on="1"/>
        <pt x="539" y="123" on="0"/>
        <pt x="662" y="223" on="0"/>
        <pt x="671" y="314" on="1"/>
        <pt x="676" y="367" on="0"/>
        <pt x="642" y="421" on="0"/>
        <pt x="612" y="421" on="1"/>
        <pt x="577" y="421" on="0"/>
        <pt x="527" y="355" on="0"/>
        <pt x="521" y="291" on="1"/>
        <pt x="513" y="204" on="1"/>
        <pt x="412" y="204" on="1"/>
        <pt x="417" y="260" on="1"/>
        <pt x="422" y="314" on="0"/>
        <pt x="391" y="394" on="0"/>
        <pt x="356" y="408" on="1"/>
        <pt x="345" y="417" on="0"/>
        <pt x="316" y="424" on="0"/>
        <pt x="305" y="426" on="1"/>
        <pt x="331" y="402" on="0"/>
        <pt x="356" y="329" on="0"/>
        <pt x="353" y="294" on="1"/>
        <pt x="351" y="270" on="0"/>
        <pt x="332" y="228" on="0"/>
        <pt x="300" y="197" on="0"/>
        <pt x="253" y="178" on="0"/>
        <pt x="222" y="178" on="1"/>
        <pt x="193" y="178" on="0"/>
        <pt x="140" y="198" on="0"/>
        <pt x="103" y="237" on="0"/>
        <pt x="83" y="295" on="0"/>
        <pt x="87" y="333" on="1"/>
        <pt x="91" y="375" on="0"/>
        <pt x="131" y="444" on="0"/>
        <pt x="190" y="493" on="0"/>
        <pt x="260" y="520" on="0"/>
      </contour>
      <contour>
        <pt x="261" y="417" on="1"/>
        <pt x="232" y="405" on="0"/>
        <pt x="193" y="363" on="0"/>
        <pt x="186" y="333" on="1"/>
        <pt x="183" y="320" on="0"/>
        <pt x="185" y="306" on="1"/>
        <pt x="186" y="284" on="0"/>
        <pt x="211" y="262" on="0"/>
        <pt x="230" y="262" on="1"/>
        <pt x="257" y="262" on="0"/>
        <pt x="289" y="301" on="0"/>
        <pt x="292" y="330" on="1"/>
        <pt x="294" y="355" on="0"/>
        <pt x="278" y="400" on="0"/>
      </contour>
      <contour>
        <pt x="989" y="422" on="1"/>
        <pt x="983" y="350" on="1"/>
        <pt x="980" y="318" on="0"/>
        <pt x="1003" y="284" on="0"/>
        <pt x="1026" y="284" on="1"/>
        <pt x="1049" y="284" on="0"/>
        <pt x="1084" y="323" on="0"/>
        <pt x="1088" y="357" on="1"/>
        <pt x="1094" y="422" on="0"/>
        <pt x="1024" y="422" on="1"/>
      </contour>
    </TTGlyph>
    <TTGlyph name="juu.tam" xMin="49" yMin="-269" xMax="1466" yMax="676">
      <contour>
        <pt x="1221" y="676" on="1"/>
        <pt x="1277" y="676" on="0"/>
        <pt x="1371" y="631" on="0"/>
        <pt x="1436" y="547" on="0"/>
        <pt x="1466" y="430" on="0"/>
        <pt x="1459" y="358" on="1"/>
        <pt x="1452" y="284" on="0"/>
        <pt x="1402" y="156" on="0"/>
        <pt x="1315" y="62" on="0"/>
        <pt x="1193" y="8" on="0"/>
        <pt x="1114" y="8" on="1"/>
        <pt x="1009" y="8" on="0"/>
        <pt x="859" y="122" on="0"/>
        <pt x="824" y="228" on="1"/>
        <pt x="899" y="282" on="1"/>
        <pt x="914" y="235" on="0"/>
        <pt x="956" y="169" on="0"/>
        <pt x="1010" y="129" on="0"/>
        <pt x="1076" y="111" on="0"/>
        <pt x="1115" y="111" on="1"/>
        <pt x="1168" y="111" on="0"/>
        <pt x="1254" y="147" on="0"/>
        <pt x="1315" y="212" on="0"/>
        <pt x="1352" y="303" on="0"/>
        <pt x="1357" y="358" on="1"/>
        <pt x="1362" y="408" on="0"/>
        <pt x="1344" y="488" on="0"/>
        <pt x="1304" y="543" on="0"/>
        <pt x="1246" y="573" on="0"/>
        <pt x="1212" y="573" on="1"/>
        <pt x="1175" y="573" on="0"/>
        <pt x="1111" y="540" on="0"/>
        <pt x="1087" y="511" on="1"/>
        <pt x="1128" y="511" on="1"/>
        <pt x="1202" y="511" on="0"/>
        <pt x="1288" y="433" on="0"/>
        <pt x="1281" y="357" on="1"/>
        <pt x="1278" y="322" on="0"/>
        <pt x="1252" y="263" on="0"/>
        <pt x="1209" y="220" on="0"/>
        <pt x="1151" y="195" on="0"/>
        <pt x="1116" y="195" on="1"/>
        <pt x="1081" y="195" on="0"/>
        <pt x="1028" y="220" on="0"/>
        <pt x="993" y="265" on="0"/>
        <pt x="978" y="327" on="0"/>
        <pt x="982" y="363" on="1"/>
        <pt x="985" y="408" on="1"/>
        <pt x="766" y="408" on="1"/>
        <pt x="778" y="375" on="0"/>
        <pt x="778" y="335" on="1"/>
        <pt x="778" y="263" on="0"/>
        <pt x="721" y="150" on="0"/>
        <pt x="621" y="73" on="0"/>
        <pt x="483" y="33" on="0"/>
        <pt x="401" y="33" on="1"/>
        <pt x="283" y="33" on="1"/>
        <pt x="226" y="33" on="0"/>
        <pt x="155" y="-26" on="0"/>
        <pt x="155" y="-74" on="1"/>
        <pt x="155" y="-112" on="0"/>
        <pt x="206" y="-158" on="0"/>
        <pt x="244" y="-158" on="1"/>
        <pt x="287" y="-158" on="0"/>
        <pt x="377" y="-108" on="0"/>
        <pt x="470" y="-47" on="0"/>
        <pt x="567" y="3" on="0"/>
        <pt x="617" y="3" on="1"/>
        <pt x="650" y="3" on="0"/>
        <pt x="697" y="-15" on="0"/>
        <pt x="729" y="-45" on="0"/>
        <pt x="744" y="-86" on="0"/>
        <pt x="744" y="-109" on="1"/>
        <pt x="744" y="-169" on="0"/>
        <pt x="666" y="-252" on="0"/>
        <pt x="604" y="-269" on="1"/>
        <pt x="539" y="-217" on="1"/>
        <pt x="555" y="-213" on="0"/>
        <pt x="590" y="-198" on="0"/>
        <pt x="620" y="-176" on="0"/>
        <pt x="639" y="-147" on="0"/>
        <pt x="639" y="-129" on="1"/>
        <pt x="639" y="-113" on="0"/>
        <pt x="617" y="-91" on="0"/>
        <pt x="597" y="-91" on="1"/>
        <pt x="576" y="-91" on="0"/>
        <pt x="523" y="-116" on="0"/>
        <pt x="465" y="-154" on="0"/>
        <pt x="401" y="-197" on="0"/>
        <pt x="334" y="-235" on="0"/>
        <pt x="267" y="-260" on="0"/>
        <pt x="234" y="-260" on="1"/>
        <pt x="193" y="-260" on="0"/>
        <pt x="126" y="-235" on="0"/>
        <pt x="76" y="-189" on="0"/>
        <pt x="49" y="-125" on="0"/>
        <pt x="49" y="-86" on="1"/>
        <pt x="49" y="-37" on="0"/>
        <pt x="84" y="41" on="0"/>
        <pt x="146" y="95" on="0"/>
        <pt x="232" y="123" on="0"/>
        <pt x="283" y="123" on="1"/>
        <pt x="411" y="123" on="1"/>
        <pt x="469" y="123" on="0"/>
        <pt x="566" y="148" on="0"/>
        <pt x="634" y="201" on="0"/>
        <pt x="672" y="281" on="0"/>
        <pt x="672" y="335" on="1"/>
        <pt x="672" y="378" on="0"/>
        <pt x="639" y="421" on="0"/>
        <pt x="612" y="421" on="1"/>
        <pt x="577" y="421" on="0"/>
        <pt x="527" y="355" on="0"/>
        <pt x="521" y="291" on="1"/>
        <pt x="513" y="215" on="1"/>
        <pt x="412" y="215" on="1"/>
        <pt x="417" y="260" on="1"/>
        <pt x="420" y="291" on="0"/>
        <pt x="411" y="352" on="0"/>
        <pt x="384" y="398" on="0"/>
        <pt x="339" y="426" on="0"/>
        <pt x="305" y="426" on="1"/>
        <pt x="328" y="404" on="0"/>
        <pt x="354" y="339" on="0"/>
        <pt x="354" y="306" on="1"/>
        <pt x="354" y="279" on="0"/>
        <pt x="335" y="232" on="0"/>
        <pt x="300" y="198" on="0"/>
        <pt x="251" y="178" on="0"/>
        <pt x="222" y="178" on="1"/>
        <pt x="195" y="178" on="0"/>
        <pt x="146" y="195" on="0"/>
        <pt x="108" y="228" on="0"/>
        <pt x="86" y="277" on="0"/>
        <pt x="86" y="310" on="1"/>
        <pt x="86" y="353" on="0"/>
        <pt x="119" y="429" on="0"/>
        <pt x="176" y="486" on="0"/>
        <pt x="252" y="520" on="0"/>
        <pt x="294" y="520" on="1"/>
        <pt x="357" y="520" on="0"/>
        <pt x="433" y="454" on="0"/>
        <pt x="450" y="405" on="1"/>
        <pt x="480" y="462" on="0"/>
        <pt x="569" y="520" on="0"/>
        <pt x="622" y="520" on="1"/>
        <pt x="636" y="520" on="0"/>
        <pt x="661" y="515" on="0"/>
        <pt x="672" y="511" on="1"/>
        <pt x="1000" y="511" on="1"/>
        <pt x="1013" y="550" on="0"/>
        <pt x="1057" y="611" on="0"/>
        <pt x="1115" y="654" on="0"/>
        <pt x="1183" y="676" on="0"/>
      </contour>
      <contour>
        <pt x="261" y="417" on="1"/>
        <pt x="229" y="405" on="0"/>
        <pt x="184" y="349" on="0"/>
        <pt x="184" y="314" on="1"/>
        <pt x="184" y="291" on="0"/>
        <pt x="207" y="262" on="0"/>
        <pt x="230" y="262" on="1"/>
        <pt x="259" y="262" on="0"/>
        <pt x="293" y="310" on="0"/>
        <pt x="293" y="344" on="1"/>
        <pt x="293" y="363" on="0"/>
        <pt x="277" y="401" on="0"/>
      </contour>
      <contour>
        <pt x="1074" y="350" on="1"/>
        <pt x="1071" y="316" on="0"/>
        <pt x="1093" y="284" on="0"/>
        <pt x="1116" y="284" on="1"/>
        <pt x="1140" y="284" on="0"/>
        <pt x="1174" y="323" on="0"/>
        <pt x="1177" y="356" on="1"/>
        <pt x="1180" y="387" on="0"/>
        <pt x="1151" y="414" on="0"/>
        <pt x="1119" y="414" on="1"/>
        <pt x="1079" y="414" on="1"/>
      </contour>
    </TTGlyph>
    <TTGlyph name="jvir.tam" xMin="49" yMin="-269" xMax="778" yMax="745">
      <contour>
        <pt x="294" y="520" on="1"/>
        <pt x="357" y="520" on="0"/>
        <pt x="433" y="454" on="0"/>
        <pt x="450" y="405" on="1"/>
        <pt x="480" y="462" on="0"/>
        <pt x="569" y="520" on="0"/>
        <pt x="622" y="520" on="1"/>
        <pt x="655" y="520" on="0"/>
        <pt x="712" y="493" on="0"/>
        <pt x="754" y="444" on="0"/>
        <pt x="778" y="376" on="0"/>
        <pt x="778" y="335" on="1"/>
        <pt x="778" y="263" on="0"/>
        <pt x="721" y="150" on="0"/>
        <pt x="621" y="73" on="0"/>
        <pt x="483" y="33" on="0"/>
        <pt x="401" y="33" on="1"/>
        <pt x="283" y="33" on="1"/>
        <pt x="226" y="33" on="0"/>
        <pt x="155" y="-26" on="0"/>
        <pt x="155" y="-74" on="1"/>
        <pt x="155" y="-112" on="0"/>
        <pt x="206" y="-158" on="0"/>
        <pt x="244" y="-158" on="1"/>
        <pt x="287" y="-158" on="0"/>
        <pt x="377" y="-108" on="0"/>
        <pt x="470" y="-47" on="0"/>
        <pt x="567" y="3" on="0"/>
        <pt x="617" y="3" on="1"/>
        <pt x="650" y="3" on="0"/>
        <pt x="697" y="-15" on="0"/>
        <pt x="729" y="-45" on="0"/>
        <pt x="744" y="-86" on="0"/>
        <pt x="744" y="-109" on="1"/>
        <pt x="744" y="-169" on="0"/>
        <pt x="666" y="-252" on="0"/>
        <pt x="604" y="-269" on="1"/>
        <pt x="539" y="-217" on="1"/>
        <pt x="555" y="-213" on="0"/>
        <pt x="590" y="-198" on="0"/>
        <pt x="620" y="-176" on="0"/>
        <pt x="639" y="-147" on="0"/>
        <pt x="639" y="-129" on="1"/>
        <pt x="639" y="-113" on="0"/>
        <pt x="617" y="-91" on="0"/>
        <pt x="597" y="-91" on="1"/>
        <pt x="576" y="-91" on="0"/>
        <pt x="523" y="-116" on="0"/>
        <pt x="465" y="-154" on="0"/>
        <pt x="401" y="-197" on="0"/>
        <pt x="334" y="-235" on="0"/>
        <pt x="267" y="-260" on="0"/>
        <pt x="234" y="-260" on="1"/>
        <pt x="193" y="-260" on="0"/>
        <pt x="126" y="-235" on="0"/>
        <pt x="76" y="-189" on="0"/>
        <pt x="49" y="-125" on="0"/>
        <pt x="49" y="-86" on="1"/>
        <pt x="49" y="-37" on="0"/>
        <pt x="84" y="41" on="0"/>
        <pt x="146" y="95" on="0"/>
        <pt x="232" y="123" on="0"/>
        <pt x="283" y="123" on="1"/>
        <pt x="411" y="123" on="1"/>
        <pt x="469" y="123" on="0"/>
        <pt x="566" y="148" on="0"/>
        <pt x="634" y="201" on="0"/>
        <pt x="672" y="281" on="0"/>
        <pt x="672" y="335" on="1"/>
        <pt x="672" y="378" on="0"/>
        <pt x="639" y="421" on="0"/>
        <pt x="612" y="421" on="1"/>
        <pt x="577" y="421" on="0"/>
        <pt x="527" y="355" on="0"/>
        <pt x="521" y="291" on="1"/>
        <pt x="513" y="215" on="1"/>
        <pt x="412" y="215" on="1"/>
        <pt x="417" y="260" on="1"/>
        <pt x="420" y="291" on="0"/>
        <pt x="411" y="352" on="0"/>
        <pt x="384" y="398" on="0"/>
        <pt x="339" y="426" on="0"/>
        <pt x="305" y="426" on="1"/>
        <pt x="328" y="404" on="0"/>
        <pt x="354" y="339" on="0"/>
        <pt x="354" y="306" on="1"/>
        <pt x="354" y="279" on="0"/>
        <pt x="335" y="232" on="0"/>
        <pt x="300" y="198" on="0"/>
        <pt x="251" y="178" on="0"/>
        <pt x="222" y="178" on="1"/>
        <pt x="195" y="178" on="0"/>
        <pt x="146" y="195" on="0"/>
        <pt x="108" y="228" on="0"/>
        <pt x="86" y="277" on="0"/>
        <pt x="86" y="310" on="1"/>
        <pt x="86" y="353" on="0"/>
        <pt x="119" y="429" on="0"/>
        <pt x="176" y="486" on="0"/>
        <pt x="252" y="520" on="0"/>
      </contour>
      <contour>
        <pt x="261" y="417" on="1"/>
        <pt x="229" y="405" on="0"/>
        <pt x="184" y="349" on="0"/>
        <pt x="184" y="314" on="1"/>
        <pt x="184" y="291" on="0"/>
        <pt x="207" y="262" on="0"/>
        <pt x="230" y="262" on="1"/>
        <pt x="259" y="262" on="0"/>
        <pt x="293" y="310" on="0"/>
        <pt x="293" y="344" on="1"/>
        <pt x="293" y="363" on="0"/>
        <pt x="277" y="401" on="0"/>
      </contour>
      <contour>
        <pt x="428" y="674" on="1"/>
        <pt x="432" y="705" on="0"/>
        <pt x="471" y="745" on="0"/>
        <pt x="497" y="745" on="1"/>
        <pt x="524" y="745" on="0"/>
        <pt x="556" y="705" on="0"/>
        <pt x="553" y="674" on="1"/>
        <pt x="551" y="647" on="0"/>
        <pt x="510" y="607" on="0"/>
        <pt x="483" y="607" on="1"/>
        <pt x="458" y="607" on="0"/>
        <pt x="426" y="647" on="0"/>
      </contour>
    </TTGlyph>
    <TTGlyph name="ka.tam" xMin="51" yMin="-9" xMax="692" yMax="511">
      <contour>
        <pt x="264" y="287" on="1"/>
        <pt x="390" y="287" on="1"/>
        <pt x="401" y="408" on="1"/>
        <pt x="276" y="408" on="1"/>
      </contour>
      <contour>
        <pt x="207" y="216" on="1"/>
        <pt x="187" y="216" on="0"/>
        <pt x="158" y="193" on="0"/>
        <pt x="158" y="167" on="1"/>
        <pt x="158" y="132" on="0"/>
        <pt x="224" y="85" on="0"/>
        <pt x="284" y="85" on="1"/>
        <pt x="370" y="85" on="0"/>
        <pt x="380" y="179" on="1"/>
        <pt x="384" y="216" on="1"/>
      </contour>
      <contour>
        <pt x="635" y="511" on="1"/>
        <pt x="625" y="408" on="1"/>
        <pt x="503" y="408" on="1"/>
        <pt x="491" y="287" on="1"/>
        <pt x="547" y="287" on="1"/>
        <pt x="613" y="287" on="0"/>
        <pt x="692" y="224" on="0"/>
        <pt x="692" y="166" on="1"/>
        <pt x="692" y="106" on="0"/>
        <pt x="621" y="13" on="0"/>
        <pt x="560" y="-9" on="1"/>
        <pt x="507" y="75" on="1"/>
        <pt x="541" y="83" on="0"/>
        <pt x="586" y="129" on="0"/>
        <pt x="586" y="163" on="1"/>
        <pt x="586" y="188" on="0"/>
        <pt x="556" y="216" on="0"/>
        <pt x="527" y="216" on="1"/>
        <pt x="485" y="216" on="1"/>
        <pt x="481" y="179" on="1"/>
        <pt x="471" y="81" on="0"/>
        <pt x="365" y="-9" on="0"/>
        <pt x="286" y="-9" on="1"/>
        <pt x="230" y="-9" on="0"/>
        <pt x="142" y="23" on="0"/>
        <pt x="82" y="75" on="0"/>
        <pt x="51" y="139" on="0"/>
        <pt x="51" y="172" on="1"/>
        <pt x="51" y="226" on="0"/>
        <pt x="113" y="287" on="0"/>
        <pt x="165" y="287" on="1"/>
        <pt x="170" y="287" on="1"/>
        <pt x="192" y="511" on="1"/>
      </contour>
    </TTGlyph>
    <TTGlyph name="kansv.tam" xMin="51" yMin="-9" xMax="692" yMax="839">
      <contour>
        <pt x="264" y="287" on="1"/>
        <pt x="390" y="287" on="1"/>
        <pt x="401" y="408" on="1"/>
        <pt x="276" y="408" on="1"/>
      </contour>
      <contour>
        <pt x="207" y="216" on="1"/>
        <pt x="187" y="216" on="0"/>
        <pt x="158" y="193" on="0"/>
        <pt x="158" y="167" on="1"/>
        <pt x="158" y="132" on="0"/>
        <pt x="224" y="85" on="0"/>
        <pt x="284" y="85" on="1"/>
        <pt x="370" y="85" on="0"/>
        <pt x="380" y="179" on="1"/>
        <pt x="384" y="216" on="1"/>
      </contour>
      <contour>
        <pt x="635" y="511" on="1"/>
        <pt x="625" y="408" on="1"/>
        <pt x="503" y="408" on="1"/>
        <pt x="491" y="287" on="1"/>
        <pt x="547" y="287" on="1"/>
        <pt x="613" y="287" on="0"/>
        <pt x="692" y="224" on="0"/>
        <pt x="692" y="166" on="1"/>
        <pt x="692" y="106" on="0"/>
        <pt x="621" y="13" on="0"/>
        <pt x="560" y="-9" on="1"/>
        <pt x="507" y="75" on="1"/>
        <pt x="541" y="83" on="0"/>
        <pt x="586" y="129" on="0"/>
        <pt x="586" y="163" on="1"/>
        <pt x="586" y="188" on="0"/>
        <pt x="556" y="216" on="0"/>
        <pt x="527" y="216" on="1"/>
        <pt x="485" y="216" on="1"/>
        <pt x="481" y="179" on="1"/>
        <pt x="471" y="81" on="0"/>
        <pt x="365" y="-9" on="0"/>
        <pt x="286" y="-9" on="1"/>
        <pt x="230" y="-9" on="0"/>
        <pt x="142" y="23" on="0"/>
        <pt x="82" y="75" on="0"/>
        <pt x="51" y="139" on="0"/>
        <pt x="51" y="172" on="1"/>
        <pt x="51" y="226" on="0"/>
        <pt x="113" y="287" on="0"/>
        <pt x="165" y="287" on="1"/>
        <pt x="170" y="287" on="1"/>
        <pt x="192" y="511" on="1"/>
      </contour>
      <contour>
        <pt x="431" y="839" on="1"/>
        <pt x="489" y="839" on="0"/>
        <pt x="553" y="773" on="0"/>
        <pt x="547" y="715" on="1"/>
        <pt x="542" y="658" on="0"/>
        <pt x="465" y="592" on="0"/>
        <pt x="408" y="592" on="1"/>
        <pt x="351" y="592" on="0"/>
        <pt x="287" y="658" on="0"/>
        <pt x="292" y="715" on="1"/>
        <pt x="298" y="773" on="0"/>
        <pt x="374" y="839" on="0"/>
      </contour>
      <contour>
        <pt x="424" y="762" on="1"/>
        <pt x="406" y="762" on="0"/>
        <pt x="384" y="736" on="0"/>
        <pt x="382" y="715" on="1"/>
        <pt x="377" y="671" on="0"/>
        <pt x="415" y="671" on="1"/>
        <pt x="453" y="671" on="0"/>
        <pt x="458" y="715" on="1"/>
        <pt x="460" y="736" on="0"/>
        <pt x="442" y="762" on="0"/>
      </contour>
    </TTGlyph>
    <TTGlyph name="ki.tam" xMin="51" yMin="-9" xMax="913" yMax="791">
      <contour>
        <pt x="650" y="791" on="1"/>
        <pt x="723" y="791" on="0"/>
        <pt x="827" y="739" on="0"/>
        <pt x="890" y="642" on="0"/>
        <pt x="913" y="503" on="0"/>
        <pt x="905" y="416" on="1"/>
        <pt x="865" y="0" on="1"/>
        <pt x="764" y="0" on="1"/>
        <pt x="803" y="416" on="1"/>
        <pt x="810" y="489" on="0"/>
        <pt x="796" y="591" on="0"/>
        <pt x="755" y="655" on="0"/>
        <pt x="691" y="683" on="0"/>
        <pt x="649" y="683" on="1"/>
        <pt x="619" y="683" on="0"/>
        <pt x="566" y="665" on="0"/>
        <pt x="525" y="632" on="0"/>
        <pt x="500" y="587" on="0"/>
        <pt x="497" y="559" on="1"/>
        <pt x="494" y="533" on="0"/>
        <pt x="500" y="511" on="1"/>
        <pt x="635" y="511" on="1"/>
        <pt x="625" y="408" on="1"/>
        <pt x="503" y="408" on="1"/>
        <pt x="491" y="287" on="1"/>
        <pt x="547" y="287" on="1"/>
        <pt x="613" y="287" on="0"/>
        <pt x="692" y="224" on="0"/>
        <pt x="692" y="166" on="1"/>
        <pt x="692" y="106" on="0"/>
        <pt x="621" y="13" on="0"/>
        <pt x="560" y="-9" on="1"/>
        <pt x="507" y="75" on="1"/>
        <pt x="541" y="83" on="0"/>
        <pt x="586" y="129" on="0"/>
        <pt x="586" y="163" on="1"/>
        <pt x="586" y="188" on="0"/>
        <pt x="556" y="216" on="0"/>
        <pt x="527" y="216" on="1"/>
        <pt x="485" y="216" on="1"/>
        <pt x="481" y="179" on="1"/>
        <pt x="471" y="81" on="0"/>
        <pt x="365" y="-9" on="0"/>
        <pt x="286" y="-9" on="1"/>
        <pt x="230" y="-9" on="0"/>
        <pt x="142" y="23" on="0"/>
        <pt x="82" y="75" on="0"/>
        <pt x="51" y="139" on="0"/>
        <pt x="51" y="172" on="1"/>
        <pt x="51" y="226" on="0"/>
        <pt x="113" y="287" on="0"/>
        <pt x="165" y="287" on="1"/>
        <pt x="170" y="287" on="1"/>
        <pt x="192" y="511" on="1"/>
        <pt x="438" y="511" on="1"/>
        <pt x="418" y="529" on="0"/>
        <pt x="397" y="584" on="0"/>
        <pt x="401" y="616" on="1"/>
        <pt x="404" y="654" on="0"/>
        <pt x="444" y="718" on="0"/>
        <pt x="510" y="765" on="0"/>
        <pt x="599" y="791" on="0"/>
      </contour>
      <contour>
        <pt x="207" y="216" on="1"/>
        <pt x="187" y="216" on="0"/>
        <pt x="158" y="193" on="0"/>
        <pt x="158" y="167" on="1"/>
        <pt x="158" y="132" on="0"/>
        <pt x="224" y="85" on="0"/>
        <pt x="284" y="85" on="1"/>
        <pt x="370" y="85" on="0"/>
        <pt x="380" y="179" on="1"/>
        <pt x="384" y="216" on="1"/>
      </contour>
      <contour>
        <pt x="264" y="287" on="1"/>
        <pt x="390" y="287" on="1"/>
        <pt x="401" y="408" on="1"/>
        <pt x="276" y="408" on="1"/>
      </contour>
    </TTGlyph>
</ttFont>
